<svg xmlns="http://www.w3.org/2000/svg" xmlns:xlink="http://www.w3.org/1999/xlink" contentStyleType="text/css" data-diagram-type="SEQUENCE" height="674px" preserveAspectRatio="none" style="width:792px;height:674px;background:#FFFFFF;" version="1.1" viewBox="0 0 792 674" width="792px" zoomAndPan="magnify"><title>UC-07 - Manage Shopping Cart</title><defs/><g><text fill="#000000" font-family="sans-serif" font-size="14" font-weight="bold" lengthAdjust="spacing" textLength="205.3447" x="294.9983" y="29.5332">UC-07 - Manage Shopping Cart</text><rect fill="none" height="91.0547" style="stroke:#000000;stroke-width:1.5;" width="486.9292" x="136" y="333.3281"/><g><title>Guest</title><rect fill="#000000" fill-opacity="0.00000" height="470.9766" width="8" x="43.6758" y="121.2188"/><line style="stroke:#181818;stroke-width:0.5;stroke-dasharray:5,5;" x1="47" x2="47" y1="121.2188" y2="592.1953"/></g><g><title>Cart UI</title><rect fill="#000000" fill-opacity="0.00000" height="470.9766" width="8" x="191.5195" y="121.2188"/><line style="stroke:#181818;stroke-width:0.5;stroke-dasharray:5,5;" x1="195.3506" x2="195.3506" y1="121.2188" y2="592.1953"/></g><g><title>Local cart utilities</title><rect fill="#000000" fill-opacity="0.00000" height="470.9766" width="8" x="416.9292" y="121.2188"/><line style="stroke:#181818;stroke-width:0.5;stroke-dasharray:5,5;" x1="420.2397" x2="420.2397" y1="121.2188" y2="592.1953"/></g><g><title>bagStorage . bagHelper</title><rect fill="#000000" fill-opacity="0.00000" height="470.9766" width="8" x="560.9492" y="121.2188"/><line style="stroke:#181818;stroke-width:0.5;stroke-dasharray:5,5;" x1="564.6187" x2="564.6187" y1="121.2188" y2="592.1953"/></g><g><title>Browser localStorage</title><rect fill="#000000" fill-opacity="0.00000" height="470.9766" width="8" x="717.8105" y="121.2188"/><line style="stroke:#181818;stroke-width:0.5;stroke-dasharray:5,5;" x1="721.2798" x2="721.2798" y1="121.2188" y2="592.1953"/></g><g class="participant participant-head" data-participant="Actor"><text fill="#000000" font-family="sans-serif" font-size="14" lengthAdjust="spacing" textLength="37.3516" x="26" y="118.1426">Guest</text><ellipse cx="47.6758" cy="52.1094" fill="#E2E2F0" rx="8" ry="8" style="stroke:#181818;stroke-width:0.5;"/><path d="M47.6758,60.1094 L47.6758,87.1094 M34.6758,68.1094 L60.6758,68.1094 M47.6758,87.1094 L34.6758,102.1094 M47.6758,87.1094 L60.6758,102.1094" fill="none" style="stroke:#181818;stroke-width:0.5;"/></g><g class="participant participant-tail" data-participant="Actor"><text fill="#000000" font-family="sans-serif" font-size="14" lengthAdjust="spacing" textLength="37.3516" x="26" y="605.7285">Guest</text><ellipse cx="47.6758" cy="617.3047" fill="#E2E2F0" rx="8" ry="8" style="stroke:#181818;stroke-width:0.5;"/><path d="M47.6758,625.3047 L47.6758,652.3047 M34.6758,633.3047 L60.6758,633.3047 M47.6758,652.3047 L34.6758,667.3047 M47.6758,652.3047 L60.6758,667.3047" fill="none" style="stroke:#181818;stroke-width:0.5;"/></g><g class="participant participant-head" data-participant="FE"><text fill="#000000" font-family="sans-serif" font-size="14" lengthAdjust="spacing" textLength="44.3379" x="170.3506" y="118.1426">Cart UI</text><path d="M175.0195,75.6094 L175.0195,99.6094 M175.0195,87.6094 L192.0195,87.6094" fill="none" style="stroke:#181818;stroke-width:0.5;"/><ellipse cx="204.0195" cy="87.6094" fill="#E2E2F0" rx="12" ry="12" style="stroke:#181818;stroke-width:0.5;"/></g><g class="participant participant-tail" data-participant="FE"><text fill="#000000" font-family="sans-serif" font-size="14" lengthAdjust="spacing" textLength="44.3379" x="170.3506" y="605.7285">Cart UI</text><path d="M175.0195,612.8047 L175.0195,636.8047 M175.0195,624.8047 L192.0195,624.8047" fill="none" style="stroke:#181818;stroke-width:0.5;"/><ellipse cx="204.0195" cy="624.8047" fill="#E2E2F0" rx="12" ry="12" style="stroke:#181818;stroke-width:0.5;"/></g><g class="participant participant-head" data-participant="API"><text fill="#000000" font-family="sans-serif" font-size="14" lengthAdjust="spacing" textLength="107.3789" x="364.2397" y="118.1426">Local cart utilities</text><ellipse cx="420.9292" cy="87.6094" fill="#E2E2F0" rx="12" ry="12" style="stroke:#181818;stroke-width:0.5;"/><polygon fill="#181818" points="416.9292,75.6094,422.9292,70.6094,420.9292,75.6094,422.9292,80.6094,416.9292,75.6094" style="stroke:#181818;stroke-width:1;"/></g><g class="participant participant-tail" data-participant="API"><text fill="#000000" font-family="sans-serif" font-size="14" lengthAdjust="spacing" textLength="107.3789" x="364.2397" y="605.7285">Local cart utilities</text><ellipse cx="420.9292" cy="624.8047" fill="#E2E2F0" rx="12" ry="12" style="stroke:#181818;stroke-width:0.5;"/><polygon fill="#181818" points="416.9292,612.8047,422.9292,607.8047,420.9292,612.8047,422.9292,617.8047,416.9292,612.8047" style="stroke:#181818;stroke-width:1;"/></g><g class="participant participant-head" data-participant="Service"><text fill="#000000" font-family="sans-serif" font-size="14" lengthAdjust="spacing" textLength="148.6611" x="487.6187" y="118.1426">bagStorage / bagHelper</text><ellipse cx="564.9492" cy="87.6094" fill="#E2E2F0" rx="12" ry="12" style="stroke:#181818;stroke-width:0.5;"/><polygon fill="#181818" points="560.9492,75.6094,566.9492,70.6094,564.9492,75.6094,566.9492,80.6094,560.9492,75.6094" style="stroke:#181818;stroke-width:1;"/></g><g class="participant participant-tail" data-participant="Service"><text fill="#000000" font-family="sans-serif" font-size="14" lengthAdjust="spacing" textLength="148.6611" x="487.6187" y="605.7285">bagStorage / bagHelper</text><ellipse cx="564.9492" cy="624.8047" fill="#E2E2F0" rx="12" ry="12" style="stroke:#181818;stroke-width:0.5;"/><polygon fill="#181818" points="560.9492,612.8047,566.9492,607.8047,564.9492,612.8047,566.9492,617.8047,560.9492,612.8047" style="stroke:#181818;stroke-width:1;"/></g><g class="participant participant-head" data-participant="DB"><text fill="#000000" font-family="sans-serif" font-size="14" lengthAdjust="spacing" textLength="133.0615" x="652.2798" y="118.1426">Browser localStorage</text><path d="M703.8105,67.6094 C703.8105,57.6094 721.8105,57.6094 721.8105,57.6094 C721.8105,57.6094 739.8105,57.6094 739.8105,67.6094 L739.8105,93.6094 C739.8105,103.6094 721.8105,103.6094 721.8105,103.6094 C721.8105,103.6094 703.8105,103.6094 703.8105,93.6094 L703.8105,67.6094" fill="#E2E2F0" style="stroke:#181818;stroke-width:0.5;"/><path d="M703.8105,67.6094 C703.8105,77.6094 721.8105,77.6094 721.8105,77.6094 C721.8105,77.6094 739.8105,77.6094 739.8105,67.6094" fill="none" style="stroke:#181818;stroke-width:0.5;"/></g><g class="participant participant-tail" data-participant="DB"><text fill="#000000" font-family="sans-serif" font-size="14" lengthAdjust="spacing" textLength="133.0615" x="652.2798" y="605.7285">Browser localStorage</text><path d="M703.8105,618.8047 C703.8105,608.8047 721.8105,608.8047 721.8105,608.8047 C721.8105,608.8047 739.8105,608.8047 739.8105,618.8047 L739.8105,644.8047 C739.8105,654.8047 721.8105,654.8047 721.8105,654.8047 C721.8105,654.8047 703.8105,654.8047 703.8105,644.8047 L703.8105,618.8047" fill="#E2E2F0" style="stroke:#181818;stroke-width:0.5;"/><path d="M703.8105,618.8047 C703.8105,628.8047 721.8105,628.8047 721.8105,628.8047 C721.8105,628.8047 739.8105,628.8047 739.8105,618.8047" fill="none" style="stroke:#181818;stroke-width:0.5;"/></g><g class="message" data-participant-1="Actor" data-participant-2="FE"><polygon fill="#181818" points="183.5195,149.5703,193.5195,153.5703,183.5195,157.5703,187.5195,153.5703" style="stroke:#181818;stroke-width:1;"/><line style="stroke:#181818;stroke-width:1;" x1="47.6758" x2="189.5195" y1="153.5703" y2="153.5703"/><text fill="#000000" font-family="sans-serif" font-size="13" font-weight="bold" lengthAdjust="spacing" textLength="7.23" x="81.6672" y="148.7139">1</text><text fill="#000000" font-family="sans-serif" font-size="13" lengthAdjust="spacing" textLength="68.6309" x="92.8972" y="148.7139">Start UC-07</text></g><g class="message" data-participant-1="FE" data-participant-2="API"><polygon fill="#181818" points="408.9292,179.9219,418.9292,183.9219,408.9292,187.9219,412.9292,183.9219" style="stroke:#181818;stroke-width:1;"/><line style="stroke:#181818;stroke-width:1;" x1="195.5195" x2="414.9292" y1="183.9219" y2="183.9219"/><text fill="#000000" font-family="sans-serif" font-size="13" font-weight="bold" lengthAdjust="spacing" textLength="7.23" x="250.9426" y="179.0654">2</text><text fill="#000000" font-family="sans-serif" font-size="13" lengthAdjust="spacing" textLength="103.3335" x="262.1726" y="179.0654">Local cart storage</text></g><g class="message" data-participant-1="FE" data-participant-2="FE"><line style="stroke:#181818;stroke-width:1;" x1="195.5195" x2="237.5195" y1="214.2734" y2="214.2734"/><line style="stroke:#181818;stroke-width:1;" x1="237.5195" x2="237.5195" y1="214.2734" y2="227.2734"/><line style="stroke:#181818;stroke-width:1;" x1="196.5195" x2="237.5195" y1="227.2734" y2="227.2734"/><polygon fill="#181818" points="206.5195,223.2734,196.5195,227.2734,206.5195,231.2734,202.5195,227.2734" style="stroke:#181818;stroke-width:1;"/><text fill="#000000" font-family="sans-serif" font-size="13" font-weight="bold" lengthAdjust="spacing" textLength="7.23" x="202.5195" y="209.417">3</text><text fill="#000000" font-family="sans-serif" font-size="13" lengthAdjust="spacing" textLength="200.1797" x="213.7495" y="209.417">Update cart state and localStorage</text></g><g class="message" data-participant-1="Service" data-participant-2="API"><polygon fill="#181818" points="431.9292,253.625,421.9292,257.625,431.9292,261.625,427.9292,257.625" style="stroke:#181818;stroke-width:1;"/><line style="stroke:#181818;stroke-width:1;stroke-dasharray:2,2;" x1="425.9292" x2="563.9492" y1="257.625" y2="257.625"/><text fill="#000000" font-family="sans-serif" font-size="13" font-weight="bold" lengthAdjust="spacing" textLength="7.23" x="468.9001" y="252.7686">4</text><text fill="#000000" font-family="sans-serif" font-size="13" lengthAdjust="spacing" textLength="36.8481" x="480.1301" y="252.7686">Result</text></g><g class="message" data-participant-1="API" data-participant-2="FE"><polygon fill="#181818" points="206.5195,283.9766,196.5195,287.9766,206.5195,291.9766,202.5195,287.9766" style="stroke:#181818;stroke-width:1;"/><line style="stroke:#181818;stroke-width:1;stroke-dasharray:2,2;" x1="200.5195" x2="419.9292" y1="287.9766" y2="287.9766"/><text fill="#000000" font-family="sans-serif" font-size="13" font-weight="bold" lengthAdjust="spacing" textLength="7.23" x="273.3403" y="283.1201">5</text><text fill="#000000" font-family="sans-serif" font-size="13" lengthAdjust="spacing" textLength="58.5381" x="284.5703" y="283.1201">Response</text></g><g class="message" data-participant-1="FE" data-participant-2="Actor"><polygon fill="#181818" points="58.6758,314.3281,48.6758,318.3281,58.6758,322.3281,54.6758,318.3281" style="stroke:#181818;stroke-width:1;"/><line style="stroke:#181818;stroke-width:1;stroke-dasharray:2,2;" x1="52.6758" x2="194.5195" y1="318.3281" y2="318.3281"/><text fill="#000000" font-family="sans-serif" font-size="13" font-weight="bold" lengthAdjust="spacing" textLength="7.23" x="59.6758" y="313.4717">6</text><text fill="#000000" font-family="sans-serif" font-size="13" lengthAdjust="spacing" textLength="112.6138" x="70.9058" y="313.4717">Cart &#273;&#432;&#7907;c c&#7853;p nh&#7853;t</text></g><path d="M136,333.3281 L196.1709,333.3281 L196.1709,341.6797 L186.1709,351.6797 L136,351.6797 L136,333.3281" fill="#EEEEEE" style="stroke:#000000;stroke-width:1.5;"/><rect fill="none" height="91.0547" style="stroke:#000000;stroke-width:1.5;" width="486.9292" x="136" y="333.3281"/><text fill="#000000" font-family="sans-serif" font-size="13" font-weight="bold" lengthAdjust="spacing" textLength="15.1709" x="151" y="347.8232">alt</text><text fill="#000000" font-family="sans-serif" font-size="11" font-weight="bold" lengthAdjust="spacing" textLength="149.7461" x="211.1709" y="346.7471">[Alternative / exception flow]</text><path d="M146,356.6797 L146,382.6797 L612,382.6797 L612,366.6797 L602,356.6797 L146,356.6797" fill="#FEFFDD" style="stroke:#181818;stroke-width:0.5;"/><path d="M602,356.6797 L602,366.6797 L612,366.6797 L602,356.6797" fill="#FEFFDD" style="stroke:#181818;stroke-width:0.5;"/><text fill="#000000" font-family="sans-serif" font-size="13" lengthAdjust="spacing" textLength="251.0942" x="249.4175" y="375.1748">Gi&#7843;m quantity xu&#7889;ng 0 -&gt; x&#243;a item kh&#7887;i cart</text><path d="M146,393.0313 L146,419.0313 L612,419.0313 L612,403.0313 L602,393.0313 L146,393.0313" fill="#FEFFDD" style="stroke:#181818;stroke-width:0.5;"/><path d="M602,393.0313 L602,403.0313 L612,403.0313 L602,393.0313" fill="#FEFFDD" style="stroke:#181818;stroke-width:0.5;"/><text fill="#000000" font-family="sans-serif" font-size="13" lengthAdjust="spacing" textLength="291.1606" x="229.3843" y="411.5264">T&#259;ng quantity v&#432;&#7907;t stock -&gt; gi&#7899;i h&#7841;n &#7903; stock t&#7889;i &#273;a</text><path d="M5,436.3828 L5,576.3828 L765,576.3828 L765,446.3828 L755,436.3828 L5,436.3828" fill="#FEFFDD" style="stroke:#181818;stroke-width:0.5;"/><path d="M755,436.3828 L755,446.3828 L765,446.3828 L755,436.3828" fill="#FEFFDD" style="stroke:#181818;stroke-width:0.5;"/><text fill="#000000" font-family="sans-serif" font-size="13" lengthAdjust="spacing" textLength="148.1162" x="133.5374" y="454.8779">Pre: Cart c&#243; &#237;t nh&#7845;t 1 item</text><text fill="#000000" font-family="sans-serif" font-size="13" lengthAdjust="spacing" textLength="145.8501" x="133.5374" y="471.2295">Post: Cart &#273;&#432;&#7907;c c&#7853;p nh&#7853;t</text><text fill="#000000" font-family="sans-serif" font-size="13" lengthAdjust="spacing" textLength="58.519" x="133.5374" y="487.5811">Main flow:</text><text fill="#000000" font-family="sans-serif" font-size="13" lengthAdjust="spacing" textLength="128.6289" x="133.5374" y="503.9326">1. User v&#224;o trang /bag</text><text fill="#000000" font-family="sans-serif" font-size="13" lengthAdjust="spacing" textLength="494.2666" x="133.5374" y="520.2842">2. System hi&#7875;n th&#7883; danh s&#225;ch items: &#7843;nh, t&#234;n, color, size, quantity, unit\nprice, subtotal</text><text fill="#000000" font-family="sans-serif" font-size="13" lengthAdjust="spacing" textLength="250.7388" x="133.5374" y="536.6357">3. User c&#243; th&#7875;: t&#259;ng/gi&#7843;m quantity, x&#243;a item</text><text fill="#000000" font-family="sans-serif" font-size="13" lengthAdjust="spacing" textLength="298.4351" x="133.5374" y="552.9873">4. System t&#237;nh l&#7841;i t&#7893;ng ti&#7873;n (subtotal, discount, total)</text><text fill="#000000" font-family="sans-serif" font-size="13" lengthAdjust="spacing" textLength="205.9624" x="133.5374" y="569.3389">5. System l&#432;u cart v&#224;o localStorage</text><!--SRC=[VLCzJzn04EttLuokIYGV7_bG91UHW02952IKotLfzjRBUSNUhDaT7v0keamHKQHAaI2K9X8I4XrN6l4__4yoksSEA9BAzdoyUU_DMDRai9wCj1TXts0blPn0A6NX3WsEOK_Qe1zcz46jKUaT7O8SwpLhnWXA8t4_6R8QXXlzbLVGXns9N023qbLLHDgGdeIGYfo7tdQj0_L01bYB0J5oDHRI7qClbi7mNSfjRGhbaBopq7llbBIWOhOcOmqP7UO0k-_kgqPoF62yE7WP-EEjjfNsgMwW_TGeBGf9SYI3XjwwTuT1Ux0HkcjBfM_MXKYyeF-QIUGmeCGgAXDRcp7AKtDum2dCsxjix1bMF4dVPUEhnEBHBD5HWluTu0STQak2trCimd2eSXZcoB4kyigJct1pUdlPpiuLgFRweW8i-H4zjWHhbZU2aimqEg6FbAx8E8Gzwmu503hcuwOiVcipwsZai6tQw_C97DGIUPV7S5ItirDUtKhKTDHSIJ2a9x1VjhDl9Ydx9zJ7cnDkN21D4z5aazgFQ6FJpduOOCPd2EtiPvSX7cXObnGQ2o7kiPFiZ1UpwtMdNZLNq5nGalsRO3MH4xikq7_jsP5cRaCkLfTW60zWslnoG5uousK-6l5i2GR78KejcUO90h7Yhr18B24qPwfCeq8ER1UM6L3p1pDGpZ952EQppXRACwZHq2UiFDl2oNf4ZgGLpxlHKKH4Fyc1ecNBuySxoEvz5oyMjAYvO2gMpJFHikzCd9Zf5uGdTnCoA4nG_5iHyuk1f-Bbej_UNjRpoqpI7nqb6vzs-XS0]--></g></svg>