<svg xmlns="http://www.w3.org/2000/svg" xmlns:xlink="http://www.w3.org/1999/xlink" contentStyleType="text/css" data-diagram-type="SEQUENCE" height="900px" preserveAspectRatio="none" style="width:1179px;height:900px;background:#FFFFFF;" version="1.1" viewBox="0 0 1179 900" width="1179px" zoomAndPan="magnify"><title>UC-10 - PayOS Payment Processing</title><defs/><g><text fill="#000000" font-family="sans-serif" font-size="14" font-weight="bold" lengthAdjust="spacing" textLength="239.6475" x="468.9094" y="29.5332">UC-10 - PayOS Payment Processing</text><rect fill="none" height="143.7578" style="stroke:#000000;stroke-width:1.5;" width="539.7168" x="202" y="441.7344"/><g><title>Guest</title><rect fill="#000000" fill-opacity="0.00000" height="697.4922" width="8" x="69.6758" y="121.2188"/><line style="stroke:#181818;stroke-width:0.5;stroke-dasharray:5,5;" x1="73" x2="73" y1="121.2188" y2="818.7109"/></g><g><title>Checkout . Payment UI</title><rect fill="#000000" fill-opacity="0.00000" height="697.4922" width="8" x="270.4082" y="121.2188"/><line style="stroke:#181818;stroke-width:0.5;stroke-dasharray:5,5;" x1="273.4326" x2="273.4326" y1="121.2188" y2="818.7109"/></g><g><title>PaymentController</title><rect fill="#000000" fill-opacity="0.00000" height="697.4922" width="8" x="416.3525" y="121.2188"/><line style="stroke:#181818;stroke-width:0.5;stroke-dasharray:5,5;" x1="419.3838" x2="419.3838" y1="121.2188" y2="818.7109"/></g><g><title>PaymentService</title><rect fill="#000000" fill-opacity="0.00000" height="697.4922" width="8" x="666.1841" y="121.2188"/><line style="stroke:#181818;stroke-width:0.5;stroke-dasharray:5,5;" x1="669.2188" x2="669.2188" y1="121.2188" y2="818.7109"/></g><g><title>MongoDB. bills. shoesDetail. coupons</title><rect fill="#000000" fill-opacity="0.00000" height="697.4922" width="8" x="921.0811" y="121.2188"/><line style="stroke:#181818;stroke-width:0.5;stroke-dasharray:5,5;" x1="924.1851" x2="924.1851" y1="121.2188" y2="818.7109"/></g><g><title>PayOS Gateway</title><rect fill="#000000" fill-opacity="0.00000" height="697.4922" width="8" x="1110.7217" y="121.2188"/><line style="stroke:#181818;stroke-width:0.5;stroke-dasharray:5,5;" x1="1113.9771" x2="1113.9771" y1="121.2188" y2="818.7109"/></g><g class="participant participant-head" data-participant="Actor"><text fill="#000000" font-family="sans-serif" font-size="14" lengthAdjust="spacing" textLength="37.3516" x="52" y="118.1426">Guest</text><ellipse cx="73.6758" cy="52.1094" fill="#E2E2F0" rx="8" ry="8" style="stroke:#181818;stroke-width:0.5;"/><path d="M73.6758,60.1094 L73.6758,87.1094 M60.6758,68.1094 L86.6758,68.1094 M73.6758,87.1094 L60.6758,102.1094 M73.6758,87.1094 L86.6758,102.1094" fill="none" style="stroke:#181818;stroke-width:0.5;"/></g><g class="participant participant-tail" data-participant="Actor"><text fill="#000000" font-family="sans-serif" font-size="14" lengthAdjust="spacing" textLength="37.3516" x="52" y="832.2441">Guest</text><ellipse cx="73.6758" cy="843.8203" fill="#E2E2F0" rx="8" ry="8" style="stroke:#181818;stroke-width:0.5;"/><path d="M73.6758,851.8203 L73.6758,878.8203 M60.6758,859.8203 L86.6758,859.8203 M73.6758,878.8203 L60.6758,893.8203 M73.6758,878.8203 L86.6758,893.8203" fill="none" style="stroke:#181818;stroke-width:0.5;"/></g><g class="participant participant-head" data-participant="FE"><text fill="#000000" font-family="sans-serif" font-size="14" lengthAdjust="spacing" textLength="143.9512" x="199.4326" y="118.1426">Checkout / Payment UI</text><path d="M253.9082,75.6094 L253.9082,99.6094 M253.9082,87.6094 L270.9082,87.6094" fill="none" style="stroke:#181818;stroke-width:0.5;"/><ellipse cx="282.9082" cy="87.6094" fill="#E2E2F0" rx="12" ry="12" style="stroke:#181818;stroke-width:0.5;"/></g><g class="participant participant-tail" data-participant="FE"><text fill="#000000" font-family="sans-serif" font-size="14" lengthAdjust="spacing" textLength="143.9512" x="199.4326" y="832.2441">Checkout / Payment UI</text><path d="M253.9082,839.3203 L253.9082,863.3203 M253.9082,851.3203 L270.9082,851.3203" fill="none" style="stroke:#181818;stroke-width:0.5;"/><ellipse cx="282.9082" cy="851.3203" fill="#E2E2F0" rx="12" ry="12" style="stroke:#181818;stroke-width:0.5;"/></g><g class="participant participant-head" data-participant="API"><text fill="#000000" font-family="sans-serif" font-size="14" lengthAdjust="spacing" textLength="115.9375" x="359.3838" y="118.1426">PaymentController</text><ellipse cx="420.3525" cy="87.6094" fill="#E2E2F0" rx="12" ry="12" style="stroke:#181818;stroke-width:0.5;"/><polygon fill="#181818" points="416.3525,75.6094,422.3525,70.6094,420.3525,75.6094,422.3525,80.6094,416.3525,75.6094" style="stroke:#181818;stroke-width:1;"/></g><g class="participant participant-tail" data-participant="API"><text fill="#000000" font-family="sans-serif" font-size="14" lengthAdjust="spacing" textLength="115.9375" x="359.3838" y="832.2441">PaymentController</text><ellipse cx="420.3525" cy="851.3203" fill="#E2E2F0" rx="12" ry="12" style="stroke:#181818;stroke-width:0.5;"/><polygon fill="#181818" points="416.3525,839.3203,422.3525,834.3203,420.3525,839.3203,422.3525,844.3203,416.3525,839.3203" style="stroke:#181818;stroke-width:1;"/></g><g class="participant participant-head" data-participant="Service"><text fill="#000000" font-family="sans-serif" font-size="14" lengthAdjust="spacing" textLength="101.9307" x="616.2188" y="118.1426">PaymentService</text><ellipse cx="670.1841" cy="87.6094" fill="#E2E2F0" rx="12" ry="12" style="stroke:#181818;stroke-width:0.5;"/><polygon fill="#181818" points="666.1841,75.6094,672.1841,70.6094,670.1841,75.6094,672.1841,80.6094,666.1841,75.6094" style="stroke:#181818;stroke-width:1;"/></g><g class="participant participant-tail" data-participant="Service"><text fill="#000000" font-family="sans-serif" font-size="14" lengthAdjust="spacing" textLength="101.9307" x="616.2188" y="832.2441">PaymentService</text><ellipse cx="670.1841" cy="851.3203" fill="#E2E2F0" rx="12" ry="12" style="stroke:#181818;stroke-width:0.5;"/><polygon fill="#181818" points="666.1841,839.3203,672.1841,834.3203,670.1841,839.3203,672.1841,844.3203,666.1841,839.3203" style="stroke:#181818;stroke-width:1;"/></g><g class="participant participant-head" data-participant="DB"><text fill="#000000" font-family="sans-serif" font-size="14" lengthAdjust="spacing" textLength="235.792" x="804.1851" y="118.1426">MongoDB: bills, shoesDetail, coupons</text><path d="M907.0811,67.6094 C907.0811,57.6094 925.0811,57.6094 925.0811,57.6094 C925.0811,57.6094 943.0811,57.6094 943.0811,67.6094 L943.0811,93.6094 C943.0811,103.6094 925.0811,103.6094 925.0811,103.6094 C925.0811,103.6094 907.0811,103.6094 907.0811,93.6094 L907.0811,67.6094" fill="#E2E2F0" style="stroke:#181818;stroke-width:0.5;"/><path d="M907.0811,67.6094 C907.0811,77.6094 925.0811,77.6094 925.0811,77.6094 C925.0811,77.6094 943.0811,77.6094 943.0811,67.6094" fill="none" style="stroke:#181818;stroke-width:0.5;"/></g><g class="participant participant-tail" data-participant="DB"><text fill="#000000" font-family="sans-serif" font-size="14" lengthAdjust="spacing" textLength="235.792" x="804.1851" y="832.2441">MongoDB: bills, shoesDetail, coupons</text><path d="M907.0811,845.3203 C907.0811,835.3203 925.0811,835.3203 925.0811,835.3203 C925.0811,835.3203 943.0811,835.3203 943.0811,845.3203 L943.0811,871.3203 C943.0811,881.3203 925.0811,881.3203 925.0811,881.3203 C925.0811,881.3203 907.0811,881.3203 907.0811,871.3203 L907.0811,845.3203" fill="#E2E2F0" style="stroke:#181818;stroke-width:0.5;"/><path d="M907.0811,845.3203 C907.0811,855.3203 925.0811,855.3203 925.0811,855.3203 C925.0811,855.3203 943.0811,855.3203 943.0811,845.3203" fill="none" style="stroke:#181818;stroke-width:0.5;"/></g><g class="participant participant-head" data-participant="PayOS_Gateway"><rect fill="#E2E2F0" height="31.6094" rx="2.5" ry="2.5" style="stroke:#181818;stroke-width:0.5;" width="117.4893" x="1055.9771" y="88.6094"/><text fill="#000000" font-family="sans-serif" font-size="14" lengthAdjust="spacing" textLength="103.4893" x="1062.9771" y="110.1426">PayOS Gateway</text></g><g class="participant participant-tail" data-participant="PayOS_Gateway"><rect fill="#E2E2F0" height="31.6094" rx="2.5" ry="2.5" style="stroke:#181818;stroke-width:0.5;" width="117.4893" x="1055.9771" y="817.7109"/><text fill="#000000" font-family="sans-serif" font-size="14" lengthAdjust="spacing" textLength="103.4893" x="1062.9771" y="839.2441">PayOS Gateway</text></g><g class="message" data-participant-1="Actor" data-participant-2="FE"><polygon fill="#181818" points="262.4082,149.5703,272.4082,153.5703,262.4082,157.5703,266.4082,153.5703" style="stroke:#181818;stroke-width:1;"/><line style="stroke:#181818;stroke-width:1;" x1="73.6758" x2="268.4082" y1="153.5703" y2="153.5703"/><text fill="#000000" font-family="sans-serif" font-size="13" font-weight="bold" lengthAdjust="spacing" textLength="7.23" x="134.1116" y="148.7139">1</text><text fill="#000000" font-family="sans-serif" font-size="13" lengthAdjust="spacing" textLength="68.6309" x="145.3416" y="148.7139">Start UC-10</text></g><g class="message" data-participant-1="FE" data-participant-2="API"><polygon fill="#181818" points="408.3525,179.9219,418.3525,183.9219,408.3525,187.9219,412.3525,183.9219" style="stroke:#181818;stroke-width:1;"/><line style="stroke:#181818;stroke-width:1;" x1="274.4082" x2="414.3525" y1="183.9219" y2="183.9219"/><text fill="#000000" font-family="sans-serif" font-size="13" font-weight="bold" lengthAdjust="spacing" textLength="7.23" x="292.2759" y="179.0654">2</text><text fill="#000000" font-family="sans-serif" font-size="13" lengthAdjust="spacing" textLength="98.979" x="303.5059" y="179.0654">POST /payments</text></g><g class="message" data-participant-1="API" data-participant-2="Service"><polygon fill="#181818" points="658.1841,210.2734,668.1841,214.2734,658.1841,218.2734,662.1841,214.2734" style="stroke:#181818;stroke-width:1;"/><line style="stroke:#181818;stroke-width:1;" x1="420.3525" x2="664.1841" y1="214.2734" y2="214.2734"/><text fill="#000000" font-family="sans-serif" font-size="13" font-weight="bold" lengthAdjust="spacing" textLength="7.23" x="432.3525" y="209.417">3</text><text fill="#000000" font-family="sans-serif" font-size="13" lengthAdjust="spacing" textLength="214.6016" x="443.5825" y="209.417">Execute PayOS Payment Processing</text></g><g class="message" data-participant-1="Service" data-participant-2="DB"><polygon fill="#181818" points="913.0811,240.625,923.0811,244.625,913.0811,248.625,917.0811,244.625" style="stroke:#181818;stroke-width:1;"/><line style="stroke:#181818;stroke-width:1;" x1="670.1841" x2="919.0811" y1="244.625" y2="244.625"/><text fill="#000000" font-family="sans-serif" font-size="13" font-weight="bold" lengthAdjust="spacing" textLength="7.23" x="682.1841" y="239.7686">4</text><text fill="#000000" font-family="sans-serif" font-size="13" lengthAdjust="spacing" textLength="219.667" x="693.4141" y="239.7686">Read/write bills, shoesDetail, coupons</text></g><g class="message" data-participant-1="DB" data-participant-2="Service"><polygon fill="#181818" points="681.1841,270.9766,671.1841,274.9766,681.1841,278.9766,677.1841,274.9766" style="stroke:#181818;stroke-width:1;"/><line style="stroke:#181818;stroke-width:1;stroke-dasharray:2,2;" x1="675.1841" x2="924.0811" y1="274.9766" y2="274.9766"/><text fill="#000000" font-family="sans-serif" font-size="13" font-weight="bold" lengthAdjust="spacing" textLength="7.23" x="755.1631" y="270.1201">5</text><text fill="#000000" font-family="sans-serif" font-size="13" lengthAdjust="spacing" textLength="73.709" x="766.3931" y="270.1201">Domain data</text></g><g class="message" data-participant-1="Service" data-participant-2="PayOS_Gateway"><polygon fill="#181818" points="1102.7217,301.3281,1112.7217,305.3281,1102.7217,309.3281,1106.7217,305.3281" style="stroke:#181818;stroke-width:1;"/><line style="stroke:#181818;stroke-width:1;" x1="670.1841" x2="1108.7217" y1="305.3281" y2="305.3281"/><text fill="#000000" font-family="sans-serif" font-size="13" font-weight="bold" lengthAdjust="spacing" textLength="7.23" x="793.9939" y="300.4717">6</text><text fill="#000000" font-family="sans-serif" font-size="13" lengthAdjust="spacing" textLength="185.688" x="805.2239" y="300.4717">Create/verify PayOS transaction</text></g><g class="message" data-participant-1="PayOS_Gateway" data-participant-2="Service"><polygon fill="#181818" points="681.1841,331.6797,671.1841,335.6797,681.1841,339.6797,677.1841,335.6797" style="stroke:#181818;stroke-width:1;"/><line style="stroke:#181818;stroke-width:1;stroke-dasharray:2,2;" x1="675.1841" x2="1113.7217" y1="335.6797" y2="335.6797"/><text fill="#000000" font-family="sans-serif" font-size="13" font-weight="bold" lengthAdjust="spacing" textLength="7.23" x="848.5457" y="330.8232">7</text><text fill="#000000" font-family="sans-serif" font-size="13" lengthAdjust="spacing" textLength="76.5845" x="859.7756" y="330.8232">PayOS result</text></g><g class="message" data-participant-1="Service" data-participant-2="API"><polygon fill="#181818" points="431.3525,362.0313,421.3525,366.0313,431.3525,370.0313,427.3525,366.0313" style="stroke:#181818;stroke-width:1;"/><line style="stroke:#181818;stroke-width:1;stroke-dasharray:2,2;" x1="425.3525" x2="669.1841" y1="366.0313" y2="366.0313"/><text fill="#000000" font-family="sans-serif" font-size="13" font-weight="bold" lengthAdjust="spacing" textLength="7.23" x="521.2292" y="361.1748">8</text><text fill="#000000" font-family="sans-serif" font-size="13" lengthAdjust="spacing" textLength="36.8481" x="532.4592" y="361.1748">Result</text></g><g class="message" data-participant-1="API" data-participant-2="FE"><polygon fill="#181818" points="285.4082,392.3828,275.4082,396.3828,285.4082,400.3828,281.4082,396.3828" style="stroke:#181818;stroke-width:1;"/><line style="stroke:#181818;stroke-width:1;stroke-dasharray:2,2;" x1="279.4082" x2="419.3525" y1="396.3828" y2="396.3828"/><text fill="#000000" font-family="sans-serif" font-size="13" font-weight="bold" lengthAdjust="spacing" textLength="7.23" x="312.4963" y="391.5264">9</text><text fill="#000000" font-family="sans-serif" font-size="13" lengthAdjust="spacing" textLength="58.5381" x="323.7263" y="391.5264">Response</text></g><g class="message" data-participant-1="FE" data-participant-2="Actor"><polygon fill="#181818" points="84.6758,422.7344,74.6758,426.7344,84.6758,430.7344,80.6758,426.7344" style="stroke:#181818;stroke-width:1;"/><line style="stroke:#181818;stroke-width:1;stroke-dasharray:2,2;" x1="78.6758" x2="273.4082" y1="426.7344" y2="426.7344"/><text fill="#000000" font-family="sans-serif" font-size="13" font-weight="bold" lengthAdjust="spacing" textLength="14.46" x="85.6758" y="421.8779">10</text><text fill="#000000" font-family="sans-serif" font-size="13" lengthAdjust="spacing" textLength="158.2725" x="104.1357" y="421.8779">Payment ho&#224;n t&#7845;t ho&#7863;c h&#7911;y</text></g><path d="M202,441.7344 L262.1709,441.7344 L262.1709,450.0859 L252.1709,460.0859 L202,460.0859 L202,441.7344" fill="#EEEEEE" style="stroke:#000000;stroke-width:1.5;"/><rect fill="none" height="143.7578" style="stroke:#000000;stroke-width:1.5;" width="539.7168" x="202" y="441.7344"/><text fill="#000000" font-family="sans-serif" font-size="13" font-weight="bold" lengthAdjust="spacing" textLength="15.1709" x="217" y="456.2295">alt</text><text fill="#000000" font-family="sans-serif" font-size="11" font-weight="bold" lengthAdjust="spacing" textLength="149.7461" x="277.1709" y="455.1533">[Alternative / exception flow]</text><path d="M212,465.0859 L212,491.0859 L731,491.0859 L731,475.0859 L721,465.0859 L212,465.0859" fill="#FEFFDD" style="stroke:#181818;stroke-width:0.5;"/><path d="M721,465.0859 L721,475.0859 L731,475.0859 L721,465.0859" fill="#FEFFDD" style="stroke:#181818;stroke-width:0.5;"/><text fill="#000000" font-family="sans-serif" font-size="13" lengthAdjust="spacing" textLength="189.6489" x="372.5339" y="483.5811">User h&#7911;y -&gt; redirect v&#7873; cancelUrl</text><path d="M212,501.4375 L212,543.4375 L731,543.4375 L731,511.4375 L721,501.4375 L212,501.4375" fill="#FEFFDD" style="stroke:#181818;stroke-width:0.5;"/><path d="M721,501.4375 L721,511.4375 L731,511.4375 L721,501.4375" fill="#FEFFDD" style="stroke:#181818;stroke-width:0.5;"/><text fill="#000000" font-family="sans-serif" font-size="13" lengthAdjust="spacing" textLength="450.4995" x="242.1086" y="519.9326">Webhook timeout -&gt; user query GET /payments/check/:paymentLinkId or GET</text><text fill="#000000" font-family="sans-serif" font-size="13" lengthAdjust="spacing" textLength="200.8716" x="242.1086" y="536.2842">/payments/check-order/:orderCode</text><path d="M212,554.1406 L212,580.1406 L731,580.1406 L731,564.1406 L721,554.1406 L212,554.1406" fill="#FEFFDD" style="stroke:#181818;stroke-width:0.5;"/><path d="M721,554.1406 L721,564.1406 L731,564.1406 L721,554.1406" fill="#FEFFDD" style="stroke:#181818;stroke-width:0.5;"/><text fill="#000000" font-family="sans-serif" font-size="13" lengthAdjust="spacing" textLength="175.8428" x="379.437" y="572.6357">Signature kh&#244;ng h&#7907;p l&#7879; -&gt; 401</text><path d="M5,597.4922 L5,803.4922 L993,803.4922 L993,607.4922 L983,597.4922 L5,597.4922" fill="#FEFFDD" style="stroke:#181818;stroke-width:0.5;"/><path d="M983,597.4922 L983,607.4922 L993,607.4922 L983,597.4922" fill="#FEFFDD" style="stroke:#181818;stroke-width:0.5;"/><text fill="#000000" font-family="sans-serif" font-size="13" lengthAdjust="spacing" textLength="214.627" x="243.6277" y="615.9873">Pre: Bill &#273;&#227; t&#7841;o, payment link pending</text><text fill="#000000" font-family="sans-serif" font-size="13" lengthAdjust="spacing" textLength="191.5088" x="243.6277" y="632.3389">Post: Payment ho&#224;n t&#7845;t ho&#7863;c h&#7911;y</text><text fill="#000000" font-family="sans-serif" font-size="13" lengthAdjust="spacing" textLength="58.519" x="243.6277" y="648.6904">Main flow:</text><text fill="#000000" font-family="sans-serif" font-size="13" lengthAdjust="spacing" textLength="502.7217" x="243.6277" y="665.042">1. System t&#7841;o PayOS payment link v&#7899;i orderCode, amount, items, returnUrl,\ncancelUrl</text><text fill="#000000" font-family="sans-serif" font-size="13" lengthAdjust="spacing" textLength="229.7788" x="243.6277" y="681.3936">2. PayOS tr&#7843; v&#7873; { checkoutUrl, qrCode }</text><text fill="#000000" font-family="sans-serif" font-size="13" lengthAdjust="spacing" textLength="231.207" x="243.6277" y="697.7451">3. System redirect user &#273;&#7871;n checkoutUrl</text><text fill="#000000" font-family="sans-serif" font-size="13" lengthAdjust="spacing" textLength="361.2896" x="243.6277" y="714.0967">4. User thanh to&#225;n tr&#234;n trang PayOS (QR code / bank transfer)</text><text fill="#000000" font-family="sans-serif" font-size="13" lengthAdjust="spacing" textLength="291.9604" x="243.6277" y="730.4482">5. PayOS g&#7917;i webhook POST /payments/webhook</text><text fill="#000000" font-family="sans-serif" font-size="13" lengthAdjust="spacing" textLength="191.4453" x="243.6277" y="746.7998">6. System verify HMAC signature</text><text fill="#000000" font-family="sans-serif" font-size="13" lengthAdjust="spacing" textLength="214.2397" x="243.6277" y="763.1514">7. System c&#7853;p nh&#7853;t bill status = PAID</text><text fill="#000000" font-family="sans-serif" font-size="13" lengthAdjust="spacing" textLength="228.3188" x="243.6277" y="779.5029">8. System gi&#7843;m stock trong shoesDetail</text><text fill="#000000" font-family="sans-serif" font-size="13" lengthAdjust="spacing" textLength="171.2788" x="243.6277" y="795.8545">9. System g&#7917;i email x&#225;c nh&#7853;n</text><!--SRC=[ZLHBRnCn4BxxLuno0YbfA6zM0YbDIgb4rT1GSK52ZdUQjUBOmVOsZH07JfmvSw6g418IDoIazC0X_97z9uozssq2AkAoZtdvcs- -CS-zqVbaY9QviTHJRla4NCPJCvDw14TSELpruEiSjS0zT8wFiAFaI8D0xIdVIwyG3hkjpHlGWZwVxm_2Sq9Uw5iZA8LACiQ5DnOQEpawtm3ke1CCR6XodN8xXqOtGp4skOTsdN-u6oCVRpDXjBT6GQDoTSj_XRQirT_zAsI0zbWAZFxgcwNSyo5t28qzeqUcjvN0K2hbcjIyGTT3pwLgWZ3vr6WNKtjRZ4ZmKiWf9qYDiiCTxd76vp4YMbvL5iPYNz1wHB0J67ZABTbXZxU3bQ0cqDyVF8Vsj0Jg6Dc2gqAPmFO9YjpZrMnMaI4fz720F6tFhAIKVxJ3UblGMZscPoPSQWYah5PSwoU1haNwR1-ZbKVp2fAtN3kQg3IQhOMl7r06MtIvyfSdN91mKDfZynLTP0f8CN8LuWANISr0PfQVDFXYyJby5uiV0hBY_0kHpfM7ZY8zQkxbCPA6y4JWD0248sLc340ReiTG6tHIiuPuwCWGYuJMBQRIel1mN9o_0y59y-hGgYkpN-0mCsOCNaumI9TAvA4WhGj9UcTxPSXj4VJTJgh_frAFTrCWfL3KI_r7MClO56qxYQ-kIV5A10DQHUvpYp3EbjzfTwcNioceulnzG7FxnYP3dJ9scHqvRPAi-vRojqWlyEl3yYpGUcgQK041HG1XIhb1RttZ_7-COI_8AT2TiCqD6CoTnqbPjvB2Md7Y-AE4kiKcy0bT1hu9fEC9QTWYzQM9_kPBVJcAcnkr1el5MJceDo2gooD4m-jO3zwoMpM8Uh1nFBy-58kVUZM9tTuefU0phZFmPdbA7ThbLnsrFghElFRiWBOf3VeQSceXxi4HsklipWMiKN7-JSAi4iRwehShCxjR0wlMwibUfmlkOfRiNkqNnUBR57H6Bn-N6vod60SFeT_PxR7xTUH84XzqLtiZ0Z2wtrPl0VRWCZ0YHDfz1IVBKr5Mrq4dKMI_0G00]--></g></svg>