<svg xmlns="http://www.w3.org/2000/svg" xmlns:xlink="http://www.w3.org/1999/xlink" contentStyleType="text/css" data-diagram-type="SEQUENCE" height="669px" preserveAspectRatio="none" style="width:1227px;height:669px;background:#FFFFFF;" version="1.1" viewBox="0 0 1227 669" width="1227px" zoomAndPan="magnify"><title>UC-18 - User (Logged-in) Checkout</title><defs/><g><text fill="#000000" font-family="sans-serif" font-size="14" font-weight="bold" lengthAdjust="spacing" textLength="232.5654" x="499.0693" y="29.5332">UC-18 - User (Logged-in) Checkout</text><rect fill="none" height="54.7031" style="stroke:#000000;stroke-width:1.5;" width="749.0767" x="173" y="381.0313"/><g><title>User</title><rect fill="#000000" fill-opacity="0.00000" height="465.9766" width="8" x="67.7793" y="121.2188"/><line style="stroke:#181818;stroke-width:0.5;stroke-dasharray:5,5;" x1="71" x2="71" y1="121.2188" y2="587.1953"/></g><g><title>Checkout . Payment UI</title><rect fill="#000000" fill-opacity="0.00000" height="465.9766" width="8" x="241.7754" y="121.2188"/><line style="stroke:#181818;stroke-width:0.5;stroke-dasharray:5,5;" x1="244.7998" x2="244.7998" y1="121.2188" y2="587.1953"/></g><g><title>PaymentController</title><rect fill="#000000" fill-opacity="0.00000" height="465.9766" width="8" x="605.0205" y="121.2188"/><line style="stroke:#181818;stroke-width:0.5;stroke-dasharray:5,5;" x1="608.0518" x2="608.0518" y1="121.2188" y2="587.1953"/></g><g><title>PaymentService</title><rect fill="#000000" fill-opacity="0.00000" height="465.9766" width="8" x="846.9111" y="121.2188"/><line style="stroke:#181818;stroke-width:0.5;stroke-dasharray:5,5;" x1="849.9458" x2="849.9458" y1="121.2188" y2="587.1953"/></g><g><title>MongoDB. bills. shoesDetail. coupons</title><rect fill="#000000" fill-opacity="0.00000" height="465.9766" width="8" x="1101.8081" y="121.2188"/><line style="stroke:#181818;stroke-width:0.5;stroke-dasharray:5,5;" x1="1104.9121" x2="1104.9121" y1="121.2188" y2="587.1953"/></g><g class="participant participant-head" data-participant="Actor"><text fill="#000000" font-family="sans-serif" font-size="14" lengthAdjust="spacing" textLength="29.5586" x="54" y="118.1426">User</text><ellipse cx="71.7793" cy="52.1094" fill="#E2E2F0" rx="8" ry="8" style="stroke:#181818;stroke-width:0.5;"/><path d="M71.7793,60.1094 L71.7793,87.1094 M58.7793,68.1094 L84.7793,68.1094 M71.7793,87.1094 L58.7793,102.1094 M71.7793,87.1094 L84.7793,102.1094" fill="none" style="stroke:#181818;stroke-width:0.5;"/></g><g class="participant participant-tail" data-participant="Actor"><text fill="#000000" font-family="sans-serif" font-size="14" lengthAdjust="spacing" textLength="29.5586" x="54" y="600.7285">User</text><ellipse cx="71.7793" cy="612.3047" fill="#E2E2F0" rx="8" ry="8" style="stroke:#181818;stroke-width:0.5;"/><path d="M71.7793,620.3047 L71.7793,647.3047 M58.7793,628.3047 L84.7793,628.3047 M71.7793,647.3047 L58.7793,662.3047 M71.7793,647.3047 L84.7793,662.3047" fill="none" style="stroke:#181818;stroke-width:0.5;"/></g><g class="participant participant-head" data-participant="FE"><text fill="#000000" font-family="sans-serif" font-size="14" lengthAdjust="spacing" textLength="143.9512" x="170.7998" y="118.1426">Checkout / Payment UI</text><path d="M225.2754,75.6094 L225.2754,99.6094 M225.2754,87.6094 L242.2754,87.6094" fill="none" style="stroke:#181818;stroke-width:0.5;"/><ellipse cx="254.2754" cy="87.6094" fill="#E2E2F0" rx="12" ry="12" style="stroke:#181818;stroke-width:0.5;"/></g><g class="participant participant-tail" data-participant="FE"><text fill="#000000" font-family="sans-serif" font-size="14" lengthAdjust="spacing" textLength="143.9512" x="170.7998" y="600.7285">Checkout / Payment UI</text><path d="M225.2754,607.8047 L225.2754,631.8047 M225.2754,619.8047 L242.2754,619.8047" fill="none" style="stroke:#181818;stroke-width:0.5;"/><ellipse cx="254.2754" cy="619.8047" fill="#E2E2F0" rx="12" ry="12" style="stroke:#181818;stroke-width:0.5;"/></g><g class="participant participant-head" data-participant="API"><text fill="#000000" font-family="sans-serif" font-size="14" lengthAdjust="spacing" textLength="115.9375" x="548.0518" y="118.1426">PaymentController</text><ellipse cx="609.0205" cy="87.6094" fill="#E2E2F0" rx="12" ry="12" style="stroke:#181818;stroke-width:0.5;"/><polygon fill="#181818" points="605.0205,75.6094,611.0205,70.6094,609.0205,75.6094,611.0205,80.6094,605.0205,75.6094" style="stroke:#181818;stroke-width:1;"/></g><g class="participant participant-tail" data-participant="API"><text fill="#000000" font-family="sans-serif" font-size="14" lengthAdjust="spacing" textLength="115.9375" x="548.0518" y="600.7285">PaymentController</text><ellipse cx="609.0205" cy="619.8047" fill="#E2E2F0" rx="12" ry="12" style="stroke:#181818;stroke-width:0.5;"/><polygon fill="#181818" points="605.0205,607.8047,611.0205,602.8047,609.0205,607.8047,611.0205,612.8047,605.0205,607.8047" style="stroke:#181818;stroke-width:1;"/></g><g class="participant participant-head" data-participant="Service"><text fill="#000000" font-family="sans-serif" font-size="14" lengthAdjust="spacing" textLength="101.9307" x="796.9458" y="118.1426">PaymentService</text><ellipse cx="850.9111" cy="87.6094" fill="#E2E2F0" rx="12" ry="12" style="stroke:#181818;stroke-width:0.5;"/><polygon fill="#181818" points="846.9111,75.6094,852.9111,70.6094,850.9111,75.6094,852.9111,80.6094,846.9111,75.6094" style="stroke:#181818;stroke-width:1;"/></g><g class="participant participant-tail" data-participant="Service"><text fill="#000000" font-family="sans-serif" font-size="14" lengthAdjust="spacing" textLength="101.9307" x="796.9458" y="600.7285">PaymentService</text><ellipse cx="850.9111" cy="619.8047" fill="#E2E2F0" rx="12" ry="12" style="stroke:#181818;stroke-width:0.5;"/><polygon fill="#181818" points="846.9111,607.8047,852.9111,602.8047,850.9111,607.8047,852.9111,612.8047,846.9111,607.8047" style="stroke:#181818;stroke-width:1;"/></g><g class="participant participant-head" data-participant="DB"><text fill="#000000" font-family="sans-serif" font-size="14" lengthAdjust="spacing" textLength="235.792" x="984.9121" y="118.1426">MongoDB: bills, shoesDetail, coupons</text><path d="M1087.8081,67.6094 C1087.8081,57.6094 1105.8081,57.6094 1105.8081,57.6094 C1105.8081,57.6094 1123.8081,57.6094 1123.8081,67.6094 L1123.8081,93.6094 C1123.8081,103.6094 1105.8081,103.6094 1105.8081,103.6094 C1105.8081,103.6094 1087.8081,103.6094 1087.8081,93.6094 L1087.8081,67.6094" fill="#E2E2F0" style="stroke:#181818;stroke-width:0.5;"/><path d="M1087.8081,67.6094 C1087.8081,77.6094 1105.8081,77.6094 1105.8081,77.6094 C1105.8081,77.6094 1123.8081,77.6094 1123.8081,67.6094" fill="none" style="stroke:#181818;stroke-width:0.5;"/></g><g class="participant participant-tail" data-participant="DB"><text fill="#000000" font-family="sans-serif" font-size="14" lengthAdjust="spacing" textLength="235.792" x="984.9121" y="600.7285">MongoDB: bills, shoesDetail, coupons</text><path d="M1087.8081,613.8047 C1087.8081,603.8047 1105.8081,603.8047 1105.8081,603.8047 C1105.8081,603.8047 1123.8081,603.8047 1123.8081,613.8047 L1123.8081,639.8047 C1123.8081,649.8047 1105.8081,649.8047 1105.8081,649.8047 C1105.8081,649.8047 1087.8081,649.8047 1087.8081,639.8047 L1087.8081,613.8047" fill="#E2E2F0" style="stroke:#181818;stroke-width:0.5;"/><path d="M1087.8081,613.8047 C1087.8081,623.8047 1105.8081,623.8047 1105.8081,623.8047 C1105.8081,623.8047 1123.8081,623.8047 1123.8081,613.8047" fill="none" style="stroke:#181818;stroke-width:0.5;"/></g><g class="message" data-participant-1="Actor" data-participant-2="FE"><polygon fill="#181818" points="233.7754,149.5703,243.7754,153.5703,233.7754,157.5703,237.7754,153.5703" style="stroke:#181818;stroke-width:1;"/><line style="stroke:#181818;stroke-width:1;" x1="71.7793" x2="239.7754" y1="153.5703" y2="153.5703"/><text fill="#000000" font-family="sans-serif" font-size="13" font-weight="bold" lengthAdjust="spacing" textLength="7.23" x="118.8469" y="148.7139">1</text><text fill="#000000" font-family="sans-serif" font-size="13" lengthAdjust="spacing" textLength="68.6309" x="130.0769" y="148.7139">Start UC-18</text></g><g class="message" data-participant-1="FE" data-participant-2="API"><polygon fill="#181818" points="597.0205,179.9219,607.0205,183.9219,597.0205,187.9219,601.0205,183.9219" style="stroke:#181818;stroke-width:1;"/><line style="stroke:#181818;stroke-width:1;" x1="245.7754" x2="603.0205" y1="183.9219" y2="183.9219"/><text fill="#000000" font-family="sans-serif" font-size="13" font-weight="bold" lengthAdjust="spacing" textLength="7.23" x="257.7754" y="179.0654">2</text><text fill="#000000" font-family="sans-serif" font-size="13" lengthAdjust="spacing" textLength="328.0151" x="269.0054" y="179.0654">POST /payments or POST /payments/stripe/create-intent</text></g><g class="message" data-participant-1="API" data-participant-2="Service"><polygon fill="#181818" points="838.9111,210.2734,848.9111,214.2734,838.9111,218.2734,842.9111,214.2734" style="stroke:#181818;stroke-width:1;"/><line style="stroke:#181818;stroke-width:1;" x1="609.0205" x2="844.9111" y1="214.2734" y2="214.2734"/><text fill="#000000" font-family="sans-serif" font-size="13" font-weight="bold" lengthAdjust="spacing" textLength="7.23" x="621.0205" y="209.417">3</text><text fill="#000000" font-family="sans-serif" font-size="13" lengthAdjust="spacing" textLength="206.6606" x="632.2505" y="209.417">Execute User (Logged-in) Checkout</text></g><g class="message" data-participant-1="Service" data-participant-2="DB"><polygon fill="#181818" points="1093.8081,240.625,1103.8081,244.625,1093.8081,248.625,1097.8081,244.625" style="stroke:#181818;stroke-width:1;"/><line style="stroke:#181818;stroke-width:1;" x1="850.9111" x2="1099.8081" y1="244.625" y2="244.625"/><text fill="#000000" font-family="sans-serif" font-size="13" font-weight="bold" lengthAdjust="spacing" textLength="7.23" x="862.9111" y="239.7686">4</text><text fill="#000000" font-family="sans-serif" font-size="13" lengthAdjust="spacing" textLength="219.667" x="874.1411" y="239.7686">Read/write bills, shoesDetail, coupons</text></g><g class="message" data-participant-1="DB" data-participant-2="Service"><polygon fill="#181818" points="861.9111,270.9766,851.9111,274.9766,861.9111,278.9766,857.9111,274.9766" style="stroke:#181818;stroke-width:1;"/><line style="stroke:#181818;stroke-width:1;stroke-dasharray:2,2;" x1="855.9111" x2="1104.8081" y1="274.9766" y2="274.9766"/><text fill="#000000" font-family="sans-serif" font-size="13" font-weight="bold" lengthAdjust="spacing" textLength="7.23" x="935.8901" y="270.1201">5</text><text fill="#000000" font-family="sans-serif" font-size="13" lengthAdjust="spacing" textLength="73.709" x="947.1201" y="270.1201">Domain data</text></g><g class="message" data-participant-1="Service" data-participant-2="API"><polygon fill="#181818" points="620.0205,301.3281,610.0205,305.3281,620.0205,309.3281,616.0205,305.3281" style="stroke:#181818;stroke-width:1;"/><line style="stroke:#181818;stroke-width:1;stroke-dasharray:2,2;" x1="614.0205" x2="849.9111" y1="305.3281" y2="305.3281"/><text fill="#000000" font-family="sans-serif" font-size="13" font-weight="bold" lengthAdjust="spacing" textLength="7.23" x="705.9268" y="300.4717">6</text><text fill="#000000" font-family="sans-serif" font-size="13" lengthAdjust="spacing" textLength="36.8481" x="717.1567" y="300.4717">Result</text></g><g class="message" data-participant-1="API" data-participant-2="FE"><polygon fill="#181818" points="256.7754,331.6797,246.7754,335.6797,256.7754,339.6797,252.7754,335.6797" style="stroke:#181818;stroke-width:1;"/><line style="stroke:#181818;stroke-width:1;stroke-dasharray:2,2;" x1="250.7754" x2="608.0205" y1="335.6797" y2="335.6797"/><text fill="#000000" font-family="sans-serif" font-size="13" font-weight="bold" lengthAdjust="spacing" textLength="7.23" x="392.5139" y="330.8232">7</text><text fill="#000000" font-family="sans-serif" font-size="13" lengthAdjust="spacing" textLength="58.5381" x="403.7439" y="330.8232">Response</text></g><g class="message" data-participant-1="FE" data-participant-2="Actor"><polygon fill="#181818" points="82.7793,362.0313,72.7793,366.0313,82.7793,370.0313,78.7793,366.0313" style="stroke:#181818;stroke-width:1;"/><line style="stroke:#181818;stroke-width:1;stroke-dasharray:2,2;" x1="76.7793" x2="244.7754" y1="366.0313" y2="366.0313"/><text fill="#000000" font-family="sans-serif" font-size="13" font-weight="bold" lengthAdjust="spacing" textLength="7.23" x="83.7793" y="361.1748">8</text><text fill="#000000" font-family="sans-serif" font-size="13" lengthAdjust="spacing" textLength="138.7661" x="95.0093" y="361.1748">Redirect &#273;&#7871;n thanh to&#225;n</text></g><path d="M173,381.0313 L233.1709,381.0313 L233.1709,389.3828 L223.1709,399.3828 L173,399.3828 L173,381.0313" fill="#EEEEEE" style="stroke:#000000;stroke-width:1.5;"/><rect fill="none" height="54.7031" style="stroke:#000000;stroke-width:1.5;" width="749.0767" x="173" y="381.0313"/><text fill="#000000" font-family="sans-serif" font-size="13" font-weight="bold" lengthAdjust="spacing" textLength="15.1709" x="188" y="395.5264">alt</text><text fill="#000000" font-family="sans-serif" font-size="11" font-weight="bold" lengthAdjust="spacing" textLength="149.7461" x="248.1709" y="394.4502">[Alternative / exception flow]</text><path d="M183,404.3828 L183,430.3828 L912,430.3828 L912,414.3828 L902,404.3828 L183,404.3828" fill="#FEFFDD" style="stroke:#181818;stroke-width:0.5;"/><path d="M902,404.3828 L902,414.3828 L912,414.3828 L902,404.3828" fill="#FEFFDD" style="stroke:#181818;stroke-width:0.5;"/><text fill="#000000" font-family="sans-serif" font-size="13" lengthAdjust="spacing" textLength="217.1787" x="434.449" y="422.8779">Ch&#7885;n address m&#7863;c &#273;&#7883;nh -&gt; t&#7921; &#273;&#7897;ng fill</text><path d="M5,447.7344 L5,571.7344 L1172,571.7344 L1172,457.7344 L1162,447.7344 L5,447.7344" fill="#FEFFDD" style="stroke:#181818;stroke-width:0.5;"/><path d="M1162,447.7344 L1162,457.7344 L1172,457.7344 L1162,447.7344" fill="#FEFFDD" style="stroke:#181818;stroke-width:0.5;"/><text fill="#000000" font-family="sans-serif" font-size="13" lengthAdjust="spacing" textLength="190.0425" x="418.51" y="466.2295">Pre: &#272;&#227; &#273;&#259;ng nh&#7853;p, cart c&#243; items</text><text fill="#000000" font-family="sans-serif" font-size="13" lengthAdjust="spacing" textLength="172.0024" x="418.51" y="482.5811">Post: Redirect &#273;&#7871;n thanh to&#225;n</text><text fill="#000000" font-family="sans-serif" font-size="13" lengthAdjust="spacing" textLength="58.519" x="418.51" y="498.9326">Main flow:</text><text fill="#000000" font-family="sans-serif" font-size="13" lengthAdjust="spacing" textLength="122.1162" x="418.51" y="515.2842">1. User v&#224;o checkout</text><text fill="#000000" font-family="sans-serif" font-size="13" lengthAdjust="spacing" textLength="331.6841" x="418.51" y="531.6357">2. System pre-fill th&#244;ng tin t&#7915; profile (name, email, phone)</text><text fill="#000000" font-family="sans-serif" font-size="13" lengthAdjust="spacing" textLength="331.5698" x="418.51" y="547.9873">3. User ch&#7885;n t&#7915; saved addresses ho&#7863;c nh&#7853;p address m&#7899;i</text><text fill="#000000" font-family="sans-serif" font-size="13" lengthAdjust="spacing" textLength="286.7554" x="418.51" y="564.3389">4. C&#225;c b&#432;&#7899;c c&#242;n l&#7841;i gi&#7889;ng UC-09 Guest Checkout</text><!--SRC=[VL9DRnCn4BtxLunoQgMaeS01Sa1AanHLeY9gw0zmlDDTgrvxiMVJzimH8T4ZuaB44I7n9I4b1mw9-1_xJnXlDhG8gJTxFjwyzsPaISwM-HIz2EVQ5jBB748c4tUXRGfdqWIydS6N9Lg5nnY2JB5lT6f1eINk9qq6uNJGsNy47JWDw67dcKjJJ3hQxi8WGtNkIX92Ad8UMh6Y1J90F_x5r9KsaVuAMjjAwC9ONkMC3gT7TUNXI2XdoJi3hIOrsFpD5cjyz5_91FrCAwpppLiaakHK1eJMiREf6nxqOAgD2MqMxp0CaQGsRL2kB9mDTUlmG8YQAdIUC9CUJ4XwsWWMXwCOvUaz63-Vl81kiPaTWEl_ZNG3ULrWLtcKXEmDSLHmQqHe-FLWT8cg9Bp3nwOqTaNw9oYJxeNNt7E74Z4yWCxjEKENIsqX-d63k9LoWg4q3RT6D8SY3jQAOrrq98OJxL4HhA-hnIyBb4cR0RdLtFB23K7Vy8rOINg6l5UyL5YGTXREZBiG0DOnRpTZhOUZzbzoWwnQlh4WayJpmK5UBNwgE67vci5vE5NBh_N_NRnLLYtG9aBSWDNishoviMUuzTlLHovVl-9gcrMBpmNx4dUeLj-1ZSk36Bj0TwivZdP5rZsnlxTPpsprmO7QxkN-7aok0gD1uR4JMN7_wWVF9EvaofyuuJYEi6DbZct0l5vHaJcBk-91Wwesukk686UOR7t009chhTY8kENFyhqM3_TWi9ehcFx-md_5uhvPCDLYhY7LrVAQYV3DtdiCJqiCT7DFR5szXZy0]--></g></svg>