<svg xmlns="http://www.w3.org/2000/svg" xmlns:xlink="http://www.w3.org/1999/xlink" contentStyleType="text/css" data-diagram-type="SEQUENCE" height="754px" preserveAspectRatio="none" style="width:1142px;height:754px;background:#FFFFFF;" version="1.1" viewBox="0 0 1142 754" width="1142px" zoomAndPan="magnify"><title>UC-20 - Write Product Review</title><defs/><g><text fill="#000000" font-family="sans-serif" font-size="14" font-weight="bold" lengthAdjust="spacing" textLength="196.8135" x="474.1758" y="29.5332">UC-20 - Write Product Review</text><rect fill="none" height="91.0547" style="stroke:#000000;stroke-width:1.5;" width="547.3203" x="309" y="381.0313"/><g><title>User</title><rect fill="#000000" fill-opacity="0.00000" height="551.3828" width="8" x="65.7793" y="121.2188"/><line style="stroke:#181818;stroke-width:0.5;stroke-dasharray:5,5;" x1="69" x2="69" y1="121.2188" y2="672.6016"/></g><g><title>My Orders . Product Review UI</title><rect fill="#000000" fill-opacity="0.00000" height="551.3828" width="8" x="389.1357" y="121.2188"/><line style="stroke:#181818;stroke-width:0.5;stroke-dasharray:5,5;" x1="392.667" x2="392.667" y1="121.2188" y2="672.6016"/></g><g><title>ReviewsController</title><rect fill="#000000" fill-opacity="0.00000" height="551.3828" width="8" x="558.4009" y="121.2188"/><line style="stroke:#181818;stroke-width:0.5;stroke-dasharray:5,5;" x1="561.6045" x2="561.6045" y1="121.2188" y2="672.6016"/></g><g><title>ReviewsService</title><rect fill="#000000" fill-opacity="0.00000" height="551.3828" width="8" x="769.1943" y="121.2188"/><line style="stroke:#181818;stroke-width:0.5;stroke-dasharray:5,5;" x1="772.4014" x2="772.4014" y1="121.2188" y2="672.6016"/></g><g><title>MongoDB. reviews. bills. shoesDetail</title><rect fill="#000000" fill-opacity="0.00000" height="551.3828" width="8" x="1019.0068" y="121.2188"/><line style="stroke:#181818;stroke-width:0.5;stroke-dasharray:5,5;" x1="1022.8486" x2="1022.8486" y1="121.2188" y2="672.6016"/></g><g class="participant participant-head" data-participant="Actor"><text fill="#000000" font-family="sans-serif" font-size="14" lengthAdjust="spacing" textLength="29.5586" x="52" y="118.1426">User</text><ellipse cx="69.7793" cy="52.1094" fill="#E2E2F0" rx="8" ry="8" style="stroke:#181818;stroke-width:0.5;"/><path d="M69.7793,60.1094 L69.7793,87.1094 M56.7793,68.1094 L82.7793,68.1094 M69.7793,87.1094 L56.7793,102.1094 M69.7793,87.1094 L82.7793,102.1094" fill="none" style="stroke:#181818;stroke-width:0.5;"/></g><g class="participant participant-tail" data-participant="Actor"><text fill="#000000" font-family="sans-serif" font-size="14" lengthAdjust="spacing" textLength="29.5586" x="52" y="686.1348">User</text><ellipse cx="69.7793" cy="697.7109" fill="#E2E2F0" rx="8" ry="8" style="stroke:#181818;stroke-width:0.5;"/><path d="M69.7793,705.7109 L69.7793,732.7109 M56.7793,713.7109 L82.7793,713.7109 M69.7793,732.7109 L56.7793,747.7109 M69.7793,732.7109 L82.7793,747.7109" fill="none" style="stroke:#181818;stroke-width:0.5;"/></g><g class="participant participant-head" data-participant="FE"><text fill="#000000" font-family="sans-serif" font-size="14" lengthAdjust="spacing" textLength="192.9375" x="293.667" y="118.1426">My Orders / Product Review UI</text><path d="M372.6357,75.6094 L372.6357,99.6094 M372.6357,87.6094 L389.6357,87.6094" fill="none" style="stroke:#181818;stroke-width:0.5;"/><ellipse cx="401.6357" cy="87.6094" fill="#E2E2F0" rx="12" ry="12" style="stroke:#181818;stroke-width:0.5;"/></g><g class="participant participant-tail" data-participant="FE"><text fill="#000000" font-family="sans-serif" font-size="14" lengthAdjust="spacing" textLength="192.9375" x="293.667" y="686.1348">My Orders / Product Review UI</text><path d="M372.6357,693.2109 L372.6357,717.2109 M372.6357,705.2109 L389.6357,705.2109" fill="none" style="stroke:#181818;stroke-width:0.5;"/><ellipse cx="401.6357" cy="705.2109" fill="#E2E2F0" rx="12" ry="12" style="stroke:#181818;stroke-width:0.5;"/></g><g class="participant participant-head" data-participant="API"><text fill="#000000" font-family="sans-serif" font-size="14" lengthAdjust="spacing" textLength="113.5928" x="502.6045" y="118.1426">ReviewsController</text><ellipse cx="562.4009" cy="87.6094" fill="#E2E2F0" rx="12" ry="12" style="stroke:#181818;stroke-width:0.5;"/><polygon fill="#181818" points="558.4009,75.6094,564.4009,70.6094,562.4009,75.6094,564.4009,80.6094,558.4009,75.6094" style="stroke:#181818;stroke-width:1;"/></g><g class="participant participant-tail" data-participant="API"><text fill="#000000" font-family="sans-serif" font-size="14" lengthAdjust="spacing" textLength="113.5928" x="502.6045" y="686.1348">ReviewsController</text><ellipse cx="562.4009" cy="705.2109" fill="#E2E2F0" rx="12" ry="12" style="stroke:#181818;stroke-width:0.5;"/><polygon fill="#181818" points="558.4009,693.2109,564.4009,688.2109,562.4009,693.2109,564.4009,698.2109,558.4009,693.2109" style="stroke:#181818;stroke-width:1;"/></g><g class="participant participant-head" data-participant="Service"><text fill="#000000" font-family="sans-serif" font-size="14" lengthAdjust="spacing" textLength="99.5859" x="720.4014" y="118.1426">ReviewsService</text><ellipse cx="773.1943" cy="87.6094" fill="#E2E2F0" rx="12" ry="12" style="stroke:#181818;stroke-width:0.5;"/><polygon fill="#181818" points="769.1943,75.6094,775.1943,70.6094,773.1943,75.6094,775.1943,80.6094,769.1943,75.6094" style="stroke:#181818;stroke-width:1;"/></g><g class="participant participant-tail" data-participant="Service"><text fill="#000000" font-family="sans-serif" font-size="14" lengthAdjust="spacing" textLength="99.5859" x="720.4014" y="686.1348">ReviewsService</text><ellipse cx="773.1943" cy="705.2109" fill="#E2E2F0" rx="12" ry="12" style="stroke:#181818;stroke-width:0.5;"/><polygon fill="#181818" points="769.1943,693.2109,775.1943,688.2109,773.1943,693.2109,775.1943,698.2109,769.1943,693.2109" style="stroke:#181818;stroke-width:1;"/></g><g class="participant participant-head" data-participant="DB"><text fill="#000000" font-family="sans-serif" font-size="14" lengthAdjust="spacing" textLength="230.3164" x="904.8486" y="118.1426">MongoDB: reviews, bills, shoesDetail</text><path d="M1005.0068,67.6094 C1005.0068,57.6094 1023.0068,57.6094 1023.0068,57.6094 C1023.0068,57.6094 1041.0068,57.6094 1041.0068,67.6094 L1041.0068,93.6094 C1041.0068,103.6094 1023.0068,103.6094 1023.0068,103.6094 C1023.0068,103.6094 1005.0068,103.6094 1005.0068,93.6094 L1005.0068,67.6094" fill="#E2E2F0" style="stroke:#181818;stroke-width:0.5;"/><path d="M1005.0068,67.6094 C1005.0068,77.6094 1023.0068,77.6094 1023.0068,77.6094 C1023.0068,77.6094 1041.0068,77.6094 1041.0068,67.6094" fill="none" style="stroke:#181818;stroke-width:0.5;"/></g><g class="participant participant-tail" data-participant="DB"><text fill="#000000" font-family="sans-serif" font-size="14" lengthAdjust="spacing" textLength="230.3164" x="904.8486" y="686.1348">MongoDB: reviews, bills, shoesDetail</text><path d="M1005.0068,699.2109 C1005.0068,689.2109 1023.0068,689.2109 1023.0068,689.2109 C1023.0068,689.2109 1041.0068,689.2109 1041.0068,699.2109 L1041.0068,725.2109 C1041.0068,735.2109 1023.0068,735.2109 1023.0068,735.2109 C1023.0068,735.2109 1005.0068,735.2109 1005.0068,725.2109 L1005.0068,699.2109" fill="#E2E2F0" style="stroke:#181818;stroke-width:0.5;"/><path d="M1005.0068,699.2109 C1005.0068,709.2109 1023.0068,709.2109 1023.0068,709.2109 C1023.0068,709.2109 1041.0068,709.2109 1041.0068,699.2109" fill="none" style="stroke:#181818;stroke-width:0.5;"/></g><g class="message" data-participant-1="Actor" data-participant-2="FE"><polygon fill="#181818" points="381.1357,149.5703,391.1357,153.5703,381.1357,157.5703,385.1357,153.5703" style="stroke:#181818;stroke-width:1;"/><line style="stroke:#181818;stroke-width:1;" x1="69.7793" x2="387.1357" y1="153.5703" y2="153.5703"/><text fill="#000000" font-family="sans-serif" font-size="13" font-weight="bold" lengthAdjust="spacing" textLength="7.23" x="191.5271" y="148.7139">1</text><text fill="#000000" font-family="sans-serif" font-size="13" lengthAdjust="spacing" textLength="68.6309" x="202.7571" y="148.7139">Start UC-20</text></g><g class="message" data-participant-1="FE" data-participant-2="API"><polygon fill="#181818" points="550.4009,179.9219,560.4009,183.9219,550.4009,187.9219,554.4009,183.9219" style="stroke:#181818;stroke-width:1;"/><line style="stroke:#181818;stroke-width:1;" x1="393.1357" x2="556.4009" y1="183.9219" y2="183.9219"/><text fill="#000000" font-family="sans-serif" font-size="13" font-weight="bold" lengthAdjust="spacing" textLength="7.23" x="428.8115" y="179.0654">2</text><text fill="#000000" font-family="sans-serif" font-size="13" lengthAdjust="spacing" textLength="86.6836" x="440.0415" y="179.0654">POST /reviews</text></g><g class="message" data-participant-1="API" data-participant-2="Service"><polygon fill="#181818" points="761.1943,210.2734,771.1943,214.2734,761.1943,218.2734,765.1943,214.2734" style="stroke:#181818;stroke-width:1;"/><line style="stroke:#181818;stroke-width:1;" x1="562.4009" x2="767.1943" y1="214.2734" y2="214.2734"/><text fill="#000000" font-family="sans-serif" font-size="13" font-weight="bold" lengthAdjust="spacing" textLength="7.23" x="574.4009" y="209.417">3</text><text fill="#000000" font-family="sans-serif" font-size="13" lengthAdjust="spacing" textLength="175.5635" x="585.6309" y="209.417">Execute Write Product Review</text></g><g class="message" data-participant-1="Service" data-participant-2="DB"><polygon fill="#181818" points="1011.0068,240.625,1021.0068,244.625,1011.0068,248.625,1015.0068,244.625" style="stroke:#181818;stroke-width:1;"/><line style="stroke:#181818;stroke-width:1;" x1="773.1943" x2="1017.0068" y1="244.625" y2="244.625"/><text fill="#000000" font-family="sans-serif" font-size="13" font-weight="bold" lengthAdjust="spacing" textLength="7.23" x="785.1943" y="239.7686">4</text><text fill="#000000" font-family="sans-serif" font-size="13" lengthAdjust="spacing" textLength="214.5825" x="796.4243" y="239.7686">Read/write reviews, bills, shoesDetail</text></g><g class="message" data-participant-1="DB" data-participant-2="Service"><polygon fill="#181818" points="784.1943,270.9766,774.1943,274.9766,784.1943,278.9766,780.1943,274.9766" style="stroke:#181818;stroke-width:1;"/><line style="stroke:#181818;stroke-width:1;stroke-dasharray:2,2;" x1="778.1943" x2="1022.0068" y1="274.9766" y2="274.9766"/><text fill="#000000" font-family="sans-serif" font-size="13" font-weight="bold" lengthAdjust="spacing" textLength="7.23" x="855.6311" y="270.1201">5</text><text fill="#000000" font-family="sans-serif" font-size="13" lengthAdjust="spacing" textLength="73.709" x="866.8611" y="270.1201">Domain data</text></g><g class="message" data-participant-1="Service" data-participant-2="API"><polygon fill="#181818" points="573.4009,301.3281,563.4009,305.3281,573.4009,309.3281,569.4009,305.3281" style="stroke:#181818;stroke-width:1;"/><line style="stroke:#181818;stroke-width:1;stroke-dasharray:2,2;" x1="567.4009" x2="772.1943" y1="305.3281" y2="305.3281"/><text fill="#000000" font-family="sans-serif" font-size="13" font-weight="bold" lengthAdjust="spacing" textLength="7.23" x="643.7585" y="300.4717">6</text><text fill="#000000" font-family="sans-serif" font-size="13" lengthAdjust="spacing" textLength="36.8481" x="654.9885" y="300.4717">Result</text></g><g class="message" data-participant-1="API" data-participant-2="FE"><polygon fill="#181818" points="404.1357,331.6797,394.1357,335.6797,404.1357,339.6797,400.1357,335.6797" style="stroke:#181818;stroke-width:1;"/><line style="stroke:#181818;stroke-width:1;stroke-dasharray:2,2;" x1="398.1357" x2="561.4009" y1="335.6797" y2="335.6797"/><text fill="#000000" font-family="sans-serif" font-size="13" font-weight="bold" lengthAdjust="spacing" textLength="7.23" x="442.8843" y="330.8232">7</text><text fill="#000000" font-family="sans-serif" font-size="13" lengthAdjust="spacing" textLength="58.5381" x="454.1143" y="330.8232">Response</text></g><g class="message" data-participant-1="FE" data-participant-2="Actor"><polygon fill="#181818" points="80.7793,362.0313,70.7793,366.0313,80.7793,370.0313,76.7793,366.0313" style="stroke:#181818;stroke-width:1;"/><line style="stroke:#181818;stroke-width:1;stroke-dasharray:2,2;" x1="74.7793" x2="392.1357" y1="366.0313" y2="366.0313"/><text fill="#000000" font-family="sans-serif" font-size="13" font-weight="bold" lengthAdjust="spacing" textLength="7.23" x="81.7793" y="361.1748">8</text><text fill="#000000" font-family="sans-serif" font-size="13" lengthAdjust="spacing" textLength="288.1265" x="93.0093" y="361.1748">Review &#273;&#432;&#7907;c l&#432;u, rating s&#7843;n ph&#7849;m &#273;&#432;&#7907;c c&#7853;p nh&#7853;t</text></g><path d="M309,381.0313 L369.1709,381.0313 L369.1709,389.3828 L359.1709,399.3828 L309,399.3828 L309,381.0313" fill="#EEEEEE" style="stroke:#000000;stroke-width:1.5;"/><rect fill="none" height="91.0547" style="stroke:#000000;stroke-width:1.5;" width="547.3203" x="309" y="381.0313"/><text fill="#000000" font-family="sans-serif" font-size="13" font-weight="bold" lengthAdjust="spacing" textLength="15.1709" x="324" y="395.5264">alt</text><text fill="#000000" font-family="sans-serif" font-size="11" font-weight="bold" lengthAdjust="spacing" textLength="149.7461" x="384.1709" y="394.4502">[Alternative / exception flow]</text><path d="M319,404.3828 L319,430.3828 L846,430.3828 L846,414.3828 L836,404.3828 L319,404.3828" fill="#FEFFDD" style="stroke:#181818;stroke-width:0.5;"/><path d="M836,404.3828 L836,414.3828 L846,414.3828 L836,404.3828" fill="#FEFFDD" style="stroke:#181818;stroke-width:0.5;"/><text fill="#000000" font-family="sans-serif" font-size="13" lengthAdjust="spacing" textLength="149.4302" x="503.4451" y="422.8779">&#7842;nh qu&#225; l&#7899;n (&gt;5MB) -&gt; l&#7895;i</text><path d="M319,440.7344 L319,466.7344 L846,466.7344 L846,450.7344 L836,440.7344 L319,440.7344" fill="#FEFFDD" style="stroke:#181818;stroke-width:0.5;"/><path d="M836,440.7344 L836,450.7344 L846,450.7344 L836,440.7344" fill="#FEFFDD" style="stroke:#181818;stroke-width:0.5;"/><text fill="#000000" font-family="sans-serif" font-size="13" lengthAdjust="spacing" textLength="259.7651" x="448.2776" y="459.2295">User &#273;&#227; review s&#7843;n ph&#7849;m n&#224;y -&gt; 409 Conflict</text><path d="M5,484.0859 L5,657.0859 L1089,657.0859 L1089,494.0859 L1079,484.0859 L5,484.0859" fill="#FEFFDD" style="stroke:#181818;stroke-width:0.5;"/><path d="M1079,484.0859 L1079,494.0859 L1089,494.0859 L1079,484.0859" fill="#FEFFDD" style="stroke:#181818;stroke-width:0.5;"/><text fill="#000000" font-family="sans-serif" font-size="13" lengthAdjust="spacing" textLength="220.4224" x="380.3428" y="502.5811">Pre: &#272;&#227; &#273;&#259;ng nh&#7853;p, &#273;&#227; mua s&#7843;n ph&#7849;m</text><text fill="#000000" font-family="sans-serif" font-size="13" lengthAdjust="spacing" textLength="321.3628" x="380.3428" y="518.9326">Post: Review &#273;&#432;&#7907;c l&#432;u, rating s&#7843;n ph&#7849;m &#273;&#432;&#7907;c c&#7853;p nh&#7853;t</text><text fill="#000000" font-family="sans-serif" font-size="13" lengthAdjust="spacing" textLength="58.519" x="380.3428" y="535.2842">Main flow:</text><text fill="#000000" font-family="sans-serif" font-size="13" lengthAdjust="spacing" textLength="181.3779" x="380.3428" y="551.6357">1. User v&#224;o trang product detail</text><text fill="#000000" font-family="sans-serif" font-size="13" lengthAdjust="spacing" textLength="150.979" x="380.3428" y="567.9873">2. User b&#7845;m Write Review</text><text fill="#000000" font-family="sans-serif" font-size="13" lengthAdjust="spacing" textLength="165.4644" x="380.3428" y="584.3389">3. User ch&#7885;n rating (1-5 sao)</text><text fill="#000000" font-family="sans-serif" font-size="13" lengthAdjust="spacing" textLength="131.5044" x="380.3428" y="600.6904">4. User nh&#7853;p comment</text><text fill="#000000" font-family="sans-serif" font-size="13" lengthAdjust="spacing" textLength="242.8296" x="380.3428" y="617.042">5. User upload &#7843;nh (optional, t&#7889;i &#273;a 5 &#7843;nh)</text><text fill="#000000" font-family="sans-serif" font-size="13" lengthAdjust="spacing" textLength="193.6162" x="380.3428" y="633.3936">6. System g&#7885;i API POST /reviews</text><text fill="#000000" font-family="sans-serif" font-size="13" lengthAdjust="spacing" textLength="324.4795" x="380.3428" y="649.7451">7. System l&#432;u review, c&#7853;p nh&#7853;t avg rating c&#7911;a s&#7843;n ph&#7849;m</text><!--SRC=[fLEvRXin4Etv5GDLDY3vIfGWAWnObWsu42nOCL9JtB54X4kkIQvarQa3n5MAD4wC84XXmBLKIl1_x9zak4lvoj6aaZZ7c_VcpVBS6vsd0xJClPSwuvQdu4OyCHEfXt36bSF76JpFKGliedDyY7jA3ZK8r9xwlVGAuNI_iRC53NXdfKVeMPFamiC9ZYLE6EF26mkrKuUs1jp1NdYpWSbrmkqKQjqf7Di4hOFDPxrmUbHs71umORItHa6johZzwgrMcBsZtqhwQCTIO9cF_rd2FHzmXpJLwA7fj5jWg-ew3AHIzED61bq7FPUgREsq6IifGsENcBIWxxdrbMPsU12YDBq5lUF-MzYCQ8n28HFdjk3W0aLEo_dZYc9LQ0YCJf0dcvEoy1_aMASDZSSZEYRbKaEG-82uOdU2BbU-eXLrK2WpcgmE8a9T4DbQhNvvUNTRpAy5gBlRl0wM-t0RhfXTQyX6nUnd-b0YYjbD1fgYDvxyLXxs55s7ffunagju8J3pqcWuKsR20BGXRMQCbeZKxmKKiszw1EVvuYkeOlv5mzfkizjU3skXzsVvryPmMiHcSHttzPIcNbnD0yRBhJT0PtEcfF0CTSBO0rgflKvMzopXBJyHrF9o-O4KbwgoUWMVvlm9DkiPv_z_PTtWMrXDYsrlL6h6Yoi3td82oEAn99NjEx5YKCo-f_6UuXszY2anAkOVzOh0sdQZ2OwRTVOovYjD84oQqcVCcZ6SPyhm10BV4QoPqZ6kwk2B-QKawXoQLNATlTg0_jHvJ658esIuiMSVmElxYh2DQ4pzYMxWu-6Af2ZcFvxjbYmg_Vu5]--></g></svg>