<svg xmlns="http://www.w3.org/2000/svg" xmlns:xlink="http://www.w3.org/1999/xlink" contentStyleType="text/css" data-diagram-type="SEQUENCE" height="718px" preserveAspectRatio="none" style="width:975px;height:718px;background:#FFFFFF;" version="1.1" viewBox="0 0 975 718" width="975px" zoomAndPan="magnify"><title>UC-35 - Update Fulfillment Status</title><defs/><g><text fill="#000000" font-family="sans-serif" font-size="14" font-weight="bold" lengthAdjust="spacing" textLength="221.6826" x="378.4878" y="29.5332">UC-35 - Update Fulfillment Status</text><rect fill="none" height="54.7031" style="stroke:#000000;stroke-width:1.5;" width="715.8232" x="172" y="381.0313"/><g><title>Admin</title><rect fill="#000000" fill-opacity="0.00000" height="515.0313" width="8" x="34.8413" y="121.2188"/><line style="stroke:#181818;stroke-width:0.5;stroke-dasharray:5,5;" x1="38" x2="38" y1="121.2188" y2="636.25"/></g><g><title>My Orders . Admin Purchases UI</title><rect fill="#000000" fill-opacity="0.00000" height="515.0313" width="8" x="255.6577" y="121.2188"/><line style="stroke:#181818;stroke-width:0.5;stroke-dasharray:5,5;" x1="259.3511" x2="259.3511" y1="121.2188" y2="636.25"/></g><g><title>PaymentController</title><rect fill="#000000" fill-opacity="0.00000" height="515.0313" width="8" x="566.1602" y="121.2188"/><line style="stroke:#181818;stroke-width:0.5;stroke-dasharray:5,5;" x1="569.1914" x2="569.1914" y1="121.2188" y2="636.25"/></g><g><title>PaymentService</title><rect fill="#000000" fill-opacity="0.00000" height="515.0313" width="8" x="797.209" y="121.2188"/><line style="stroke:#181818;stroke-width:0.5;stroke-dasharray:5,5;" x1="800.2437" x2="800.2437" y1="121.2188" y2="636.25"/></g><g><title>MongoDB. bills</title><rect fill="#000000" fill-opacity="0.00000" height="515.0313" width="8" x="920.5825" y="121.2188"/><line style="stroke:#181818;stroke-width:0.5;stroke-dasharray:5,5;" x1="924.5068" x2="924.5068" y1="121.2188" y2="636.25"/></g><g class="participant participant-head" data-participant="Actor"><text fill="#000000" font-family="sans-serif" font-size="14" lengthAdjust="spacing" textLength="39.6826" x="16" y="118.1426">Admin</text><ellipse cx="38.8413" cy="52.1094" fill="#E2E2F0" rx="8" ry="8" style="stroke:#181818;stroke-width:0.5;"/><path d="M38.8413,60.1094 L38.8413,87.1094 M25.8413,68.1094 L51.8413,68.1094 M38.8413,87.1094 L25.8413,102.1094 M38.8413,87.1094 L51.8413,102.1094" fill="none" style="stroke:#181818;stroke-width:0.5;"/></g><g class="participant participant-tail" data-participant="Actor"><text fill="#000000" font-family="sans-serif" font-size="14" lengthAdjust="spacing" textLength="39.6826" x="16" y="649.7832">Admin</text><ellipse cx="38.8413" cy="661.3594" fill="#E2E2F0" rx="8" ry="8" style="stroke:#181818;stroke-width:0.5;"/><path d="M38.8413,669.3594 L38.8413,696.3594 M25.8413,677.3594 L51.8413,677.3594 M38.8413,696.3594 L25.8413,711.3594 M38.8413,696.3594 L51.8413,711.3594" fill="none" style="stroke:#181818;stroke-width:0.5;"/></g><g class="participant participant-head" data-participant="FE"><text fill="#000000" font-family="sans-serif" font-size="14" lengthAdjust="spacing" textLength="204.6133" x="154.3511" y="118.1426">My Orders / Admin Purchases UI</text><path d="M239.1577,75.6094 L239.1577,99.6094 M239.1577,87.6094 L256.1577,87.6094" fill="none" style="stroke:#181818;stroke-width:0.5;"/><ellipse cx="268.1577" cy="87.6094" fill="#E2E2F0" rx="12" ry="12" style="stroke:#181818;stroke-width:0.5;"/></g><g class="participant participant-tail" data-participant="FE"><text fill="#000000" font-family="sans-serif" font-size="14" lengthAdjust="spacing" textLength="204.6133" x="154.3511" y="649.7832">My Orders / Admin Purchases UI</text><path d="M239.1577,656.8594 L239.1577,680.8594 M239.1577,668.8594 L256.1577,668.8594" fill="none" style="stroke:#181818;stroke-width:0.5;"/><ellipse cx="268.1577" cy="668.8594" fill="#E2E2F0" rx="12" ry="12" style="stroke:#181818;stroke-width:0.5;"/></g><g class="participant participant-head" data-participant="API"><text fill="#000000" font-family="sans-serif" font-size="14" lengthAdjust="spacing" textLength="115.9375" x="509.1914" y="118.1426">PaymentController</text><ellipse cx="570.1602" cy="87.6094" fill="#E2E2F0" rx="12" ry="12" style="stroke:#181818;stroke-width:0.5;"/><polygon fill="#181818" points="566.1602,75.6094,572.1602,70.6094,570.1602,75.6094,572.1602,80.6094,566.1602,75.6094" style="stroke:#181818;stroke-width:1;"/></g><g class="participant participant-tail" data-participant="API"><text fill="#000000" font-family="sans-serif" font-size="14" lengthAdjust="spacing" textLength="115.9375" x="509.1914" y="649.7832">PaymentController</text><ellipse cx="570.1602" cy="668.8594" fill="#E2E2F0" rx="12" ry="12" style="stroke:#181818;stroke-width:0.5;"/><polygon fill="#181818" points="566.1602,656.8594,572.1602,651.8594,570.1602,656.8594,572.1602,661.8594,566.1602,656.8594" style="stroke:#181818;stroke-width:1;"/></g><g class="participant participant-head" data-participant="Service"><text fill="#000000" font-family="sans-serif" font-size="14" lengthAdjust="spacing" textLength="101.9307" x="747.2437" y="118.1426">PaymentService</text><ellipse cx="801.209" cy="87.6094" fill="#E2E2F0" rx="12" ry="12" style="stroke:#181818;stroke-width:0.5;"/><polygon fill="#181818" points="797.209,75.6094,803.209,70.6094,801.209,75.6094,803.209,80.6094,797.209,75.6094" style="stroke:#181818;stroke-width:1;"/></g><g class="participant participant-tail" data-participant="Service"><text fill="#000000" font-family="sans-serif" font-size="14" lengthAdjust="spacing" textLength="101.9307" x="747.2437" y="649.7832">PaymentService</text><ellipse cx="801.209" cy="668.8594" fill="#E2E2F0" rx="12" ry="12" style="stroke:#181818;stroke-width:0.5;"/><polygon fill="#181818" points="797.209,656.8594,803.209,651.8594,801.209,656.8594,803.209,661.8594,797.209,656.8594" style="stroke:#181818;stroke-width:1;"/></g><g class="participant participant-head" data-participant="DB"><text fill="#000000" font-family="sans-serif" font-size="14" lengthAdjust="spacing" textLength="94.1514" x="874.5068" y="118.1426">MongoDB: bills</text><path d="M906.5825,67.6094 C906.5825,57.6094 924.5825,57.6094 924.5825,57.6094 C924.5825,57.6094 942.5825,57.6094 942.5825,67.6094 L942.5825,93.6094 C942.5825,103.6094 924.5825,103.6094 924.5825,103.6094 C924.5825,103.6094 906.5825,103.6094 906.5825,93.6094 L906.5825,67.6094" fill="#E2E2F0" style="stroke:#181818;stroke-width:0.5;"/><path d="M906.5825,67.6094 C906.5825,77.6094 924.5825,77.6094 924.5825,77.6094 C924.5825,77.6094 942.5825,77.6094 942.5825,67.6094" fill="none" style="stroke:#181818;stroke-width:0.5;"/></g><g class="participant participant-tail" data-participant="DB"><text fill="#000000" font-family="sans-serif" font-size="14" lengthAdjust="spacing" textLength="94.1514" x="874.5068" y="649.7832">MongoDB: bills</text><path d="M906.5825,662.8594 C906.5825,652.8594 924.5825,652.8594 924.5825,652.8594 C924.5825,652.8594 942.5825,652.8594 942.5825,662.8594 L942.5825,688.8594 C942.5825,698.8594 924.5825,698.8594 924.5825,698.8594 C924.5825,698.8594 906.5825,698.8594 906.5825,688.8594 L906.5825,662.8594" fill="#E2E2F0" style="stroke:#181818;stroke-width:0.5;"/><path d="M906.5825,662.8594 C906.5825,672.8594 924.5825,672.8594 924.5825,672.8594 C924.5825,672.8594 942.5825,672.8594 942.5825,662.8594" fill="none" style="stroke:#181818;stroke-width:0.5;"/></g><g class="message" data-participant-1="Actor" data-participant-2="FE"><polygon fill="#181818" points="247.6577,149.5703,257.6577,153.5703,247.6577,157.5703,251.6577,153.5703" style="stroke:#181818;stroke-width:1;"/><line style="stroke:#181818;stroke-width:1;" x1="38.8413" x2="253.6577" y1="153.5703" y2="153.5703"/><text fill="#000000" font-family="sans-serif" font-size="13" font-weight="bold" lengthAdjust="spacing" textLength="7.23" x="109.3191" y="148.7139">1</text><text fill="#000000" font-family="sans-serif" font-size="13" lengthAdjust="spacing" textLength="68.6309" x="120.5491" y="148.7139">Start UC-35</text></g><g class="message" data-participant-1="FE" data-participant-2="API"><polygon fill="#181818" points="558.1602,179.9219,568.1602,183.9219,558.1602,187.9219,562.1602,183.9219" style="stroke:#181818;stroke-width:1;"/><line style="stroke:#181818;stroke-width:1;" x1="259.6577" x2="564.1602" y1="183.9219" y2="183.9219"/><text fill="#000000" font-family="sans-serif" font-size="13" font-weight="bold" lengthAdjust="spacing" textLength="7.23" x="271.6577" y="179.0654">2</text><text fill="#000000" font-family="sans-serif" font-size="13" lengthAdjust="spacing" textLength="275.2725" x="282.8877" y="179.0654">PATCH /payments/orders/:orderCode/fulfillment</text></g><g class="message" data-participant-1="API" data-participant-2="Service"><polygon fill="#181818" points="789.209,210.2734,799.209,214.2734,789.209,218.2734,793.209,214.2734" style="stroke:#181818;stroke-width:1;"/><line style="stroke:#181818;stroke-width:1;" x1="570.1602" x2="795.209" y1="214.2734" y2="214.2734"/><text fill="#000000" font-family="sans-serif" font-size="13" font-weight="bold" lengthAdjust="spacing" textLength="7.23" x="582.1602" y="209.417">3</text><text fill="#000000" font-family="sans-serif" font-size="13" lengthAdjust="spacing" textLength="195.8188" x="593.3901" y="209.417">Execute Update Fulfillment Status</text></g><g class="message" data-participant-1="Service" data-participant-2="DB"><polygon fill="#181818" points="912.5825,240.625,922.5825,244.625,912.5825,248.625,916.5825,244.625" style="stroke:#181818;stroke-width:1;"/><line style="stroke:#181818;stroke-width:1;" x1="801.209" x2="918.5825" y1="244.625" y2="244.625"/><text fill="#000000" font-family="sans-serif" font-size="13" font-weight="bold" lengthAdjust="spacing" textLength="7.23" x="813.209" y="239.7686">4</text><text fill="#000000" font-family="sans-serif" font-size="13" lengthAdjust="spacing" textLength="88.1436" x="824.439" y="239.7686">Read/write bills</text></g><g class="message" data-participant-1="DB" data-participant-2="Service"><polygon fill="#181818" points="812.209,270.9766,802.209,274.9766,812.209,278.9766,808.209,274.9766" style="stroke:#181818;stroke-width:1;"/><line style="stroke:#181818;stroke-width:1;stroke-dasharray:2,2;" x1="806.209" x2="923.5825" y1="274.9766" y2="274.9766"/><text fill="#000000" font-family="sans-serif" font-size="13" font-weight="bold" lengthAdjust="spacing" textLength="7.23" x="820.4263" y="270.1201">5</text><text fill="#000000" font-family="sans-serif" font-size="13" lengthAdjust="spacing" textLength="73.709" x="831.6563" y="270.1201">Domain data</text></g><g class="message" data-participant-1="Service" data-participant-2="API"><polygon fill="#181818" points="581.1602,301.3281,571.1602,305.3281,581.1602,309.3281,577.1602,305.3281" style="stroke:#181818;stroke-width:1;"/><line style="stroke:#181818;stroke-width:1;stroke-dasharray:2,2;" x1="575.1602" x2="800.209" y1="305.3281" y2="305.3281"/><text fill="#000000" font-family="sans-serif" font-size="13" font-weight="bold" lengthAdjust="spacing" textLength="7.23" x="661.6455" y="300.4717">6</text><text fill="#000000" font-family="sans-serif" font-size="13" lengthAdjust="spacing" textLength="36.8481" x="672.8755" y="300.4717">Result</text></g><g class="message" data-participant-1="API" data-participant-2="FE"><polygon fill="#181818" points="270.6577,331.6797,260.6577,335.6797,270.6577,339.6797,266.6577,335.6797" style="stroke:#181818;stroke-width:1;"/><line style="stroke:#181818;stroke-width:1;stroke-dasharray:2,2;" x1="264.6577" x2="569.1602" y1="335.6797" y2="335.6797"/><text fill="#000000" font-family="sans-serif" font-size="13" font-weight="bold" lengthAdjust="spacing" textLength="7.23" x="380.0249" y="330.8232">7</text><text fill="#000000" font-family="sans-serif" font-size="13" lengthAdjust="spacing" textLength="58.5381" x="391.2549" y="330.8232">Response</text></g><g class="message" data-participant-1="FE" data-participant-2="Actor"><polygon fill="#181818" points="49.8413,362.0313,39.8413,366.0313,49.8413,370.0313,45.8413,366.0313" style="stroke:#181818;stroke-width:1;"/><line style="stroke:#181818;stroke-width:1;stroke-dasharray:2,2;" x1="43.8413" x2="258.6577" y1="366.0313" y2="366.0313"/><text fill="#000000" font-family="sans-serif" font-size="13" font-weight="bold" lengthAdjust="spacing" textLength="7.23" x="50.8413" y="361.1748">8</text><text fill="#000000" font-family="sans-serif" font-size="13" lengthAdjust="spacing" textLength="185.5864" x="62.0713" y="361.1748">Fulfillment status &#273;&#432;&#7907;c c&#7853;p nh&#7853;t</text></g><path d="M172,381.0313 L232.1709,381.0313 L232.1709,389.3828 L222.1709,399.3828 L172,399.3828 L172,381.0313" fill="#EEEEEE" style="stroke:#000000;stroke-width:1.5;"/><rect fill="none" height="54.7031" style="stroke:#000000;stroke-width:1.5;" width="715.8232" x="172" y="381.0313"/><text fill="#000000" font-family="sans-serif" font-size="13" font-weight="bold" lengthAdjust="spacing" textLength="15.1709" x="187" y="395.5264">alt</text><text fill="#000000" font-family="sans-serif" font-size="11" font-weight="bold" lengthAdjust="spacing" textLength="149.7461" x="247.1709" y="394.4502">[Alternative / exception flow]</text><path d="M182,404.3828 L182,430.3828 L877,430.3828 L877,414.3828 L867,404.3828 L182,404.3828" fill="#FEFFDD" style="stroke:#181818;stroke-width:0.5;"/><path d="M867,404.3828 L867,414.3828 L877,414.3828 L867,404.3828" fill="#FEFFDD" style="stroke:#181818;stroke-width:0.5;"/><text fill="#000000" font-family="sans-serif" font-size="13" lengthAdjust="spacing" textLength="213.4082" x="418.7075" y="422.8779">Status transition kh&#244;ng h&#7907;p l&#7879; -&gt; 400</text><path d="M5,447.7344 L5,620.7344 L958,620.7344 L958,457.7344 L948,447.7344 L5,447.7344" fill="#FEFFDD" style="stroke:#181818;stroke-width:0.5;"/><path d="M948,447.7344 L948,457.7344 L958,457.7344 L948,447.7344" fill="#FEFFDD" style="stroke:#181818;stroke-width:0.5;"/><text fill="#000000" font-family="sans-serif" font-size="13" lengthAdjust="spacing" textLength="124.1538" x="234.8518" y="466.2295">Pre: &#272;&#417;n h&#224;ng t&#7891;n t&#7841;i</text><text fill="#000000" font-family="sans-serif" font-size="13" lengthAdjust="spacing" textLength="218.8228" x="234.8518" y="482.5811">Post: Fulfillment status &#273;&#432;&#7907;c c&#7853;p nh&#7853;t</text><text fill="#000000" font-family="sans-serif" font-size="13" lengthAdjust="spacing" textLength="58.519" x="234.8518" y="498.9326">Main flow:</text><text fill="#000000" font-family="sans-serif" font-size="13" lengthAdjust="spacing" textLength="174.5796" x="234.8518" y="515.2842">1. Admin m&#7903; chi ti&#7871;t &#273;&#417;n h&#224;ng</text><text fill="#000000" font-family="sans-serif" font-size="13" lengthAdjust="spacing" textLength="484.9546" x="234.8518" y="531.6357">2. Admin ch&#7885;n status m&#7899;i: CONFIRMED -&gt; PACKING -&gt; SHIPPING -&gt; DELIVERED</text><text fill="#000000" font-family="sans-serif" font-size="13" lengthAdjust="spacing" textLength="303.8433" x="234.8518" y="547.9873">3. N&#7871;u ch&#7885;n SHIPPING: nh&#7853;p carrier + trackingCode</text><text fill="#000000" font-family="sans-serif" font-size="13" lengthAdjust="spacing" textLength="170.5361" x="234.8518" y="564.3389">4. Admin th&#234;m note (optional)</text><text fill="#000000" font-family="sans-serif" font-size="13" lengthAdjust="spacing" textLength="382.2051" x="234.8518" y="580.6904">5. System g&#7885;i API PATCH /payments/orders/:orderCode/fulfillment</text><text fill="#000000" font-family="sans-serif" font-size="13" lengthAdjust="spacing" textLength="353.3169" x="234.8518" y="597.042">6. System c&#7853;p nh&#7853;t fulfillmentStatus, th&#234;m v&#224;o statusHistory[]</text><text fill="#000000" font-family="sans-serif" font-size="13" lengthAdjust="spacing" textLength="271.7559" x="234.8518" y="613.3936">7. System g&#7917;i email th&#244;ng b&#225;o cho kh&#225;ch h&#224;ng</text><!--SRC=[bLExRXD15EtdAwvSWOZZG1AGja1ol3QnmCdA8JI8OZmxzeuoExFCpDhn5r0XWIWfY4M758c2AYue7EK__2VSsKTYX2ZIx6Fsd7lFEVSkpPrMUJhYXjWpeJ9gQ0eseR6U2JM1CPMMRtxXxtEk61zmQ-c4jwMOA61SEUGxuII7qqvpTn-QS9h5r77evN8if4mH0YUEkjmIGfdJ1XhjE1Mg0TH2sn-GaSvLJCqS6eCv79kO6mijA50GvOObr78Bf_s2qkiIffKpMa8ZedDVlrE-IsxAeb7_7yW9DrF1UF6zUYOeauwmDBRLQgB3Wm16gDWMeF20a48TD9zZpy1xCAuqINfTVufz0eZQhpk7qChADhQb2_cjeBXtTCnRuxiW258yir8GGFUSinp3-dzc5TIplC0Xft5hPWI22wqaF83cPiLGfnHZyzxkkBNO8RUvh5HKjl0eqmf7xJrvdFSS_AN45ahW-lFDp_NoEmEslhhCG2LuSpXJwQ0jSGqKTMBASN3ydF7C2QrWBFMC02YDSlMK6-ouTQkqD0ZEK6L50JzBLhzmzHBiae5SBpzurtixEuIhc92xAeN6BPnGPB3EzQURXO9aTO5Kjrv-KNYzMWWIQUlkOMJWO_E20_9ukrg-TBty1YmHuCJwwhVppBeLULA36EhzgEhYIFag0kWS7_Nwmq4tz1QYTkTb_-X5CVd3VXHLps7tLVzDTzWDoUus7663lAvLeu9IN0QC6YFG-ICV5yEVSk9NY-pL6boo-f6MEJ_GHVPKFYJxst0ojuwdCC6omk_0FVVrwMs5pQnW0r9ESQjIC5rTw2g9Gs5nIlEtxyYpJHcN0ZXkgFG4F-pHQg7HjlR3Nx2a2XS7NhZv0m00]--></g></svg>