<svg xmlns="http://www.w3.org/2000/svg" xmlns:xlink="http://www.w3.org/1999/xlink" contentStyleType="text/css" data-diagram-type="SEQUENCE" height="600px" preserveAspectRatio="none" style="width:1129px;height:600px;background:#FFFFFF;" version="1.1" viewBox="0 0 1129 600" width="1129px" zoomAndPan="magnify"><title>UC-41 - View Low Stock Alert</title><defs/><g><text fill="#000000" font-family="sans-serif" font-size="14" font-weight="bold" lengthAdjust="spacing" textLength="194.4824" x="469.2283" y="29.5332">UC-41 - View Low Stock Alert</text><g><title>Admin</title><rect fill="#000000" fill-opacity="0.00000" height="397.2734" width="8" x="74.8413" y="121.2188"/><line style="stroke:#181818;stroke-width:0.5;stroke-dasharray:5,5;" x1="78" x2="78" y1="121.2188" y2="518.4922"/></g><g><title>Admin Inventory UI</title><rect fill="#000000" fill-opacity="0.00000" height="397.2734" width="8" x="335.5273" y="121.2188"/><line style="stroke:#181818;stroke-width:0.5;stroke-dasharray:5,5;" x1="339.0034" x2="339.0034" y1="121.2188" y2="518.4922"/></g><g><title>InventoryController</title><rect fill="#000000" fill-opacity="0.00000" height="397.2734" width="8" x="512.3608" y="121.2188"/><line style="stroke:#181818;stroke-width:0.5;stroke-dasharray:5,5;" x1="516.2231" x2="516.2231" y1="121.2188" y2="518.4922"/></g><g><title>InventoryService</title><rect fill="#000000" fill-opacity="0.00000" height="397.2734" width="8" x="720.2788" y="121.2188"/><line style="stroke:#181818;stroke-width:0.5;stroke-dasharray:5,5;" x1="724.1445" x2="724.1445" y1="121.2188" y2="518.4922"/></g><g><title>MongoDB. shoesDetail. stockMovements</title><rect fill="#000000" fill-opacity="0.00000" height="397.2734" width="8" x="993.9395" y="121.2188"/><line style="stroke:#181818;stroke-width:0.5;stroke-dasharray:5,5;" x1="996.9399" x2="996.9399" y1="121.2188" y2="518.4922"/></g><g class="participant participant-head" data-participant="Actor"><text fill="#000000" font-family="sans-serif" font-size="14" lengthAdjust="spacing" textLength="39.6826" x="56" y="118.1426">Admin</text><ellipse cx="78.8413" cy="52.1094" fill="#E2E2F0" rx="8" ry="8" style="stroke:#181818;stroke-width:0.5;"/><path d="M78.8413,60.1094 L78.8413,87.1094 M65.8413,68.1094 L91.8413,68.1094 M78.8413,87.1094 L65.8413,102.1094 M78.8413,87.1094 L91.8413,102.1094" fill="none" style="stroke:#181818;stroke-width:0.5;"/></g><g class="participant participant-tail" data-participant="Actor"><text fill="#000000" font-family="sans-serif" font-size="14" lengthAdjust="spacing" textLength="39.6826" x="56" y="532.0254">Admin</text><ellipse cx="78.8413" cy="543.6016" fill="#E2E2F0" rx="8" ry="8" style="stroke:#181818;stroke-width:0.5;"/><path d="M78.8413,551.6016 L78.8413,578.6016 M65.8413,559.6016 L91.8413,559.6016 M78.8413,578.6016 L65.8413,593.6016 M78.8413,578.6016 L91.8413,593.6016" fill="none" style="stroke:#181818;stroke-width:0.5;"/></g><g class="participant participant-head" data-participant="FE"><text fill="#000000" font-family="sans-serif" font-size="14" lengthAdjust="spacing" textLength="119.0479" x="277.0034" y="118.1426">Admin Inventory UI</text><path d="M319.0273,75.6094 L319.0273,99.6094 M319.0273,87.6094 L336.0273,87.6094" fill="none" style="stroke:#181818;stroke-width:0.5;"/><ellipse cx="348.0273" cy="87.6094" fill="#E2E2F0" rx="12" ry="12" style="stroke:#181818;stroke-width:0.5;"/></g><g class="participant participant-tail" data-participant="FE"><text fill="#000000" font-family="sans-serif" font-size="14" lengthAdjust="spacing" textLength="119.0479" x="277.0034" y="532.0254">Admin Inventory UI</text><path d="M319.0273,539.1016 L319.0273,563.1016 M319.0273,551.1016 L336.0273,551.1016" fill="none" style="stroke:#181818;stroke-width:0.5;"/><ellipse cx="348.0273" cy="551.1016" fill="#E2E2F0" rx="12" ry="12" style="stroke:#181818;stroke-width:0.5;"/></g><g class="participant participant-head" data-participant="API"><text fill="#000000" font-family="sans-serif" font-size="14" lengthAdjust="spacing" textLength="118.2754" x="454.2231" y="118.1426">InventoryController</text><ellipse cx="516.3608" cy="87.6094" fill="#E2E2F0" rx="12" ry="12" style="stroke:#181818;stroke-width:0.5;"/><polygon fill="#181818" points="512.3608,75.6094,518.3608,70.6094,516.3608,75.6094,518.3608,80.6094,512.3608,75.6094" style="stroke:#181818;stroke-width:1;"/></g><g class="participant participant-tail" data-participant="API"><text fill="#000000" font-family="sans-serif" font-size="14" lengthAdjust="spacing" textLength="118.2754" x="454.2231" y="532.0254">InventoryController</text><ellipse cx="516.3608" cy="551.1016" fill="#E2E2F0" rx="12" ry="12" style="stroke:#181818;stroke-width:0.5;"/><polygon fill="#181818" points="512.3608,539.1016,518.3608,534.1016,516.3608,539.1016,518.3608,544.1016,512.3608,539.1016" style="stroke:#181818;stroke-width:1;"/></g><g class="participant participant-head" data-participant="Service"><text fill="#000000" font-family="sans-serif" font-size="14" lengthAdjust="spacing" textLength="104.2686" x="669.1445" y="118.1426">InventoryService</text><ellipse cx="724.2788" cy="87.6094" fill="#E2E2F0" rx="12" ry="12" style="stroke:#181818;stroke-width:0.5;"/><polygon fill="#181818" points="720.2788,75.6094,726.2788,70.6094,724.2788,75.6094,726.2788,80.6094,720.2788,75.6094" style="stroke:#181818;stroke-width:1;"/></g><g class="participant participant-tail" data-participant="Service"><text fill="#000000" font-family="sans-serif" font-size="14" lengthAdjust="spacing" textLength="104.2686" x="669.1445" y="532.0254">InventoryService</text><ellipse cx="724.2788" cy="551.1016" fill="#E2E2F0" rx="12" ry="12" style="stroke:#181818;stroke-width:0.5;"/><polygon fill="#181818" points="720.2788,539.1016,726.2788,534.1016,724.2788,539.1016,726.2788,544.1016,720.2788,539.1016" style="stroke:#181818;stroke-width:1;"/></g><g class="participant participant-head" data-participant="DB"><text fill="#000000" font-family="sans-serif" font-size="14" lengthAdjust="spacing" textLength="255.999" x="866.9399" y="118.1426">MongoDB: shoesDetail, stockMovements</text><path d="M979.9395,67.6094 C979.9395,57.6094 997.9395,57.6094 997.9395,57.6094 C997.9395,57.6094 1015.9395,57.6094 1015.9395,67.6094 L1015.9395,93.6094 C1015.9395,103.6094 997.9395,103.6094 997.9395,103.6094 C997.9395,103.6094 979.9395,103.6094 979.9395,93.6094 L979.9395,67.6094" fill="#E2E2F0" style="stroke:#181818;stroke-width:0.5;"/><path d="M979.9395,67.6094 C979.9395,77.6094 997.9395,77.6094 997.9395,77.6094 C997.9395,77.6094 1015.9395,77.6094 1015.9395,67.6094" fill="none" style="stroke:#181818;stroke-width:0.5;"/></g><g class="participant participant-tail" data-participant="DB"><text fill="#000000" font-family="sans-serif" font-size="14" lengthAdjust="spacing" textLength="255.999" x="866.9399" y="532.0254">MongoDB: shoesDetail, stockMovements</text><path d="M979.9395,545.1016 C979.9395,535.1016 997.9395,535.1016 997.9395,535.1016 C997.9395,535.1016 1015.9395,535.1016 1015.9395,545.1016 L1015.9395,571.1016 C1015.9395,581.1016 997.9395,581.1016 997.9395,581.1016 C997.9395,581.1016 979.9395,581.1016 979.9395,571.1016 L979.9395,545.1016" fill="#E2E2F0" style="stroke:#181818;stroke-width:0.5;"/><path d="M979.9395,545.1016 C979.9395,555.1016 997.9395,555.1016 997.9395,555.1016 C997.9395,555.1016 1015.9395,555.1016 1015.9395,545.1016" fill="none" style="stroke:#181818;stroke-width:0.5;"/></g><g class="message" data-participant-1="Actor" data-participant-2="FE"><polygon fill="#181818" points="327.5273,149.5703,337.5273,153.5703,327.5273,157.5703,331.5273,153.5703" style="stroke:#181818;stroke-width:1;"/><line style="stroke:#181818;stroke-width:1;" x1="78.8413" x2="333.5273" y1="153.5703" y2="153.5703"/><text fill="#000000" font-family="sans-serif" font-size="13" font-weight="bold" lengthAdjust="spacing" textLength="7.23" x="169.2539" y="148.7139">1</text><text fill="#000000" font-family="sans-serif" font-size="13" lengthAdjust="spacing" textLength="68.6309" x="180.4839" y="148.7139">Start UC-41</text></g><g class="message" data-participant-1="FE" data-participant-2="API"><polygon fill="#181818" points="504.3608,179.9219,514.3608,183.9219,504.3608,187.9219,508.3608,183.9219" style="stroke:#181818;stroke-width:1;"/><line style="stroke:#181818;stroke-width:1;" x1="339.5273" x2="510.3608" y1="183.9219" y2="183.9219"/><text fill="#000000" font-family="sans-serif" font-size="13" font-weight="bold" lengthAdjust="spacing" textLength="7.23" x="351.5273" y="179.0654">2</text><text fill="#000000" font-family="sans-serif" font-size="13" lengthAdjust="spacing" textLength="141.6035" x="362.7573" y="179.0654">GET /inventory/overview</text></g><g class="message" data-participant-1="API" data-participant-2="Service"><polygon fill="#181818" points="712.2788,210.2734,722.2788,214.2734,712.2788,218.2734,716.2788,214.2734" style="stroke:#181818;stroke-width:1;"/><line style="stroke:#181818;stroke-width:1;" x1="516.3608" x2="718.2788" y1="214.2734" y2="214.2734"/><text fill="#000000" font-family="sans-serif" font-size="13" font-weight="bold" lengthAdjust="spacing" textLength="7.23" x="528.3608" y="209.417">3</text><text fill="#000000" font-family="sans-serif" font-size="13" lengthAdjust="spacing" textLength="172.688" x="539.5908" y="209.417">Execute View Low Stock Alert</text></g><g class="message" data-participant-1="Service" data-participant-2="DB"><polygon fill="#181818" points="985.9395,240.625,995.9395,244.625,985.9395,248.625,989.9395,244.625" style="stroke:#181818;stroke-width:1;"/><line style="stroke:#181818;stroke-width:1;" x1="724.2788" x2="991.9395" y1="244.625" y2="244.625"/><text fill="#000000" font-family="sans-serif" font-size="13" font-weight="bold" lengthAdjust="spacing" textLength="7.23" x="736.2788" y="239.7686">4</text><text fill="#000000" font-family="sans-serif" font-size="13" lengthAdjust="spacing" textLength="238.4307" x="747.5088" y="239.7686">Read/write shoesDetail, stockMovements</text></g><g class="message" data-participant-1="DB" data-participant-2="Service"><polygon fill="#181818" points="735.2788,270.9766,725.2788,274.9766,735.2788,278.9766,731.2788,274.9766" style="stroke:#181818;stroke-width:1;"/><line style="stroke:#181818;stroke-width:1;stroke-dasharray:2,2;" x1="729.2788" x2="996.9395" y1="274.9766" y2="274.9766"/><text fill="#000000" font-family="sans-serif" font-size="13" font-weight="bold" lengthAdjust="spacing" textLength="7.23" x="818.6396" y="270.1201">5</text><text fill="#000000" font-family="sans-serif" font-size="13" lengthAdjust="spacing" textLength="73.709" x="829.8696" y="270.1201">Domain data</text></g><g class="message" data-participant-1="Service" data-participant-2="API"><polygon fill="#181818" points="527.3608,301.3281,517.3608,305.3281,527.3608,309.3281,523.3608,305.3281" style="stroke:#181818;stroke-width:1;"/><line style="stroke:#181818;stroke-width:1;stroke-dasharray:2,2;" x1="521.3608" x2="723.2788" y1="305.3281" y2="305.3281"/><text fill="#000000" font-family="sans-serif" font-size="13" font-weight="bold" lengthAdjust="spacing" textLength="7.23" x="596.2808" y="300.4717">6</text><text fill="#000000" font-family="sans-serif" font-size="13" lengthAdjust="spacing" textLength="36.8481" x="607.5107" y="300.4717">Result</text></g><g class="message" data-participant-1="API" data-participant-2="FE"><polygon fill="#181818" points="350.5273,331.6797,340.5273,335.6797,350.5273,339.6797,346.5273,335.6797" style="stroke:#181818;stroke-width:1;"/><line style="stroke:#181818;stroke-width:1;stroke-dasharray:2,2;" x1="344.5273" x2="515.3608" y1="335.6797" y2="335.6797"/><text fill="#000000" font-family="sans-serif" font-size="13" font-weight="bold" lengthAdjust="spacing" textLength="7.23" x="393.0601" y="330.8232">7</text><text fill="#000000" font-family="sans-serif" font-size="13" lengthAdjust="spacing" textLength="58.5381" x="404.29" y="330.8232">Response</text></g><g class="message" data-participant-1="FE" data-participant-2="Actor"><polygon fill="#181818" points="89.8413,362.0313,79.8413,366.0313,89.8413,370.0313,85.8413,366.0313" style="stroke:#181818;stroke-width:1;"/><line style="stroke:#181818;stroke-width:1;stroke-dasharray:2,2;" x1="83.8413" x2="338.5273" y1="366.0313" y2="366.0313"/><text fill="#000000" font-family="sans-serif" font-size="13" font-weight="bold" lengthAdjust="spacing" textLength="7.23" x="90.8413" y="361.1748">8</text><text fill="#000000" font-family="sans-serif" font-size="13" lengthAdjust="spacing" textLength="225.4561" x="102.0713" y="361.1748">Danh s&#225;ch s&#7843;n ph&#7849;m low stock hi&#7875;n th&#7883;</text></g><path d="M5,379.0313 L5,503.0313 L1072,503.0313 L1072,389.0313 L1062,379.0313 L5,379.0313" fill="#FEFFDD" style="stroke:#181818;stroke-width:0.5;"/><path d="M1062,379.0313 L1062,389.0313 L1072,389.0313 L1062,379.0313" fill="#FEFFDD" style="stroke:#181818;stroke-width:0.5;"/><text fill="#000000" font-family="sans-serif" font-size="13" lengthAdjust="spacing" textLength="143.0635" x="323.9875" y="397.5264">Pre: &#272;ang xem inventory</text><text fill="#000000" font-family="sans-serif" font-size="13" lengthAdjust="spacing" textLength="258.6924" x="323.9875" y="413.8779">Post: Danh s&#225;ch s&#7843;n ph&#7849;m low stock hi&#7875;n th&#7883;</text><text fill="#000000" font-family="sans-serif" font-size="13" lengthAdjust="spacing" textLength="58.519" x="323.9875" y="430.2295">Main flow:</text><text fill="#000000" font-family="sans-serif" font-size="13" lengthAdjust="spacing" textLength="420.9639" x="323.9875" y="446.5811">1. System t&#7921; &#273;&#7897;ng highlight s&#7843;n ph&#7849;m c&#243; stock &lt;= 5 (v&#224;ng) ho&#7863;c = 0 (&#273;&#7887;)</text><text fill="#000000" font-family="sans-serif" font-size="13" lengthAdjust="spacing" textLength="161.1416" x="323.9875" y="462.9326">2. Admin v&#224;o tab Low Stock</text><text fill="#000000" font-family="sans-serif" font-size="13" lengthAdjust="spacing" textLength="395.2051" x="323.9875" y="479.2842">3. System g&#7885;i API GET /inventory/overview; frontend filters low stock</text><text fill="#000000" font-family="sans-serif" font-size="13" lengthAdjust="spacing" textLength="211.7705" x="323.9875" y="495.6357">4. Hi&#7875;n th&#7883; danh s&#225;ch c&#7847;n nh&#7853;p h&#224;ng</text><!--SRC=[bLEzRXD14ExtAKQk4Ycs2OJc84XspW5BMB9YGh_U6z-jShThTlVifAP422ZfY58W2Wf4WUGhdHUvDs7sxc8RAI3HMAUPRx-VcJ7FdLPvDaN3x8LKSsvu1ZRXaLvA5SECfnPtE_WcHoLmXDRo67kfZ1K8L8xUE-bIXFEJzj4XjE6rn2Myr4kOE2qke9UYSOnnuRI1LY_Af6e1jz3p1JRLkOgukMewC5GBujHKE1zMiDC14reverDeRPedTOMOQwhny1xG1Cr22gmGpJUBkEDJRX5Q8wrY7VO3YgpHXkYuJ0_0UiiZlS2CE6prDEmpLdc5zZDo4r0iRboTbfqEV9Nq0tW-U0LTUIVU9GwIn2MZfiSq3W8ONAB87Tu_fWRb7tXlPyYZxj98Wl_39WlxqDwL27N6QPO-x9RnpkSPsZnrjQqc4PNcMj6wVHoFyt69Xgi4xFfQq6-vkb4mJyhLjmnICbqvW4IMnLi5BYcBTumfJJvzxfhWW2OtDcJdzYEdWxh433RZOMDjtNyhZ7og6JK3TjY1oPLrnEdAuWVSVYgBpoIIo3YXoqpSdtnY_RFXUteCZs5liVwYudr8TBdw9U0O7i2UP_Ympnvse3v4WcYWOzckY3tQQCPbyLxwSVvjwqzWPkWWKKKmaodzH-ms4plgm8kTMBIdpHH4kVggG97hxtD8l4lcEVnaVmC0]--></g></svg>