<svg xmlns="http://www.w3.org/2000/svg" xmlns:xlink="http://www.w3.org/1999/xlink" contentStyleType="text/css" data-diagram-type="SEQUENCE" height="600px" preserveAspectRatio="none" style="width:1110px;height:600px;background:#FFFFFF;" version="1.1" viewBox="0 0 1110 600" width="1110px" zoomAndPan="magnify"><title>UC-44 - View Stock Movements</title><defs/><g><text fill="#000000" font-family="sans-serif" font-size="14" font-weight="bold" lengthAdjust="spacing" textLength="207.7236" x="452.8545" y="29.5332">UC-44 - View Stock Movements</text><g><title>Admin</title><rect fill="#000000" fill-opacity="0.00000" height="397.2734" width="8" x="74.8413" y="121.2188"/><line style="stroke:#181818;stroke-width:0.5;stroke-dasharray:5,5;" x1="78" x2="78" y1="121.2188" y2="518.4922"/></g><g><title>Admin Inventory UI</title><rect fill="#000000" fill-opacity="0.00000" height="397.2734" width="8" x="303.021" y="121.2188"/><line style="stroke:#181818;stroke-width:0.5;stroke-dasharray:5,5;" x1="306.4971" x2="306.4971" y1="121.2188" y2="518.4922"/></g><g><title>InventoryController</title><rect fill="#000000" fill-opacity="0.00000" height="397.2734" width="8" x="479.8545" y="121.2188"/><line style="stroke:#181818;stroke-width:0.5;stroke-dasharray:5,5;" x1="483.7168" x2="483.7168" y1="121.2188" y2="518.4922"/></g><g><title>InventoryService</title><rect fill="#000000" fill-opacity="0.00000" height="397.2734" width="8" x="700.7725" y="121.2188"/><line style="stroke:#181818;stroke-width:0.5;stroke-dasharray:5,5;" x1="704.6382" x2="704.6382" y1="121.2188" y2="518.4922"/></g><g><title>MongoDB. shoesDetail. stockMovements</title><rect fill="#000000" fill-opacity="0.00000" height="397.2734" width="8" x="974.4331" y="121.2188"/><line style="stroke:#181818;stroke-width:0.5;stroke-dasharray:5,5;" x1="977.4336" x2="977.4336" y1="121.2188" y2="518.4922"/></g><g class="participant participant-head" data-participant="Actor"><text fill="#000000" font-family="sans-serif" font-size="14" lengthAdjust="spacing" textLength="39.6826" x="56" y="118.1426">Admin</text><ellipse cx="78.8413" cy="52.1094" fill="#E2E2F0" rx="8" ry="8" style="stroke:#181818;stroke-width:0.5;"/><path d="M78.8413,60.1094 L78.8413,87.1094 M65.8413,68.1094 L91.8413,68.1094 M78.8413,87.1094 L65.8413,102.1094 M78.8413,87.1094 L91.8413,102.1094" fill="none" style="stroke:#181818;stroke-width:0.5;"/></g><g class="participant participant-tail" data-participant="Actor"><text fill="#000000" font-family="sans-serif" font-size="14" lengthAdjust="spacing" textLength="39.6826" x="56" y="532.0254">Admin</text><ellipse cx="78.8413" cy="543.6016" fill="#E2E2F0" rx="8" ry="8" style="stroke:#181818;stroke-width:0.5;"/><path d="M78.8413,551.6016 L78.8413,578.6016 M65.8413,559.6016 L91.8413,559.6016 M78.8413,578.6016 L65.8413,593.6016 M78.8413,578.6016 L91.8413,593.6016" fill="none" style="stroke:#181818;stroke-width:0.5;"/></g><g class="participant participant-head" data-participant="FE"><text fill="#000000" font-family="sans-serif" font-size="14" lengthAdjust="spacing" textLength="119.0479" x="244.4971" y="118.1426">Admin Inventory UI</text><path d="M286.521,75.6094 L286.521,99.6094 M286.521,87.6094 L303.521,87.6094" fill="none" style="stroke:#181818;stroke-width:0.5;"/><ellipse cx="315.521" cy="87.6094" fill="#E2E2F0" rx="12" ry="12" style="stroke:#181818;stroke-width:0.5;"/></g><g class="participant participant-tail" data-participant="FE"><text fill="#000000" font-family="sans-serif" font-size="14" lengthAdjust="spacing" textLength="119.0479" x="244.4971" y="532.0254">Admin Inventory UI</text><path d="M286.521,539.1016 L286.521,563.1016 M286.521,551.1016 L303.521,551.1016" fill="none" style="stroke:#181818;stroke-width:0.5;"/><ellipse cx="315.521" cy="551.1016" fill="#E2E2F0" rx="12" ry="12" style="stroke:#181818;stroke-width:0.5;"/></g><g class="participant participant-head" data-participant="API"><text fill="#000000" font-family="sans-serif" font-size="14" lengthAdjust="spacing" textLength="118.2754" x="421.7168" y="118.1426">InventoryController</text><ellipse cx="483.8545" cy="87.6094" fill="#E2E2F0" rx="12" ry="12" style="stroke:#181818;stroke-width:0.5;"/><polygon fill="#181818" points="479.8545,75.6094,485.8545,70.6094,483.8545,75.6094,485.8545,80.6094,479.8545,75.6094" style="stroke:#181818;stroke-width:1;"/></g><g class="participant participant-tail" data-participant="API"><text fill="#000000" font-family="sans-serif" font-size="14" lengthAdjust="spacing" textLength="118.2754" x="421.7168" y="532.0254">InventoryController</text><ellipse cx="483.8545" cy="551.1016" fill="#E2E2F0" rx="12" ry="12" style="stroke:#181818;stroke-width:0.5;"/><polygon fill="#181818" points="479.8545,539.1016,485.8545,534.1016,483.8545,539.1016,485.8545,544.1016,479.8545,539.1016" style="stroke:#181818;stroke-width:1;"/></g><g class="participant participant-head" data-participant="Service"><text fill="#000000" font-family="sans-serif" font-size="14" lengthAdjust="spacing" textLength="104.2686" x="649.6382" y="118.1426">InventoryService</text><ellipse cx="704.7725" cy="87.6094" fill="#E2E2F0" rx="12" ry="12" style="stroke:#181818;stroke-width:0.5;"/><polygon fill="#181818" points="700.7725,75.6094,706.7725,70.6094,704.7725,75.6094,706.7725,80.6094,700.7725,75.6094" style="stroke:#181818;stroke-width:1;"/></g><g class="participant participant-tail" data-participant="Service"><text fill="#000000" font-family="sans-serif" font-size="14" lengthAdjust="spacing" textLength="104.2686" x="649.6382" y="532.0254">InventoryService</text><ellipse cx="704.7725" cy="551.1016" fill="#E2E2F0" rx="12" ry="12" style="stroke:#181818;stroke-width:0.5;"/><polygon fill="#181818" points="700.7725,539.1016,706.7725,534.1016,704.7725,539.1016,706.7725,544.1016,700.7725,539.1016" style="stroke:#181818;stroke-width:1;"/></g><g class="participant participant-head" data-participant="DB"><text fill="#000000" font-family="sans-serif" font-size="14" lengthAdjust="spacing" textLength="255.999" x="847.4336" y="118.1426">MongoDB: shoesDetail, stockMovements</text><path d="M960.4331,67.6094 C960.4331,57.6094 978.4331,57.6094 978.4331,57.6094 C978.4331,57.6094 996.4331,57.6094 996.4331,67.6094 L996.4331,93.6094 C996.4331,103.6094 978.4331,103.6094 978.4331,103.6094 C978.4331,103.6094 960.4331,103.6094 960.4331,93.6094 L960.4331,67.6094" fill="#E2E2F0" style="stroke:#181818;stroke-width:0.5;"/><path d="M960.4331,67.6094 C960.4331,77.6094 978.4331,77.6094 978.4331,77.6094 C978.4331,77.6094 996.4331,77.6094 996.4331,67.6094" fill="none" style="stroke:#181818;stroke-width:0.5;"/></g><g class="participant participant-tail" data-participant="DB"><text fill="#000000" font-family="sans-serif" font-size="14" lengthAdjust="spacing" textLength="255.999" x="847.4336" y="532.0254">MongoDB: shoesDetail, stockMovements</text><path d="M960.4331,545.1016 C960.4331,535.1016 978.4331,535.1016 978.4331,535.1016 C978.4331,535.1016 996.4331,535.1016 996.4331,545.1016 L996.4331,571.1016 C996.4331,581.1016 978.4331,581.1016 978.4331,581.1016 C978.4331,581.1016 960.4331,581.1016 960.4331,571.1016 L960.4331,545.1016" fill="#E2E2F0" style="stroke:#181818;stroke-width:0.5;"/><path d="M960.4331,545.1016 C960.4331,555.1016 978.4331,555.1016 978.4331,555.1016 C978.4331,555.1016 996.4331,555.1016 996.4331,545.1016" fill="none" style="stroke:#181818;stroke-width:0.5;"/></g><g class="message" data-participant-1="Actor" data-participant-2="FE"><polygon fill="#181818" points="295.021,149.5703,305.021,153.5703,295.021,157.5703,299.021,153.5703" style="stroke:#181818;stroke-width:1;"/><line style="stroke:#181818;stroke-width:1;" x1="78.8413" x2="301.021" y1="153.5703" y2="153.5703"/><text fill="#000000" font-family="sans-serif" font-size="13" font-weight="bold" lengthAdjust="spacing" textLength="7.23" x="153.0007" y="148.7139">1</text><text fill="#000000" font-family="sans-serif" font-size="13" lengthAdjust="spacing" textLength="68.6309" x="164.2307" y="148.7139">Start UC-44</text></g><g class="message" data-participant-1="FE" data-participant-2="API"><polygon fill="#181818" points="471.8545,179.9219,481.8545,183.9219,471.8545,187.9219,475.8545,183.9219" style="stroke:#181818;stroke-width:1;"/><line style="stroke:#181818;stroke-width:1;" x1="307.021" x2="477.8545" y1="183.9219" y2="183.9219"/><text fill="#000000" font-family="sans-serif" font-size="13" font-weight="bold" lengthAdjust="spacing" textLength="7.23" x="319.021" y="179.0654">2</text><text fill="#000000" font-family="sans-serif" font-size="13" lengthAdjust="spacing" textLength="141.6035" x="330.251" y="179.0654">GET /inventory/overview</text></g><g class="message" data-participant-1="API" data-participant-2="Service"><polygon fill="#181818" points="692.7725,210.2734,702.7725,214.2734,692.7725,218.2734,696.7725,214.2734" style="stroke:#181818;stroke-width:1;"/><line style="stroke:#181818;stroke-width:1;" x1="483.8545" x2="698.7725" y1="214.2734" y2="214.2734"/><text fill="#000000" font-family="sans-serif" font-size="13" font-weight="bold" lengthAdjust="spacing" textLength="7.23" x="495.8545" y="209.417">3</text><text fill="#000000" font-family="sans-serif" font-size="13" lengthAdjust="spacing" textLength="185.688" x="507.0845" y="209.417">Execute View Stock Movements</text></g><g class="message" data-participant-1="Service" data-participant-2="DB"><polygon fill="#181818" points="966.4331,240.625,976.4331,244.625,966.4331,248.625,970.4331,244.625" style="stroke:#181818;stroke-width:1;"/><line style="stroke:#181818;stroke-width:1;" x1="704.7725" x2="972.4331" y1="244.625" y2="244.625"/><text fill="#000000" font-family="sans-serif" font-size="13" font-weight="bold" lengthAdjust="spacing" textLength="7.23" x="716.7725" y="239.7686">4</text><text fill="#000000" font-family="sans-serif" font-size="13" lengthAdjust="spacing" textLength="238.4307" x="728.0024" y="239.7686">Read/write shoesDetail, stockMovements</text></g><g class="message" data-participant-1="DB" data-participant-2="Service"><polygon fill="#181818" points="715.7725,270.9766,705.7725,274.9766,715.7725,278.9766,711.7725,274.9766" style="stroke:#181818;stroke-width:1;"/><line style="stroke:#181818;stroke-width:1;stroke-dasharray:2,2;" x1="709.7725" x2="977.4331" y1="274.9766" y2="274.9766"/><text fill="#000000" font-family="sans-serif" font-size="13" font-weight="bold" lengthAdjust="spacing" textLength="7.23" x="799.1333" y="270.1201">5</text><text fill="#000000" font-family="sans-serif" font-size="13" lengthAdjust="spacing" textLength="73.709" x="810.3633" y="270.1201">Domain data</text></g><g class="message" data-participant-1="Service" data-participant-2="API"><polygon fill="#181818" points="494.8545,301.3281,484.8545,305.3281,494.8545,309.3281,490.8545,305.3281" style="stroke:#181818;stroke-width:1;"/><line style="stroke:#181818;stroke-width:1;stroke-dasharray:2,2;" x1="488.8545" x2="703.7725" y1="305.3281" y2="305.3281"/><text fill="#000000" font-family="sans-serif" font-size="13" font-weight="bold" lengthAdjust="spacing" textLength="7.23" x="570.2744" y="300.4717">6</text><text fill="#000000" font-family="sans-serif" font-size="13" lengthAdjust="spacing" textLength="36.8481" x="581.5044" y="300.4717">Result</text></g><g class="message" data-participant-1="API" data-participant-2="FE"><polygon fill="#181818" points="318.021,331.6797,308.021,335.6797,318.021,339.6797,314.021,335.6797" style="stroke:#181818;stroke-width:1;"/><line style="stroke:#181818;stroke-width:1;stroke-dasharray:2,2;" x1="312.021" x2="482.8545" y1="335.6797" y2="335.6797"/><text fill="#000000" font-family="sans-serif" font-size="13" font-weight="bold" lengthAdjust="spacing" textLength="7.23" x="360.5537" y="330.8232">7</text><text fill="#000000" font-family="sans-serif" font-size="13" lengthAdjust="spacing" textLength="58.5381" x="371.7837" y="330.8232">Response</text></g><g class="message" data-participant-1="FE" data-participant-2="Actor"><polygon fill="#181818" points="89.8413,362.0313,79.8413,366.0313,89.8413,370.0313,85.8413,366.0313" style="stroke:#181818;stroke-width:1;"/><line style="stroke:#181818;stroke-width:1;stroke-dasharray:2,2;" x1="83.8413" x2="306.021" y1="366.0313" y2="366.0313"/><text fill="#000000" font-family="sans-serif" font-size="13" font-weight="bold" lengthAdjust="spacing" textLength="7.23" x="90.8413" y="361.1748">8</text><text fill="#000000" font-family="sans-serif" font-size="13" lengthAdjust="spacing" textLength="192.9497" x="102.0713" y="361.1748">L&#7883;ch s&#7917; stock movements hi&#7875;n th&#7883;</text></g><path d="M5,379.0313 L5,503.0313 L1053,503.0313 L1053,389.0313 L1043,379.0313 L5,379.0313" fill="#FEFFDD" style="stroke:#181818;stroke-width:0.5;"/><path d="M1043,379.0313 L1043,389.0313 L1053,389.0313 L1043,379.0313" fill="#FEFFDD" style="stroke:#181818;stroke-width:0.5;"/><text fill="#000000" font-family="sans-serif" font-size="13" lengthAdjust="spacing" textLength="169.0698" x="301.4788" y="397.5264">Pre: &#272;&#227; c&#243; stock adjustments</text><text fill="#000000" font-family="sans-serif" font-size="13" lengthAdjust="spacing" textLength="226.186" x="301.4788" y="413.8779">Post: L&#7883;ch s&#7917; stock movements hi&#7875;n th&#7883;</text><text fill="#000000" font-family="sans-serif" font-size="13" lengthAdjust="spacing" textLength="58.519" x="301.4788" y="430.2295">Main flow:</text><text fill="#000000" font-family="sans-serif" font-size="13" lengthAdjust="spacing" textLength="204.4834" x="301.4788" y="446.5811">1. Admin v&#224;o tab Stock Movements</text><text fill="#000000" font-family="sans-serif" font-size="13" lengthAdjust="spacing" textLength="325.8569" x="301.4788" y="462.9326">2. System g&#7885;i API GET /inventory/movements/:productId</text><text fill="#000000" font-family="sans-serif" font-size="13" lengthAdjust="spacing" textLength="446.4751" x="301.4788" y="479.2842">3. System tr&#7843; v&#7873;: timestamp, type (IN/OUT/ADJUST), quantity, reason, userId</text><text fill="#000000" font-family="sans-serif" font-size="13" lengthAdjust="spacing" textLength="114.8926" x="301.4788" y="495.6357">4. Hi&#7875;n th&#7883; audit trail</text><!--SRC=[bLF1ZX914BttLrGuQJ8mKJdDmGHsMCM8aWMyDpErqEvCDzjT3N8q7iqcVeB9dZrvaoF-oFo9rSo0H3SctYPLxzLxhwf7UZBQbtEqmjqelP9Mbk2MCZSRfHTmBGk7vnsyzQWp7A5pSe6zGYqqPAY9-QIeG9XTjBjTQCCxXHkOaCbkO6JMM3B62I4pCXPQlRnKkWNIGIyKnDnudKkxRJemr6l66oxCXWVOvK1aHfCr1RHEpOkwKg2jHus73u0cQDSgmmEY-HQv93cN3g4rCdfXqdx2aGsw54cg8W8NR9zS7wXfNuY3LsW_PpS9HvEMwhJYSX2gh9_0Yy4KOdKKZta6I-96S3DW6WS933vWvWaVNbE32eJWxGfb7c-iOlW_R8gq3-rpYTIKadSPmlwUUFHvXSuNLDjg4d5fPJIVEyG9k10tWTVLxdEs15VjljMAK1ubOQcgtISDj6IC4Dgmmv2ufaQyix5b8p-_xEyXstzlw39_xntLdiV6qNz8Z4AWwy9i4l6a0_LRMU-_6k1x_hN5fnsOR1rX2OjgTwT2xZ_FSvA9avKrkSzec8jd9nxPwiSzhAlTnmH8bUX8bgi8QBj2U3Hy4x-TJUDU-cescJwEuDPBpR_0DWABqXaTWNTeULwt0o_FGe3qkIAUpJSKg7C8Q_i5]--></g></svg>