<svg xmlns="http://www.w3.org/2000/svg" xmlns:xlink="http://www.w3.org/1999/xlink" contentStyleType="text/css" data-diagram-type="SEQUENCE" height="702px" preserveAspectRatio="none" style="width:997px;height:702px;background:#FFFFFF;" version="1.1" viewBox="0 0 997 702" width="997px" zoomAndPan="magnify"><title>UC-48 - Approve Return Request</title><defs/><g><text fill="#000000" font-family="sans-serif" font-size="14" font-weight="bold" lengthAdjust="spacing" textLength="217.8066" x="391.2224" y="29.5332">UC-48 - Approve Return Request</text><rect fill="none" height="54.7031" style="stroke:#000000;stroke-width:1.5;" width="574.5063" x="181" y="381.0313"/><g><title>Admin</title><rect fill="#000000" fill-opacity="0.00000" height="498.6797" width="8" x="59.8413" y="121.2188"/><line style="stroke:#181818;stroke-width:0.5;stroke-dasharray:5,5;" x1="63" x2="63" y1="121.2188" y2="619.8984"/></g><g><title>Admin Purchases . Returns UI</title><rect fill="#000000" fill-opacity="0.00000" height="498.6797" width="8" x="259.4438" y="121.2188"/><line style="stroke:#181818;stroke-width:0.5;stroke-dasharray:5,5;" x1="263.2959" x2="263.2959" y1="121.2188" y2="619.8984"/></g><g><title>ReturnsController</title><rect fill="#000000" fill-opacity="0.00000" height="498.6797" width="8" x="442.0537" y="121.2188"/><line style="stroke:#181818;stroke-width:0.5;stroke-dasharray:5,5;" x1="445.1987" x2="445.1987" y1="121.2188" y2="619.8984"/></g><g><title>ReturnsService</title><rect fill="#000000" fill-opacity="0.00000" height="498.6797" width="8" x="670.9507" y="121.2188"/><line style="stroke:#181818;stroke-width:0.5;stroke-dasharray:5,5;" x1="674.0991" x2="674.0991" y1="121.2188" y2="619.8984"/></g><g><title>MongoDB. returnRequests. bills</title><rect fill="#000000" fill-opacity="0.00000" height="498.6797" width="8" x="890.4277" y="121.2188"/><line style="stroke:#181818;stroke-width:0.5;stroke-dasharray:5,5;" x1="893.604" x2="893.604" y1="121.2188" y2="619.8984"/></g><g class="participant participant-head" data-participant="Actor"><text fill="#000000" font-family="sans-serif" font-size="14" lengthAdjust="spacing" textLength="39.6826" x="41" y="118.1426">Admin</text><ellipse cx="63.8413" cy="52.1094" fill="#E2E2F0" rx="8" ry="8" style="stroke:#181818;stroke-width:0.5;"/><path d="M63.8413,60.1094 L63.8413,87.1094 M50.8413,68.1094 L76.8413,68.1094 M63.8413,87.1094 L50.8413,102.1094 M63.8413,87.1094 L76.8413,102.1094" fill="none" style="stroke:#181818;stroke-width:0.5;"/></g><g class="participant participant-tail" data-participant="Actor"><text fill="#000000" font-family="sans-serif" font-size="14" lengthAdjust="spacing" textLength="39.6826" x="41" y="633.4316">Admin</text><ellipse cx="63.8413" cy="645.0078" fill="#E2E2F0" rx="8" ry="8" style="stroke:#181818;stroke-width:0.5;"/><path d="M63.8413,653.0078 L63.8413,680.0078 M50.8413,661.0078 L76.8413,661.0078 M63.8413,680.0078 L50.8413,695.0078 M63.8413,680.0078 L76.8413,695.0078" fill="none" style="stroke:#181818;stroke-width:0.5;"/></g><g class="participant participant-head" data-participant="FE"><text fill="#000000" font-family="sans-serif" font-size="14" lengthAdjust="spacing" textLength="188.2959" x="166.2959" y="118.1426">Admin Purchases / Returns UI</text><path d="M242.9438,75.6094 L242.9438,99.6094 M242.9438,87.6094 L259.9438,87.6094" fill="none" style="stroke:#181818;stroke-width:0.5;"/><ellipse cx="271.9438" cy="87.6094" fill="#E2E2F0" rx="12" ry="12" style="stroke:#181818;stroke-width:0.5;"/></g><g class="participant participant-tail" data-participant="FE"><text fill="#000000" font-family="sans-serif" font-size="14" lengthAdjust="spacing" textLength="188.2959" x="166.2959" y="633.4316">Admin Purchases / Returns UI</text><path d="M242.9438,640.5078 L242.9438,664.5078 M242.9438,652.5078 L259.9438,652.5078" fill="none" style="stroke:#181818;stroke-width:0.5;"/><ellipse cx="271.9438" cy="652.5078" fill="#E2E2F0" rx="12" ry="12" style="stroke:#181818;stroke-width:0.5;"/></g><g class="participant participant-head" data-participant="API"><text fill="#000000" font-family="sans-serif" font-size="14" lengthAdjust="spacing" textLength="109.71" x="388.1987" y="118.1426">ReturnsController</text><ellipse cx="446.0537" cy="87.6094" fill="#E2E2F0" rx="12" ry="12" style="stroke:#181818;stroke-width:0.5;"/><polygon fill="#181818" points="442.0537,75.6094,448.0537,70.6094,446.0537,75.6094,448.0537,80.6094,442.0537,75.6094" style="stroke:#181818;stroke-width:1;"/></g><g class="participant participant-tail" data-participant="API"><text fill="#000000" font-family="sans-serif" font-size="14" lengthAdjust="spacing" textLength="109.71" x="388.1987" y="633.4316">ReturnsController</text><ellipse cx="446.0537" cy="652.5078" fill="#E2E2F0" rx="12" ry="12" style="stroke:#181818;stroke-width:0.5;"/><polygon fill="#181818" points="442.0537,640.5078,448.0537,635.5078,446.0537,640.5078,448.0537,645.5078,442.0537,640.5078" style="stroke:#181818;stroke-width:1;"/></g><g class="participant participant-head" data-participant="Service"><text fill="#000000" font-family="sans-serif" font-size="14" lengthAdjust="spacing" textLength="95.7031" x="624.0991" y="118.1426">ReturnsService</text><ellipse cx="674.9507" cy="87.6094" fill="#E2E2F0" rx="12" ry="12" style="stroke:#181818;stroke-width:0.5;"/><polygon fill="#181818" points="670.9507,75.6094,676.9507,70.6094,674.9507,75.6094,676.9507,80.6094,670.9507,75.6094" style="stroke:#181818;stroke-width:1;"/></g><g class="participant participant-tail" data-participant="Service"><text fill="#000000" font-family="sans-serif" font-size="14" lengthAdjust="spacing" textLength="95.7031" x="624.0991" y="633.4316">ReturnsService</text><ellipse cx="674.9507" cy="652.5078" fill="#E2E2F0" rx="12" ry="12" style="stroke:#181818;stroke-width:0.5;"/><polygon fill="#181818" points="670.9507,640.5078,676.9507,635.5078,674.9507,640.5078,676.9507,645.5078,670.9507,640.5078" style="stroke:#181818;stroke-width:1;"/></g><g class="participant participant-head" data-participant="DB"><text fill="#000000" font-family="sans-serif" font-size="14" lengthAdjust="spacing" textLength="197.6475" x="792.604" y="118.1426">MongoDB: returnRequests, bills</text><path d="M876.4277,67.6094 C876.4277,57.6094 894.4277,57.6094 894.4277,57.6094 C894.4277,57.6094 912.4277,57.6094 912.4277,67.6094 L912.4277,93.6094 C912.4277,103.6094 894.4277,103.6094 894.4277,103.6094 C894.4277,103.6094 876.4277,103.6094 876.4277,93.6094 L876.4277,67.6094" fill="#E2E2F0" style="stroke:#181818;stroke-width:0.5;"/><path d="M876.4277,67.6094 C876.4277,77.6094 894.4277,77.6094 894.4277,77.6094 C894.4277,77.6094 912.4277,77.6094 912.4277,67.6094" fill="none" style="stroke:#181818;stroke-width:0.5;"/></g><g class="participant participant-tail" data-participant="DB"><text fill="#000000" font-family="sans-serif" font-size="14" lengthAdjust="spacing" textLength="197.6475" x="792.604" y="633.4316">MongoDB: returnRequests, bills</text><path d="M876.4277,646.5078 C876.4277,636.5078 894.4277,636.5078 894.4277,636.5078 C894.4277,636.5078 912.4277,636.5078 912.4277,646.5078 L912.4277,672.5078 C912.4277,682.5078 894.4277,682.5078 894.4277,682.5078 C894.4277,682.5078 876.4277,682.5078 876.4277,672.5078 L876.4277,646.5078" fill="#E2E2F0" style="stroke:#181818;stroke-width:0.5;"/><path d="M876.4277,646.5078 C876.4277,656.5078 894.4277,656.5078 894.4277,656.5078 C894.4277,656.5078 912.4277,656.5078 912.4277,646.5078" fill="none" style="stroke:#181818;stroke-width:0.5;"/></g><g class="message" data-participant-1="Actor" data-participant-2="FE"><polygon fill="#181818" points="251.4438,149.5703,261.4438,153.5703,251.4438,157.5703,255.4438,153.5703" style="stroke:#181818;stroke-width:1;"/><line style="stroke:#181818;stroke-width:1;" x1="63.8413" x2="257.4438" y1="153.5703" y2="153.5703"/><text fill="#000000" font-family="sans-serif" font-size="13" font-weight="bold" lengthAdjust="spacing" textLength="7.23" x="123.7122" y="148.7139">1</text><text fill="#000000" font-family="sans-serif" font-size="13" lengthAdjust="spacing" textLength="68.6309" x="134.9421" y="148.7139">Start UC-48</text></g><g class="message" data-participant-1="FE" data-participant-2="API"><polygon fill="#181818" points="434.0537,179.9219,444.0537,183.9219,434.0537,187.9219,438.0537,183.9219" style="stroke:#181818;stroke-width:1;"/><line style="stroke:#181818;stroke-width:1;" x1="263.4438" x2="440.0537" y1="183.9219" y2="183.9219"/><text fill="#000000" font-family="sans-serif" font-size="13" font-weight="bold" lengthAdjust="spacing" textLength="7.23" x="275.4438" y="179.0654">2</text><text fill="#000000" font-family="sans-serif" font-size="13" lengthAdjust="spacing" textLength="147.3799" x="286.6738" y="179.0654">PATCH /returns/:id/status</text></g><g class="message" data-participant-1="API" data-participant-2="Service"><polygon fill="#181818" points="662.9507,210.2734,672.9507,214.2734,662.9507,218.2734,666.9507,214.2734" style="stroke:#181818;stroke-width:1;"/><line style="stroke:#181818;stroke-width:1;" x1="446.0537" x2="668.9507" y1="214.2734" y2="214.2734"/><text fill="#000000" font-family="sans-serif" font-size="13" font-weight="bold" lengthAdjust="spacing" textLength="7.23" x="458.0537" y="209.417">3</text><text fill="#000000" font-family="sans-serif" font-size="13" lengthAdjust="spacing" textLength="193.667" x="469.2837" y="209.417">Execute Approve Return Request</text></g><g class="message" data-participant-1="Service" data-participant-2="DB"><polygon fill="#181818" points="882.4277,240.625,892.4277,244.625,882.4277,248.625,886.4277,244.625" style="stroke:#181818;stroke-width:1;"/><line style="stroke:#181818;stroke-width:1;" x1="674.9507" x2="888.4277" y1="244.625" y2="244.625"/><text fill="#000000" font-family="sans-serif" font-size="13" font-weight="bold" lengthAdjust="spacing" textLength="7.23" x="686.9507" y="239.7686">4</text><text fill="#000000" font-family="sans-serif" font-size="13" lengthAdjust="spacing" textLength="184.2471" x="698.1807" y="239.7686">Read/write returnRequests, bills</text></g><g class="message" data-participant-1="DB" data-participant-2="Service"><polygon fill="#181818" points="685.9507,270.9766,675.9507,274.9766,685.9507,278.9766,681.9507,274.9766" style="stroke:#181818;stroke-width:1;"/><line style="stroke:#181818;stroke-width:1;stroke-dasharray:2,2;" x1="679.9507" x2="893.4277" y1="274.9766" y2="274.9766"/><text fill="#000000" font-family="sans-serif" font-size="13" font-weight="bold" lengthAdjust="spacing" textLength="7.23" x="742.2197" y="270.1201">5</text><text fill="#000000" font-family="sans-serif" font-size="13" lengthAdjust="spacing" textLength="73.709" x="753.4497" y="270.1201">Domain data</text></g><g class="message" data-participant-1="Service" data-participant-2="API"><polygon fill="#181818" points="457.0537,301.3281,447.0537,305.3281,457.0537,309.3281,453.0537,305.3281" style="stroke:#181818;stroke-width:1;"/><line style="stroke:#181818;stroke-width:1;stroke-dasharray:2,2;" x1="451.0537" x2="673.9507" y1="305.3281" y2="305.3281"/><text fill="#000000" font-family="sans-serif" font-size="13" font-weight="bold" lengthAdjust="spacing" textLength="7.23" x="536.4631" y="300.4717">6</text><text fill="#000000" font-family="sans-serif" font-size="13" lengthAdjust="spacing" textLength="36.8481" x="547.6931" y="300.4717">Result</text></g><g class="message" data-participant-1="API" data-participant-2="FE"><polygon fill="#181818" points="274.4438,331.6797,264.4438,335.6797,274.4438,339.6797,270.4438,335.6797" style="stroke:#181818;stroke-width:1;"/><line style="stroke:#181818;stroke-width:1;stroke-dasharray:2,2;" x1="268.4438" x2="445.0537" y1="335.6797" y2="335.6797"/><text fill="#000000" font-family="sans-serif" font-size="13" font-weight="bold" lengthAdjust="spacing" textLength="7.23" x="319.8647" y="330.8232">7</text><text fill="#000000" font-family="sans-serif" font-size="13" lengthAdjust="spacing" textLength="58.5381" x="331.0947" y="330.8232">Response</text></g><g class="message" data-participant-1="FE" data-participant-2="Actor"><polygon fill="#181818" points="74.8413,362.0313,64.8413,366.0313,74.8413,370.0313,70.8413,366.0313" style="stroke:#181818;stroke-width:1;"/><line style="stroke:#181818;stroke-width:1;stroke-dasharray:2,2;" x1="68.8413" x2="262.4438" y1="366.0313" y2="366.0313"/><text fill="#000000" font-family="sans-serif" font-size="13" font-weight="bold" lengthAdjust="spacing" textLength="7.23" x="75.8413" y="361.1748">8</text><text fill="#000000" font-family="sans-serif" font-size="13" lengthAdjust="spacing" textLength="164.3726" x="87.0713" y="361.1748">Return status = APPROVED</text></g><path d="M181,381.0313 L241.1709,381.0313 L241.1709,389.3828 L231.1709,399.3828 L181,399.3828 L181,381.0313" fill="#EEEEEE" style="stroke:#000000;stroke-width:1.5;"/><rect fill="none" height="54.7031" style="stroke:#000000;stroke-width:1.5;" width="574.5063" x="181" y="381.0313"/><text fill="#000000" font-family="sans-serif" font-size="13" font-weight="bold" lengthAdjust="spacing" textLength="15.1709" x="196" y="395.5264">alt</text><text fill="#000000" font-family="sans-serif" font-size="11" font-weight="bold" lengthAdjust="spacing" textLength="149.7461" x="256.1709" y="394.4502">[Alternative / exception flow]</text><path d="M191,404.3828 L191,430.3828 L745,430.3828 L745,414.3828 L735,404.3828 L191,404.3828" fill="#FEFFDD" style="stroke:#181818;stroke-width:0.5;"/><path d="M735,404.3828 L735,414.3828 L745,414.3828 L735,404.3828" fill="#FEFFDD" style="stroke:#181818;stroke-width:0.5;"/><text fill="#000000" font-family="sans-serif" font-size="13" lengthAdjust="spacing" textLength="244.6006" x="341.4529" y="422.8779">Status hi&#7879;n t&#7841;i kh&#244;ng ph&#7843;i PENDING -&gt; l&#7895;i</text><path d="M5,447.7344 L5,604.7344 L955,604.7344 L955,457.7344 L945,447.7344 L5,447.7344" fill="#FEFFDD" style="stroke:#181818;stroke-width:0.5;"/><path d="M945,447.7344 L945,457.7344 L955,457.7344 L945,447.7344" fill="#FEFFDD" style="stroke:#181818;stroke-width:0.5;"/><text fill="#000000" font-family="sans-serif" font-size="13" lengthAdjust="spacing" textLength="259.251" x="246.5896" y="466.2295">Pre: Return request &#273;ang &#7903; status PENDING</text><text fill="#000000" font-family="sans-serif" font-size="13" lengthAdjust="spacing" textLength="197.6089" x="246.5896" y="482.5811">Post: Return status = APPROVED</text><text fill="#000000" font-family="sans-serif" font-size="13" lengthAdjust="spacing" textLength="58.519" x="246.5896" y="498.9326">Main flow:</text><text fill="#000000" font-family="sans-serif" font-size="13" lengthAdjust="spacing" textLength="205.2007" x="246.5896" y="515.2842">1. Admin xem chi ti&#7871;t return request</text><text fill="#000000" font-family="sans-serif" font-size="13" lengthAdjust="spacing" textLength="132.2344" x="246.5896" y="531.6357">2. Admin b&#7845;m Approve</text><text fill="#000000" font-family="sans-serif" font-size="13" lengthAdjust="spacing" textLength="208.1206" x="246.5896" y="547.9873">3. Admin nh&#7853;p adminNote (optional)</text><text fill="#000000" font-family="sans-serif" font-size="13" lengthAdjust="spacing" textLength="458.0723" x="246.5896" y="564.3389">4. System g&#7885;i API PATCH /returns/:id/status { status: APPROVED, adminNote }</text><text fill="#000000" font-family="sans-serif" font-size="13" lengthAdjust="spacing" textLength="227.2588" x="246.5896" y="580.6904">5. System c&#7853;p nh&#7853;t status + adminNote</text><text fill="#000000" font-family="sans-serif" font-size="13" lengthAdjust="spacing" textLength="229.8232" x="246.5896" y="597.042">6. System g&#7917;i email th&#244;ng b&#225;o cho user</text><!--SRC=[VPE_RXD14CRxVOgHAn1sB20WT198Jkn02eUJJUZtxYRsAklTOtSkSOHIKr5GKQ88KQQZiWkAy2Bt9ipU7ziIXEhkTcQ- -NqpUx8WQuf5WaxuSsLowUG2_5nczbAP6Pn9xN4tWXyAD2cEqNivmu5MCmCf6k9wKgGHJWzx-o-W1uCyT_O2OO9KECCFBlGaX4p9EkWCieKo7P0U1k509BOmcNHNJGJYmgLpwT53lv7mS7fS5HoDH6eDEQkXquGEws-DhfQCZ_zAcQAxK2bMyUPTP99amasWCxPcPeS74RWgkw7rNKYKrhug6Xu8KR52xnKpH30bwQZsAuv6uPJxHX0FtXs-WNujvFkHolgU91LUS3XaDTqZ62qnBGZl6rMJ5qe2sGHbrhzqYWl-2Ic61z3RbH_QXUH91fDRhPPoWhxGL2CrVlWejuRN7So4l60sQgbg3_2Io-F9s_UZ8QzI4mmqhzv8KipV1rocc9Eo1iwqlHG0nZ8kUtFSeRiXczPQSrMkFncWSdMZu7n-zvClN3ulLzyLnAEJuV79w-1Tb-klIg39XDYgLMnTNadiS8Fewe70xo-IbShrjnQwKHEnzVGVG-CmhW0UYSTxKD_39IuWdIiWLQv-KJFvjfDuqgObvUh7ebsaUDeU6tPpcuCC7oS1_e6jnYFrGx6_1zChJwm_AzUVLLZB_NS7FZQyqGQtkoDxBPvjrDAgPTMPMfEFjhdY-MxVMmN8jqG3rUDFxcui-xLGUFwZUUZL1ly0]--></g></svg>