<svg xmlns="http://www.w3.org/2000/svg" xmlns:xlink="http://www.w3.org/1999/xlink" contentStyleType="text/css" data-diagram-type="SEQUENCE" height="616px" preserveAspectRatio="none" style="width:1010px;height:616px;background:#FFFFFF;" version="1.1" viewBox="0 0 1010 616" width="1010px" zoomAndPan="magnify"><title>UC-50 - Process Return Request</title><defs/><g><text fill="#000000" font-family="sans-serif" font-size="14" font-weight="bold" lengthAdjust="spacing" textLength="215.5029" x="398.8647" y="29.5332">UC-50 - Process Return Request</text><g><title>Admin</title><rect fill="#000000" fill-opacity="0.00000" height="413.625" width="8" x="59.8413" y="121.2188"/><line style="stroke:#181818;stroke-width:0.5;stroke-dasharray:5,5;" x1="63" x2="63" y1="121.2188" y2="534.8438"/></g><g><title>Admin Purchases . Returns UI</title><rect fill="#000000" fill-opacity="0.00000" height="413.625" width="8" x="273.8848" y="121.2188"/><line style="stroke:#181818;stroke-width:0.5;stroke-dasharray:5,5;" x1="277.7368" x2="277.7368" y1="121.2188" y2="534.8438"/></g><g><title>ReturnsController</title><rect fill="#000000" fill-opacity="0.00000" height="413.625" width="8" x="456.4946" y="121.2188"/><line style="stroke:#181818;stroke-width:0.5;stroke-dasharray:5,5;" x1="459.6396" x2="459.6396" y1="121.2188" y2="534.8438"/></g><g><title>ReturnsService</title><rect fill="#000000" fill-opacity="0.00000" height="413.625" width="8" x="683.9316" y="121.2188"/><line style="stroke:#181818;stroke-width:0.5;stroke-dasharray:5,5;" x1="687.0801" x2="687.0801" y1="121.2188" y2="534.8438"/></g><g><title>MongoDB. returnRequests. bills</title><rect fill="#000000" fill-opacity="0.00000" height="413.625" width="8" x="903.4087" y="121.2188"/><line style="stroke:#181818;stroke-width:0.5;stroke-dasharray:5,5;" x1="906.585" x2="906.585" y1="121.2188" y2="534.8438"/></g><g class="participant participant-head" data-participant="Actor"><text fill="#000000" font-family="sans-serif" font-size="14" lengthAdjust="spacing" textLength="39.6826" x="41" y="118.1426">Admin</text><ellipse cx="63.8413" cy="52.1094" fill="#E2E2F0" rx="8" ry="8" style="stroke:#181818;stroke-width:0.5;"/><path d="M63.8413,60.1094 L63.8413,87.1094 M50.8413,68.1094 L76.8413,68.1094 M63.8413,87.1094 L50.8413,102.1094 M63.8413,87.1094 L76.8413,102.1094" fill="none" style="stroke:#181818;stroke-width:0.5;"/></g><g class="participant participant-tail" data-participant="Actor"><text fill="#000000" font-family="sans-serif" font-size="14" lengthAdjust="spacing" textLength="39.6826" x="41" y="548.377">Admin</text><ellipse cx="63.8413" cy="559.9531" fill="#E2E2F0" rx="8" ry="8" style="stroke:#181818;stroke-width:0.5;"/><path d="M63.8413,567.9531 L63.8413,594.9531 M50.8413,575.9531 L76.8413,575.9531 M63.8413,594.9531 L50.8413,609.9531 M63.8413,594.9531 L76.8413,609.9531" fill="none" style="stroke:#181818;stroke-width:0.5;"/></g><g class="participant participant-head" data-participant="FE"><text fill="#000000" font-family="sans-serif" font-size="14" lengthAdjust="spacing" textLength="188.2959" x="180.7368" y="118.1426">Admin Purchases / Returns UI</text><path d="M257.3848,75.6094 L257.3848,99.6094 M257.3848,87.6094 L274.3848,87.6094" fill="none" style="stroke:#181818;stroke-width:0.5;"/><ellipse cx="286.3848" cy="87.6094" fill="#E2E2F0" rx="12" ry="12" style="stroke:#181818;stroke-width:0.5;"/></g><g class="participant participant-tail" data-participant="FE"><text fill="#000000" font-family="sans-serif" font-size="14" lengthAdjust="spacing" textLength="188.2959" x="180.7368" y="548.377">Admin Purchases / Returns UI</text><path d="M257.3848,555.4531 L257.3848,579.4531 M257.3848,567.4531 L274.3848,567.4531" fill="none" style="stroke:#181818;stroke-width:0.5;"/><ellipse cx="286.3848" cy="567.4531" fill="#E2E2F0" rx="12" ry="12" style="stroke:#181818;stroke-width:0.5;"/></g><g class="participant participant-head" data-participant="API"><text fill="#000000" font-family="sans-serif" font-size="14" lengthAdjust="spacing" textLength="109.71" x="402.6396" y="118.1426">ReturnsController</text><ellipse cx="460.4946" cy="87.6094" fill="#E2E2F0" rx="12" ry="12" style="stroke:#181818;stroke-width:0.5;"/><polygon fill="#181818" points="456.4946,75.6094,462.4946,70.6094,460.4946,75.6094,462.4946,80.6094,456.4946,75.6094" style="stroke:#181818;stroke-width:1;"/></g><g class="participant participant-tail" data-participant="API"><text fill="#000000" font-family="sans-serif" font-size="14" lengthAdjust="spacing" textLength="109.71" x="402.6396" y="548.377">ReturnsController</text><ellipse cx="460.4946" cy="567.4531" fill="#E2E2F0" rx="12" ry="12" style="stroke:#181818;stroke-width:0.5;"/><polygon fill="#181818" points="456.4946,555.4531,462.4946,550.4531,460.4946,555.4531,462.4946,560.4531,456.4946,555.4531" style="stroke:#181818;stroke-width:1;"/></g><g class="participant participant-head" data-participant="Service"><text fill="#000000" font-family="sans-serif" font-size="14" lengthAdjust="spacing" textLength="95.7031" x="637.0801" y="118.1426">ReturnsService</text><ellipse cx="687.9316" cy="87.6094" fill="#E2E2F0" rx="12" ry="12" style="stroke:#181818;stroke-width:0.5;"/><polygon fill="#181818" points="683.9316,75.6094,689.9316,70.6094,687.9316,75.6094,689.9316,80.6094,683.9316,75.6094" style="stroke:#181818;stroke-width:1;"/></g><g class="participant participant-tail" data-participant="Service"><text fill="#000000" font-family="sans-serif" font-size="14" lengthAdjust="spacing" textLength="95.7031" x="637.0801" y="548.377">ReturnsService</text><ellipse cx="687.9316" cy="567.4531" fill="#E2E2F0" rx="12" ry="12" style="stroke:#181818;stroke-width:0.5;"/><polygon fill="#181818" points="683.9316,555.4531,689.9316,550.4531,687.9316,555.4531,689.9316,560.4531,683.9316,555.4531" style="stroke:#181818;stroke-width:1;"/></g><g class="participant participant-head" data-participant="DB"><text fill="#000000" font-family="sans-serif" font-size="14" lengthAdjust="spacing" textLength="197.6475" x="805.585" y="118.1426">MongoDB: returnRequests, bills</text><path d="M889.4087,67.6094 C889.4087,57.6094 907.4087,57.6094 907.4087,57.6094 C907.4087,57.6094 925.4087,57.6094 925.4087,67.6094 L925.4087,93.6094 C925.4087,103.6094 907.4087,103.6094 907.4087,103.6094 C907.4087,103.6094 889.4087,103.6094 889.4087,93.6094 L889.4087,67.6094" fill="#E2E2F0" style="stroke:#181818;stroke-width:0.5;"/><path d="M889.4087,67.6094 C889.4087,77.6094 907.4087,77.6094 907.4087,77.6094 C907.4087,77.6094 925.4087,77.6094 925.4087,67.6094" fill="none" style="stroke:#181818;stroke-width:0.5;"/></g><g class="participant participant-tail" data-participant="DB"><text fill="#000000" font-family="sans-serif" font-size="14" lengthAdjust="spacing" textLength="197.6475" x="805.585" y="548.377">MongoDB: returnRequests, bills</text><path d="M889.4087,561.4531 C889.4087,551.4531 907.4087,551.4531 907.4087,551.4531 C907.4087,551.4531 925.4087,551.4531 925.4087,561.4531 L925.4087,587.4531 C925.4087,597.4531 907.4087,597.4531 907.4087,597.4531 C907.4087,597.4531 889.4087,597.4531 889.4087,587.4531 L889.4087,561.4531" fill="#E2E2F0" style="stroke:#181818;stroke-width:0.5;"/><path d="M889.4087,561.4531 C889.4087,571.4531 907.4087,571.4531 907.4087,571.4531 C907.4087,571.4531 925.4087,571.4531 925.4087,561.4531" fill="none" style="stroke:#181818;stroke-width:0.5;"/></g><g class="message" data-participant-1="Actor" data-participant-2="FE"><polygon fill="#181818" points="265.8848,149.5703,275.8848,153.5703,265.8848,157.5703,269.8848,153.5703" style="stroke:#181818;stroke-width:1;"/><line style="stroke:#181818;stroke-width:1;" x1="63.8413" x2="271.8848" y1="153.5703" y2="153.5703"/><text fill="#000000" font-family="sans-serif" font-size="13" font-weight="bold" lengthAdjust="spacing" textLength="7.23" x="130.9326" y="148.7139">1</text><text fill="#000000" font-family="sans-serif" font-size="13" lengthAdjust="spacing" textLength="68.6309" x="142.1626" y="148.7139">Start UC-50</text></g><g class="message" data-participant-1="FE" data-participant-2="API"><polygon fill="#181818" points="448.4946,179.9219,458.4946,183.9219,448.4946,187.9219,452.4946,183.9219" style="stroke:#181818;stroke-width:1;"/><line style="stroke:#181818;stroke-width:1;" x1="277.8848" x2="454.4946" y1="183.9219" y2="183.9219"/><text fill="#000000" font-family="sans-serif" font-size="13" font-weight="bold" lengthAdjust="spacing" textLength="7.23" x="289.8848" y="179.0654">2</text><text fill="#000000" font-family="sans-serif" font-size="13" lengthAdjust="spacing" textLength="147.3799" x="301.1147" y="179.0654">PATCH /returns/:id/status</text></g><g class="message" data-participant-1="API" data-participant-2="Service"><polygon fill="#181818" points="675.9316,210.2734,685.9316,214.2734,675.9316,218.2734,679.9316,214.2734" style="stroke:#181818;stroke-width:1;"/><line style="stroke:#181818;stroke-width:1;" x1="460.4946" x2="681.9316" y1="214.2734" y2="214.2734"/><text fill="#000000" font-family="sans-serif" font-size="13" font-weight="bold" lengthAdjust="spacing" textLength="7.23" x="472.4946" y="209.417">3</text><text fill="#000000" font-family="sans-serif" font-size="13" lengthAdjust="spacing" textLength="192.207" x="483.7246" y="209.417">Execute Process Return Request</text></g><g class="message" data-participant-1="Service" data-participant-2="DB"><polygon fill="#181818" points="895.4087,240.625,905.4087,244.625,895.4087,248.625,899.4087,244.625" style="stroke:#181818;stroke-width:1;"/><line style="stroke:#181818;stroke-width:1;" x1="687.9316" x2="901.4087" y1="244.625" y2="244.625"/><text fill="#000000" font-family="sans-serif" font-size="13" font-weight="bold" lengthAdjust="spacing" textLength="7.23" x="699.9316" y="239.7686">4</text><text fill="#000000" font-family="sans-serif" font-size="13" lengthAdjust="spacing" textLength="184.2471" x="711.1616" y="239.7686">Read/write returnRequests, bills</text></g><g class="message" data-participant-1="DB" data-participant-2="Service"><polygon fill="#181818" points="698.9316,270.9766,688.9316,274.9766,698.9316,278.9766,694.9316,274.9766" style="stroke:#181818;stroke-width:1;"/><line style="stroke:#181818;stroke-width:1;stroke-dasharray:2,2;" x1="692.9316" x2="906.4087" y1="274.9766" y2="274.9766"/><text fill="#000000" font-family="sans-serif" font-size="13" font-weight="bold" lengthAdjust="spacing" textLength="7.23" x="755.2007" y="270.1201">5</text><text fill="#000000" font-family="sans-serif" font-size="13" lengthAdjust="spacing" textLength="73.709" x="766.4307" y="270.1201">Domain data</text></g><g class="message" data-participant-1="Service" data-participant-2="API"><polygon fill="#181818" points="471.4946,301.3281,461.4946,305.3281,471.4946,309.3281,467.4946,305.3281" style="stroke:#181818;stroke-width:1;"/><line style="stroke:#181818;stroke-width:1;stroke-dasharray:2,2;" x1="465.4946" x2="686.9316" y1="305.3281" y2="305.3281"/><text fill="#000000" font-family="sans-serif" font-size="13" font-weight="bold" lengthAdjust="spacing" textLength="7.23" x="550.1741" y="300.4717">6</text><text fill="#000000" font-family="sans-serif" font-size="13" lengthAdjust="spacing" textLength="36.8481" x="561.4041" y="300.4717">Result</text></g><g class="message" data-participant-1="API" data-participant-2="FE"><polygon fill="#181818" points="288.8848,331.6797,278.8848,335.6797,288.8848,339.6797,284.8848,335.6797" style="stroke:#181818;stroke-width:1;"/><line style="stroke:#181818;stroke-width:1;stroke-dasharray:2,2;" x1="282.8848" x2="459.4946" y1="335.6797" y2="335.6797"/><text fill="#000000" font-family="sans-serif" font-size="13" font-weight="bold" lengthAdjust="spacing" textLength="7.23" x="334.3057" y="330.8232">7</text><text fill="#000000" font-family="sans-serif" font-size="13" lengthAdjust="spacing" textLength="58.5381" x="345.5356" y="330.8232">Response</text></g><g class="message" data-participant-1="FE" data-participant-2="Actor"><polygon fill="#181818" points="74.8413,362.0313,64.8413,366.0313,74.8413,370.0313,70.8413,366.0313" style="stroke:#181818;stroke-width:1;"/><line style="stroke:#181818;stroke-width:1;stroke-dasharray:2,2;" x1="68.8413" x2="276.8848" y1="366.0313" y2="366.0313"/><text fill="#000000" font-family="sans-serif" font-size="13" font-weight="bold" lengthAdjust="spacing" textLength="7.23" x="75.8413" y="361.1748">8</text><text fill="#000000" font-family="sans-serif" font-size="13" lengthAdjust="spacing" textLength="178.8135" x="87.0713" y="361.1748">Return status = PROCESSING</text></g><path d="M5,379.0313 L5,519.0313 L968,519.0313 L968,389.0313 L958,379.0313 L5,379.0313" fill="#FEFFDD" style="stroke:#181818;stroke-width:0.5;"/><path d="M958,379.0313 L958,389.0313 L968,389.0313 L958,379.0313" fill="#FEFFDD" style="stroke:#181818;stroke-width:0.5;"/><text fill="#000000" font-family="sans-serif" font-size="13" lengthAdjust="spacing" textLength="191.8262" x="280.905" y="397.5264">Pre: Return status = APPROVED</text><text fill="#000000" font-family="sans-serif" font-size="13" lengthAdjust="spacing" textLength="212.0498" x="280.905" y="413.8779">Post: Return status = PROCESSING</text><text fill="#000000" font-family="sans-serif" font-size="13" lengthAdjust="spacing" textLength="58.519" x="280.905" y="430.2295">Main flow:</text><text fill="#000000" font-family="sans-serif" font-size="13" lengthAdjust="spacing" textLength="234.8252" x="280.905" y="446.5811">1. Admin ch&#7885;n return status APPROVED</text><text fill="#000000" font-family="sans-serif" font-size="13" lengthAdjust="spacing" textLength="130.7744" x="280.905" y="462.9326">2. Admin b&#7845;m Process</text><text fill="#000000" font-family="sans-serif" font-size="13" lengthAdjust="spacing" textLength="402.4224" x="280.905" y="479.2842">3. System g&#7885;i API PATCH /returns/:id/status { status: PROCESSING }</text><text fill="#000000" font-family="sans-serif" font-size="13" lengthAdjust="spacing" textLength="149.5762" x="280.905" y="495.6357">4. System c&#7853;p nh&#7853;t status</text><text fill="#000000" font-family="sans-serif" font-size="13" lengthAdjust="spacing" textLength="292.6206" x="280.905" y="511.9873">5. C&#243; th&#7875; ho&#224;n stock n&#7871;u l&#224; RETURN/EXCHANGE</text><!--SRC=[VL8zRzim4DtvAmwUOwjVMGGqW2mfYGUxWXGNNIdg8WcHI9UauWP5fyxz3raoTkhc31tyI_nFIafKQY1D9r9txxrxxoZQQS6xDaT9r4tDDrJI5bH52x6jUGdNj55utC7F7NA6IrIAbXWqTSc18TU6hslT8Ap3wUahc48Y1JCWI55tafl349KcX38j94o2egtv1AY2m1P8BZfUK7ddEf1qabLKeGBFIIXOBth2UKoOu5gA1YQk5GxV3Sf1CbayWsGeRsk6VT_TIK4rpSqGc2m5BqKqzq7sQETMdK1UDutgIT6SaDuhJC-C1nyoJQKUyfBps5RDN1-Iu2gy16yGKfvV5vxIL7UAcBP5kUa-n5-GTHfVMfN3MOfrbY8jlAsi3U6V9aaqX-cnV2HQQZPfG_xL6bscgBf63vPS7bFQ26wUsuQnE1lM7rqD6U0z9Ec7CCwonUg242wC6t6BSW2Vc1qb4fzpWiImFiOHIOJI_vLSMilNZTZwvFKCXd-1LOV77zob7bbFacz6M7xOFRJZCidR6MHtIcCBfM7NDlNBJmDVdQn_v0M-aNTF8kom-xa1Nfb3EomvdK6u_mNQsFiEbTZVMtE2tG0_x7vtqEpl8OslrkdAYp-5by7g8YR82x1B-mC0]--></g></svg>