<svg xmlns="http://www.w3.org/2000/svg" xmlns:xlink="http://www.w3.org/1999/xlink" contentStyleType="text/css" data-diagram-type="SEQUENCE" height="584px" preserveAspectRatio="none" style="width:765px;height:584px;background:#FFFFFF;" version="1.1" viewBox="0 0 765 584" width="765px" zoomAndPan="magnify"><title>UC-57 - View Users List</title><defs/><g><text fill="#000000" font-family="sans-serif" font-size="14" font-weight="bold" lengthAdjust="spacing" textLength="156.3857" x="306.2029" y="29.5332">UC-57 - View Users List</text><g><title>Admin</title><rect fill="#000000" fill-opacity="0.00000" height="380.9219" width="8" x="44.8413" y="121.2188"/><line style="stroke:#181818;stroke-width:0.5;stroke-dasharray:5,5;" x1="48" x2="48" y1="121.2188" y2="502.1406"/></g><g><title>Admin Users UI</title><rect fill="#000000" fill-opacity="0.00000" height="380.9219" width="8" x="223.1538" y="121.2188"/><line style="stroke:#181818;stroke-width:0.5;stroke-dasharray:5,5;" x1="227.1436" x2="227.1436" y1="121.2188" y2="502.1406"/></g><g><title>AuthController</title><rect fill="#000000" fill-opacity="0.00000" height="380.9219" width="8" x="353.0337" y="121.2188"/><line style="stroke:#181818;stroke-width:0.5;stroke-dasharray:5,5;" x1="356.2891" x2="356.2891" y1="121.2188" y2="502.1406"/></g><g><title>UsersService</title><rect fill="#000000" fill-opacity="0.00000" height="380.9219" width="8" x="528.4263" y="121.2188"/><line style="stroke:#181818;stroke-width:0.5;stroke-dasharray:5,5;" x1="531.8057" x2="531.8057" y1="121.2188" y2="502.1406"/></g><g><title>MongoDB. users. role</title><rect fill="#000000" fill-opacity="0.00000" height="380.9219" width="8" x="690.0952" y="121.2188"/><line style="stroke:#181818;stroke-width:0.5;stroke-dasharray:5,5;" x1="693.3989" x2="693.3989" y1="121.2188" y2="502.1406"/></g><g class="participant participant-head" data-participant="Actor"><text fill="#000000" font-family="sans-serif" font-size="14" lengthAdjust="spacing" textLength="39.6826" x="26" y="118.1426">Admin</text><ellipse cx="48.8413" cy="52.1094" fill="#E2E2F0" rx="8" ry="8" style="stroke:#181818;stroke-width:0.5;"/><path d="M48.8413,60.1094 L48.8413,87.1094 M35.8413,68.1094 L61.8413,68.1094 M48.8413,87.1094 L35.8413,102.1094 M48.8413,87.1094 L61.8413,102.1094" fill="none" style="stroke:#181818;stroke-width:0.5;"/></g><g class="participant participant-tail" data-participant="Actor"><text fill="#000000" font-family="sans-serif" font-size="14" lengthAdjust="spacing" textLength="39.6826" x="26" y="515.6738">Admin</text><ellipse cx="48.8413" cy="527.25" fill="#E2E2F0" rx="8" ry="8" style="stroke:#181818;stroke-width:0.5;"/><path d="M48.8413,535.25 L48.8413,562.25 M35.8413,543.25 L61.8413,543.25 M48.8413,562.25 L35.8413,577.25 M48.8413,562.25 L61.8413,577.25" fill="none" style="stroke:#181818;stroke-width:0.5;"/></g><g class="participant participant-head" data-participant="FE"><text fill="#000000" font-family="sans-serif" font-size="14" lengthAdjust="spacing" textLength="98.0205" x="175.1436" y="118.1426">Admin Users UI</text><path d="M206.6538,75.6094 L206.6538,99.6094 M206.6538,87.6094 L223.6538,87.6094" fill="none" style="stroke:#181818;stroke-width:0.5;"/><ellipse cx="235.6538" cy="87.6094" fill="#E2E2F0" rx="12" ry="12" style="stroke:#181818;stroke-width:0.5;"/></g><g class="participant participant-tail" data-participant="FE"><text fill="#000000" font-family="sans-serif" font-size="14" lengthAdjust="spacing" textLength="98.0205" x="175.1436" y="515.6738">Admin Users UI</text><path d="M206.6538,522.75 L206.6538,546.75 M206.6538,534.75 L223.6538,534.75" fill="none" style="stroke:#181818;stroke-width:0.5;"/><ellipse cx="235.6538" cy="534.75" fill="#E2E2F0" rx="12" ry="12" style="stroke:#181818;stroke-width:0.5;"/></g><g class="participant participant-head" data-participant="API"><text fill="#000000" font-family="sans-serif" font-size="14" lengthAdjust="spacing" textLength="89.4893" x="309.2891" y="118.1426">AuthController</text><ellipse cx="357.0337" cy="87.6094" fill="#E2E2F0" rx="12" ry="12" style="stroke:#181818;stroke-width:0.5;"/><polygon fill="#181818" points="353.0337,75.6094,359.0337,70.6094,357.0337,75.6094,359.0337,80.6094,353.0337,75.6094" style="stroke:#181818;stroke-width:1;"/></g><g class="participant participant-tail" data-participant="API"><text fill="#000000" font-family="sans-serif" font-size="14" lengthAdjust="spacing" textLength="89.4893" x="309.2891" y="515.6738">AuthController</text><ellipse cx="357.0337" cy="534.75" fill="#E2E2F0" rx="12" ry="12" style="stroke:#181818;stroke-width:0.5;"/><polygon fill="#181818" points="353.0337,522.75,359.0337,517.75,357.0337,522.75,359.0337,527.75,353.0337,522.75" style="stroke:#181818;stroke-width:1;"/></g><g class="participant participant-head" data-participant="Service"><text fill="#000000" font-family="sans-serif" font-size="14" lengthAdjust="spacing" textLength="83.2412" x="487.8057" y="118.1426">UsersService</text><ellipse cx="532.4263" cy="87.6094" fill="#E2E2F0" rx="12" ry="12" style="stroke:#181818;stroke-width:0.5;"/><polygon fill="#181818" points="528.4263,75.6094,534.4263,70.6094,532.4263,75.6094,534.4263,80.6094,528.4263,75.6094" style="stroke:#181818;stroke-width:1;"/></g><g class="participant participant-tail" data-participant="Service"><text fill="#000000" font-family="sans-serif" font-size="14" lengthAdjust="spacing" textLength="83.2412" x="487.8057" y="515.6738">UsersService</text><ellipse cx="532.4263" cy="534.75" fill="#E2E2F0" rx="12" ry="12" style="stroke:#181818;stroke-width:0.5;"/><polygon fill="#181818" points="528.4263,522.75,534.4263,517.75,532.4263,522.75,534.4263,527.75,528.4263,522.75" style="stroke:#181818;stroke-width:1;"/></g><g class="participant participant-head" data-participant="DB"><text fill="#000000" font-family="sans-serif" font-size="14" lengthAdjust="spacing" textLength="135.3926" x="623.3989" y="118.1426">MongoDB: users, role</text><path d="M676.0952,67.6094 C676.0952,57.6094 694.0952,57.6094 694.0952,57.6094 C694.0952,57.6094 712.0952,57.6094 712.0952,67.6094 L712.0952,93.6094 C712.0952,103.6094 694.0952,103.6094 694.0952,103.6094 C694.0952,103.6094 676.0952,103.6094 676.0952,93.6094 L676.0952,67.6094" fill="#E2E2F0" style="stroke:#181818;stroke-width:0.5;"/><path d="M676.0952,67.6094 C676.0952,77.6094 694.0952,77.6094 694.0952,77.6094 C694.0952,77.6094 712.0952,77.6094 712.0952,67.6094" fill="none" style="stroke:#181818;stroke-width:0.5;"/></g><g class="participant participant-tail" data-participant="DB"><text fill="#000000" font-family="sans-serif" font-size="14" lengthAdjust="spacing" textLength="135.3926" x="623.3989" y="515.6738">MongoDB: users, role</text><path d="M676.0952,528.75 C676.0952,518.75 694.0952,518.75 694.0952,518.75 C694.0952,518.75 712.0952,518.75 712.0952,528.75 L712.0952,554.75 C712.0952,564.75 694.0952,564.75 694.0952,564.75 C694.0952,564.75 676.0952,564.75 676.0952,554.75 L676.0952,528.75" fill="#E2E2F0" style="stroke:#181818;stroke-width:0.5;"/><path d="M676.0952,528.75 C676.0952,538.75 694.0952,538.75 694.0952,538.75 C694.0952,538.75 712.0952,538.75 712.0952,528.75" fill="none" style="stroke:#181818;stroke-width:0.5;"/></g><g class="message" data-participant-1="Actor" data-participant-2="FE"><polygon fill="#181818" points="215.1538,149.5703,225.1538,153.5703,215.1538,157.5703,219.1538,153.5703" style="stroke:#181818;stroke-width:1;"/><line style="stroke:#181818;stroke-width:1;" x1="48.8413" x2="221.1538" y1="153.5703" y2="153.5703"/><text fill="#000000" font-family="sans-serif" font-size="13" font-weight="bold" lengthAdjust="spacing" textLength="7.23" x="98.0671" y="148.7139">1</text><text fill="#000000" font-family="sans-serif" font-size="13" lengthAdjust="spacing" textLength="68.6309" x="109.2971" y="148.7139">Start UC-57</text></g><g class="message" data-participant-1="FE" data-participant-2="API"><polygon fill="#181818" points="345.0337,179.9219,355.0337,183.9219,345.0337,187.9219,349.0337,183.9219" style="stroke:#181818;stroke-width:1;"/><line style="stroke:#181818;stroke-width:1;" x1="227.1538" x2="351.0337" y1="183.9219" y2="183.9219"/><text fill="#000000" font-family="sans-serif" font-size="13" font-weight="bold" lengthAdjust="spacing" textLength="7.23" x="239.1538" y="179.0654">2</text><text fill="#000000" font-family="sans-serif" font-size="13" lengthAdjust="spacing" textLength="94.6499" x="250.3838" y="179.0654">GET /auth/users</text></g><g class="message" data-participant-1="API" data-participant-2="Service"><polygon fill="#181818" points="520.4263,210.2734,530.4263,214.2734,520.4263,218.2734,524.4263,214.2734" style="stroke:#181818;stroke-width:1;"/><line style="stroke:#181818;stroke-width:1;" x1="357.0337" x2="526.4263" y1="214.2734" y2="214.2734"/><text fill="#000000" font-family="sans-serif" font-size="13" font-weight="bold" lengthAdjust="spacing" textLength="7.23" x="369.0337" y="209.417">3</text><text fill="#000000" font-family="sans-serif" font-size="13" lengthAdjust="spacing" textLength="140.1626" x="380.2637" y="209.417">Execute View Users List</text></g><g class="message" data-participant-1="Service" data-participant-2="DB"><polygon fill="#181818" points="682.0952,240.625,692.0952,244.625,682.0952,248.625,686.0952,244.625" style="stroke:#181818;stroke-width:1;"/><line style="stroke:#181818;stroke-width:1;" x1="532.4263" x2="688.0952" y1="244.625" y2="244.625"/><text fill="#000000" font-family="sans-serif" font-size="13" font-weight="bold" lengthAdjust="spacing" textLength="7.23" x="544.4263" y="239.7686">4</text><text fill="#000000" font-family="sans-serif" font-size="13" lengthAdjust="spacing" textLength="126.439" x="555.6563" y="239.7686">Read/write users, role</text></g><g class="message" data-participant-1="DB" data-participant-2="Service"><polygon fill="#181818" points="543.4263,270.9766,533.4263,274.9766,543.4263,278.9766,539.4263,274.9766" style="stroke:#181818;stroke-width:1;"/><line style="stroke:#181818;stroke-width:1;stroke-dasharray:2,2;" x1="537.4263" x2="693.0952" y1="274.9766" y2="274.9766"/><text fill="#000000" font-family="sans-serif" font-size="13" font-weight="bold" lengthAdjust="spacing" textLength="7.23" x="570.7913" y="270.1201">5</text><text fill="#000000" font-family="sans-serif" font-size="13" lengthAdjust="spacing" textLength="73.709" x="582.0212" y="270.1201">Domain data</text></g><g class="message" data-participant-1="Service" data-participant-2="API"><polygon fill="#181818" points="368.0337,301.3281,358.0337,305.3281,368.0337,309.3281,364.0337,305.3281" style="stroke:#181818;stroke-width:1;"/><line style="stroke:#181818;stroke-width:1;stroke-dasharray:2,2;" x1="362.0337" x2="531.4263" y1="305.3281" y2="305.3281"/><text fill="#000000" font-family="sans-serif" font-size="13" font-weight="bold" lengthAdjust="spacing" textLength="7.23" x="420.6909" y="300.4717">6</text><text fill="#000000" font-family="sans-serif" font-size="13" lengthAdjust="spacing" textLength="36.8481" x="431.9209" y="300.4717">Result</text></g><g class="message" data-participant-1="API" data-participant-2="FE"><polygon fill="#181818" points="238.1538,331.6797,228.1538,335.6797,238.1538,339.6797,234.1538,335.6797" style="stroke:#181818;stroke-width:1;"/><line style="stroke:#181818;stroke-width:1;stroke-dasharray:2,2;" x1="232.1538" x2="356.0337" y1="335.6797" y2="335.6797"/><text fill="#000000" font-family="sans-serif" font-size="13" font-weight="bold" lengthAdjust="spacing" textLength="7.23" x="257.2097" y="330.8232">7</text><text fill="#000000" font-family="sans-serif" font-size="13" lengthAdjust="spacing" textLength="58.5381" x="268.4397" y="330.8232">Response</text></g><g class="message" data-participant-1="FE" data-participant-2="Actor"><polygon fill="#181818" points="59.8413,362.0313,49.8413,366.0313,59.8413,370.0313,55.8413,366.0313" style="stroke:#181818;stroke-width:1;"/><line style="stroke:#181818;stroke-width:1;stroke-dasharray:2,2;" x1="53.8413" x2="226.1538" y1="366.0313" y2="366.0313"/><text fill="#000000" font-family="sans-serif" font-size="13" font-weight="bold" lengthAdjust="spacing" textLength="7.23" x="60.8413" y="361.1748">8</text><text fill="#000000" font-family="sans-serif" font-size="13" lengthAdjust="spacing" textLength="143.0825" x="72.0713" y="361.1748">Danh s&#225;ch users hi&#7875;n th&#7883;</text></g><path d="M5,379.0313 L5,487.0313 L738,487.0313 L738,389.0313 L728,379.0313 L5,379.0313" fill="#FEFFDD" style="stroke:#181818;stroke-width:0.5;"/><path d="M728,379.0313 L728,389.0313 L738,389.0313 L728,379.0313" fill="#FEFFDD" style="stroke:#181818;stroke-width:0.5;"/><text fill="#000000" font-family="sans-serif" font-size="13" lengthAdjust="spacing" textLength="194.9683" x="167.6255" y="397.5264">Pre: &#272;&#227; &#273;&#259;ng nh&#7853;p v&#7899;i role admin</text><text fill="#000000" font-family="sans-serif" font-size="13" lengthAdjust="spacing" textLength="176.3188" x="167.6255" y="413.8779">Post: Danh s&#225;ch users hi&#7875;n th&#7883;</text><text fill="#000000" font-family="sans-serif" font-size="13" lengthAdjust="spacing" textLength="58.519" x="167.6255" y="430.2295">Main flow:</text><text fill="#000000" font-family="sans-serif" font-size="13" lengthAdjust="spacing" textLength="153.9053" x="167.6255" y="446.5811">1. Admin v&#224;o /admin/users</text><text fill="#000000" font-family="sans-serif" font-size="13" lengthAdjust="spacing" textLength="201.5825" x="167.6255" y="462.9326">2. System g&#7885;i API GET /auth/users</text><text fill="#000000" font-family="sans-serif" font-size="13" lengthAdjust="spacing" textLength="399.5405" x="167.6255" y="479.2842">3. System tr&#7843; v&#7873;: username, email, fullName, role, createdAt, isActive</text><!--SRC=[XLB1RjD04BtlLunoTXfHX91yG4gQ55KYA6e8zuaziLUiTyFkh4EFg4U416SkL3tp0yqn-H7_2RksQIFrm6qzxysyzsQCdetsrPgiS9-atgB52bo9kTb9NS06bQDJX3vxqXdDoJaiQAnaeI4ZpQ6V9Ik2rSNmrMiOmaT9ErWviWxUIST2OCR6mc2SLr8F01sCOq6iZTSvsfiUwLjMLotbSYOoezaQ5M3FvKNteSXs4nPNJtZRk2HRounQj7-B71dNw0W6SwCBCvsau2CtWT3NKQSJ8LexC7mJH5DOCbhkieZBMQm6hHJUpZx028EHKJj1X6B4UgKKPbyeyqpFmlU4o8toruJvQ6TbO9uu4TC934-dJKs5OIFH_zE4VrQkoNd5dOFUT2XjZGxtYeuZBoOAOr2Nu0vtMTcfGIcR_Qq6BflzDo6q2JPCJRRZ9s4N2nlKZpyEzt3yURmDlu4kcuS_MwYR_I_PUWMCnn8Bu_X_0lEOOQFCBXKlpg0xSdtuRS8YuxlVvFaPB6ySKmL5i_ykOyPdstxvo67RFDn7Er-xMsgiA04Awr89RBnIxzj2T9f0PWcPyZ4d85t8A6iIf7E8mVy2]--></g></svg>