<svg xmlns="http://www.w3.org/2000/svg" xmlns:xlink="http://www.w3.org/1999/xlink" contentStyleType="text/css" data-diagram-type="SEQUENCE" height="600px" preserveAspectRatio="none" style="width:932px;height:600px;background:#FFFFFF;" version="1.1" viewBox="0 0 932 600" width="932px" zoomAndPan="magnify"><title>UC-60 - Disable User</title><defs/><g><text fill="#000000" font-family="sans-serif" font-size="14" font-weight="bold" lengthAdjust="spacing" textLength="137.7168" x="399.0249" y="29.5332">UC-60 - Disable User</text><g><title>Admin</title><rect fill="#000000" fill-opacity="0.00000" height="397.2734" width="8" x="44.8413" y="121.2188"/><line style="stroke:#181818;stroke-width:0.5;stroke-dasharray:5,5;" x1="48" x2="48" y1="121.2188" y2="518.4922"/></g><g><title>Admin Users UI</title><rect fill="#000000" fill-opacity="0.00000" height="397.2734" width="8" x="287.4873" y="121.2188"/><line style="stroke:#181818;stroke-width:0.5;stroke-dasharray:5,5;" x1="291.4771" x2="291.4771" y1="121.2188" y2="518.4922"/></g><g><title>AuthController</title><rect fill="#000000" fill-opacity="0.00000" height="397.2734" width="8" x="535.1733" y="121.2188"/><line style="stroke:#181818;stroke-width:0.5;stroke-dasharray:5,5;" x1="538.4287" x2="538.4287" y1="121.2188" y2="518.4922"/></g><g><title>UsersService</title><rect fill="#000000" fill-opacity="0.00000" height="397.2734" width="8" x="695.4014" y="121.2188"/><line style="stroke:#181818;stroke-width:0.5;stroke-dasharray:5,5;" x1="698.7808" x2="698.7808" y1="121.2188" y2="518.4922"/></g><g><title>MongoDB. users. role</title><rect fill="#000000" fill-opacity="0.00000" height="397.2734" width="8" x="857.0703" y="121.2188"/><line style="stroke:#181818;stroke-width:0.5;stroke-dasharray:5,5;" x1="860.374" x2="860.374" y1="121.2188" y2="518.4922"/></g><g class="participant participant-head" data-participant="Actor"><text fill="#000000" font-family="sans-serif" font-size="14" lengthAdjust="spacing" textLength="39.6826" x="26" y="118.1426">Admin</text><ellipse cx="48.8413" cy="52.1094" fill="#E2E2F0" rx="8" ry="8" style="stroke:#181818;stroke-width:0.5;"/><path d="M48.8413,60.1094 L48.8413,87.1094 M35.8413,68.1094 L61.8413,68.1094 M48.8413,87.1094 L35.8413,102.1094 M48.8413,87.1094 L61.8413,102.1094" fill="none" style="stroke:#181818;stroke-width:0.5;"/></g><g class="participant participant-tail" data-participant="Actor"><text fill="#000000" font-family="sans-serif" font-size="14" lengthAdjust="spacing" textLength="39.6826" x="26" y="532.0254">Admin</text><ellipse cx="48.8413" cy="543.6016" fill="#E2E2F0" rx="8" ry="8" style="stroke:#181818;stroke-width:0.5;"/><path d="M48.8413,551.6016 L48.8413,578.6016 M35.8413,559.6016 L61.8413,559.6016 M48.8413,578.6016 L35.8413,593.6016 M48.8413,578.6016 L61.8413,593.6016" fill="none" style="stroke:#181818;stroke-width:0.5;"/></g><g class="participant participant-head" data-participant="FE"><text fill="#000000" font-family="sans-serif" font-size="14" lengthAdjust="spacing" textLength="98.0205" x="239.4771" y="118.1426">Admin Users UI</text><path d="M270.9873,75.6094 L270.9873,99.6094 M270.9873,87.6094 L287.9873,87.6094" fill="none" style="stroke:#181818;stroke-width:0.5;"/><ellipse cx="299.9873" cy="87.6094" fill="#E2E2F0" rx="12" ry="12" style="stroke:#181818;stroke-width:0.5;"/></g><g class="participant participant-tail" data-participant="FE"><text fill="#000000" font-family="sans-serif" font-size="14" lengthAdjust="spacing" textLength="98.0205" x="239.4771" y="532.0254">Admin Users UI</text><path d="M270.9873,539.1016 L270.9873,563.1016 M270.9873,551.1016 L287.9873,551.1016" fill="none" style="stroke:#181818;stroke-width:0.5;"/><ellipse cx="299.9873" cy="551.1016" fill="#E2E2F0" rx="12" ry="12" style="stroke:#181818;stroke-width:0.5;"/></g><g class="participant participant-head" data-participant="API"><text fill="#000000" font-family="sans-serif" font-size="14" lengthAdjust="spacing" textLength="89.4893" x="491.4287" y="118.1426">AuthController</text><ellipse cx="539.1733" cy="87.6094" fill="#E2E2F0" rx="12" ry="12" style="stroke:#181818;stroke-width:0.5;"/><polygon fill="#181818" points="535.1733,75.6094,541.1733,70.6094,539.1733,75.6094,541.1733,80.6094,535.1733,75.6094" style="stroke:#181818;stroke-width:1;"/></g><g class="participant participant-tail" data-participant="API"><text fill="#000000" font-family="sans-serif" font-size="14" lengthAdjust="spacing" textLength="89.4893" x="491.4287" y="532.0254">AuthController</text><ellipse cx="539.1733" cy="551.1016" fill="#E2E2F0" rx="12" ry="12" style="stroke:#181818;stroke-width:0.5;"/><polygon fill="#181818" points="535.1733,539.1016,541.1733,534.1016,539.1733,539.1016,541.1733,544.1016,535.1733,539.1016" style="stroke:#181818;stroke-width:1;"/></g><g class="participant participant-head" data-participant="Service"><text fill="#000000" font-family="sans-serif" font-size="14" lengthAdjust="spacing" textLength="83.2412" x="654.7808" y="118.1426">UsersService</text><ellipse cx="699.4014" cy="87.6094" fill="#E2E2F0" rx="12" ry="12" style="stroke:#181818;stroke-width:0.5;"/><polygon fill="#181818" points="695.4014,75.6094,701.4014,70.6094,699.4014,75.6094,701.4014,80.6094,695.4014,75.6094" style="stroke:#181818;stroke-width:1;"/></g><g class="participant participant-tail" data-participant="Service"><text fill="#000000" font-family="sans-serif" font-size="14" lengthAdjust="spacing" textLength="83.2412" x="654.7808" y="532.0254">UsersService</text><ellipse cx="699.4014" cy="551.1016" fill="#E2E2F0" rx="12" ry="12" style="stroke:#181818;stroke-width:0.5;"/><polygon fill="#181818" points="695.4014,539.1016,701.4014,534.1016,699.4014,539.1016,701.4014,544.1016,695.4014,539.1016" style="stroke:#181818;stroke-width:1;"/></g><g class="participant participant-head" data-participant="DB"><text fill="#000000" font-family="sans-serif" font-size="14" lengthAdjust="spacing" textLength="135.3926" x="790.374" y="118.1426">MongoDB: users, role</text><path d="M843.0703,67.6094 C843.0703,57.6094 861.0703,57.6094 861.0703,57.6094 C861.0703,57.6094 879.0703,57.6094 879.0703,67.6094 L879.0703,93.6094 C879.0703,103.6094 861.0703,103.6094 861.0703,103.6094 C861.0703,103.6094 843.0703,103.6094 843.0703,93.6094 L843.0703,67.6094" fill="#E2E2F0" style="stroke:#181818;stroke-width:0.5;"/><path d="M843.0703,67.6094 C843.0703,77.6094 861.0703,77.6094 861.0703,77.6094 C861.0703,77.6094 879.0703,77.6094 879.0703,67.6094" fill="none" style="stroke:#181818;stroke-width:0.5;"/></g><g class="participant participant-tail" data-participant="DB"><text fill="#000000" font-family="sans-serif" font-size="14" lengthAdjust="spacing" textLength="135.3926" x="790.374" y="532.0254">MongoDB: users, role</text><path d="M843.0703,545.1016 C843.0703,535.1016 861.0703,535.1016 861.0703,535.1016 C861.0703,535.1016 879.0703,535.1016 879.0703,545.1016 L879.0703,571.1016 C879.0703,581.1016 861.0703,581.1016 861.0703,581.1016 C861.0703,581.1016 843.0703,581.1016 843.0703,571.1016 L843.0703,545.1016" fill="#E2E2F0" style="stroke:#181818;stroke-width:0.5;"/><path d="M843.0703,545.1016 C843.0703,555.1016 861.0703,555.1016 861.0703,555.1016 C861.0703,555.1016 879.0703,555.1016 879.0703,545.1016" fill="none" style="stroke:#181818;stroke-width:0.5;"/></g><g class="message" data-participant-1="Actor" data-participant-2="FE"><polygon fill="#181818" points="279.4873,149.5703,289.4873,153.5703,279.4873,157.5703,283.4873,153.5703" style="stroke:#181818;stroke-width:1;"/><line style="stroke:#181818;stroke-width:1;" x1="48.8413" x2="285.4873" y1="153.5703" y2="153.5703"/><text fill="#000000" font-family="sans-serif" font-size="13" font-weight="bold" lengthAdjust="spacing" textLength="7.23" x="130.2339" y="148.7139">1</text><text fill="#000000" font-family="sans-serif" font-size="13" lengthAdjust="spacing" textLength="68.6309" x="141.4639" y="148.7139">Start UC-60</text></g><g class="message" data-participant-1="FE" data-participant-2="API"><polygon fill="#181818" points="527.1733,179.9219,537.1733,183.9219,527.1733,187.9219,531.1733,183.9219" style="stroke:#181818;stroke-width:1;"/><line style="stroke:#181818;stroke-width:1;" x1="291.4873" x2="533.1733" y1="183.9219" y2="183.9219"/><text fill="#000000" font-family="sans-serif" font-size="13" font-weight="bold" lengthAdjust="spacing" textLength="7.23" x="303.4873" y="179.0654">2</text><text fill="#000000" font-family="sans-serif" font-size="13" lengthAdjust="spacing" textLength="212.4561" x="314.7173" y="179.0654">Disable user endpoint recommended</text></g><g class="message" data-participant-1="API" data-participant-2="Service"><polygon fill="#181818" points="687.4014,210.2734,697.4014,214.2734,687.4014,218.2734,691.4014,214.2734" style="stroke:#181818;stroke-width:1;"/><line style="stroke:#181818;stroke-width:1;" x1="539.1733" x2="693.4014" y1="214.2734" y2="214.2734"/><text fill="#000000" font-family="sans-serif" font-size="13" font-weight="bold" lengthAdjust="spacing" textLength="7.23" x="551.1733" y="209.417">3</text><text fill="#000000" font-family="sans-serif" font-size="13" lengthAdjust="spacing" textLength="124.998" x="562.4033" y="209.417">Execute Disable User</text></g><g class="message" data-participant-1="Service" data-participant-2="DB"><polygon fill="#181818" points="849.0703,240.625,859.0703,244.625,849.0703,248.625,853.0703,244.625" style="stroke:#181818;stroke-width:1;"/><line style="stroke:#181818;stroke-width:1;" x1="699.4014" x2="855.0703" y1="244.625" y2="244.625"/><text fill="#000000" font-family="sans-serif" font-size="13" font-weight="bold" lengthAdjust="spacing" textLength="7.23" x="711.4014" y="239.7686">4</text><text fill="#000000" font-family="sans-serif" font-size="13" lengthAdjust="spacing" textLength="126.439" x="722.6313" y="239.7686">Read/write users, role</text></g><g class="message" data-participant-1="DB" data-participant-2="Service"><polygon fill="#181818" points="710.4014,270.9766,700.4014,274.9766,710.4014,278.9766,706.4014,274.9766" style="stroke:#181818;stroke-width:1;"/><line style="stroke:#181818;stroke-width:1;stroke-dasharray:2,2;" x1="704.4014" x2="860.0703" y1="274.9766" y2="274.9766"/><text fill="#000000" font-family="sans-serif" font-size="13" font-weight="bold" lengthAdjust="spacing" textLength="7.23" x="737.7664" y="270.1201">5</text><text fill="#000000" font-family="sans-serif" font-size="13" lengthAdjust="spacing" textLength="73.709" x="748.9963" y="270.1201">Domain data</text></g><g class="message" data-participant-1="Service" data-participant-2="API"><polygon fill="#181818" points="550.1733,301.3281,540.1733,305.3281,550.1733,309.3281,546.1733,305.3281" style="stroke:#181818;stroke-width:1;"/><line style="stroke:#181818;stroke-width:1;stroke-dasharray:2,2;" x1="544.1733" x2="698.4014" y1="305.3281" y2="305.3281"/><text fill="#000000" font-family="sans-serif" font-size="13" font-weight="bold" lengthAdjust="spacing" textLength="7.23" x="595.2483" y="300.4717">6</text><text fill="#000000" font-family="sans-serif" font-size="13" lengthAdjust="spacing" textLength="36.8481" x="606.4783" y="300.4717">Result</text></g><g class="message" data-participant-1="API" data-participant-2="FE"><polygon fill="#181818" points="302.4873,331.6797,292.4873,335.6797,302.4873,339.6797,298.4873,335.6797" style="stroke:#181818;stroke-width:1;"/><line style="stroke:#181818;stroke-width:1;stroke-dasharray:2,2;" x1="296.4873" x2="538.1733" y1="335.6797" y2="335.6797"/><text fill="#000000" font-family="sans-serif" font-size="13" font-weight="bold" lengthAdjust="spacing" textLength="7.23" x="380.4463" y="330.8232">7</text><text fill="#000000" font-family="sans-serif" font-size="13" lengthAdjust="spacing" textLength="58.5381" x="391.6763" y="330.8232">Response</text></g><g class="message" data-participant-1="FE" data-participant-2="Actor"><polygon fill="#181818" points="59.8413,362.0313,49.8413,366.0313,59.8413,370.0313,55.8413,366.0313" style="stroke:#181818;stroke-width:1;"/><line style="stroke:#181818;stroke-width:1;stroke-dasharray:2,2;" x1="53.8413" x2="290.4873" y1="366.0313" y2="366.0313"/><text fill="#000000" font-family="sans-serif" font-size="13" font-weight="bold" lengthAdjust="spacing" textLength="7.23" x="60.8413" y="361.1748">8</text><text fill="#000000" font-family="sans-serif" font-size="13" lengthAdjust="spacing" textLength="207.416" x="72.0713" y="361.1748">User b&#7883; v&#244; hi&#7879;u h&#243;a, kh&#244;ng th&#7875; login</text></g><path d="M5,379.0313 L5,503.0313 L905,503.0313 L905,389.0313 L895,379.0313 L5,379.0313" fill="#FEFFDD" style="stroke:#181818;stroke-width:0.5;"/><path d="M895,379.0313 L895,389.0313 L905,389.0313 L895,379.0313" fill="#FEFFDD" style="stroke:#181818;stroke-width:0.5;"/><text fill="#000000" font-family="sans-serif" font-size="13" lengthAdjust="spacing" textLength="93.9263" x="297.343" y="397.5264">Pre: User t&#7891;n t&#7841;i</text><text fill="#000000" font-family="sans-serif" font-size="13" lengthAdjust="spacing" textLength="240.6523" x="297.343" y="413.8779">Post: User b&#7883; v&#244; hi&#7879;u h&#243;a, kh&#244;ng th&#7875; login</text><text fill="#000000" font-family="sans-serif" font-size="13" lengthAdjust="spacing" textLength="58.519" x="297.343" y="430.2295">Main flow:</text><text fill="#000000" font-family="sans-serif" font-size="13" lengthAdjust="spacing" textLength="112.0044" x="297.343" y="446.5811">1. Admin ch&#7885;n user</text><text fill="#000000" font-family="sans-serif" font-size="13" lengthAdjust="spacing" textLength="127.1689" x="297.343" y="462.9326">2. Admin b&#7845;m Disable</text><text fill="#000000" font-family="sans-serif" font-size="13" lengthAdjust="spacing" textLength="307.0806" x="297.343" y="479.2842">3. System g&#7885;i API PATCH /auth/users/:userId/disable</text><text fill="#000000" font-family="sans-serif" font-size="13" lengthAdjust="spacing" textLength="167.2607" x="297.343" y="495.6357">4. User b&#7883; set isActive = false</text><!--SRC=[bL8xZjim4ErvYe5hsyeFAGGaW6rv4HS6Z7Ns09GuAn4haGuvihDrYXH1gfmWHKwGhTQbJwARP4Z9MM-vZMNEUs_clI5bIzQqJOvE-3jjTjB91dmbbJreKyAjh3rU8lYbHLFW6hsN9SvgNHeeq13hILEDSBEOl7y54yYqbtauUuQ4BCWw6CrKeyq8f8TPA8ZSjaP9TpyWaUpXPXKfLqjHM4FErWotL2twGuskxx1PFU5Hk4MtrmL6TFWlb2IPIuymMbjJscoUGXkuOs1TJytcGaGxCFd8GrFOadJK1n5Nor3bMUd_H44FQDJEQaFWiB1DmqTKWcc1FSnEOVaLYvRm-Iu6D123cskKAZauJNXfJ6Hpc5osocmZUK4XpbE7ixDhz6rD_VWX0vTsrl3TXG215mAcqG7atV47x4yFKEdk-Bs5wlHNZk6kEZtmZLFL7Rz1RKjjX32MRTazQw9-pAlQE1pQK7VyPVZtyRSM6-lffTtN8T1jRG-fU3s5_W4KZFyqSHFYpRcOTuz_clCInTifREyzOGCbStNO06ncdnUV897yIfAunIGDdvLArA1wDxrmvv50UuwazmWVXaVELmWXxpy0]--></g></svg>