<svg xmlns="http://www.w3.org/2000/svg" xmlns:xlink="http://www.w3.org/1999/xlink" contentStyleType="text/css" data-diagram-type="CLASS" height="488px" preserveAspectRatio="none" style="width:1011px;height:488px;background:#FFFFFF;" version="1.1" viewBox="0 0 1011 488" width="1011px" zoomAndPan="magnify"><title>Class Diagram - UC-12 Receive Payment Webhook</title><defs/><g><g class="title" data-source-line="4"><text fill="#000000" font-family="sans-serif" font-size="14" font-weight="bold" lengthAdjust="spacing" textLength="336.1162" x="330.6108" y="24.5332">Class Diagram - UC-12 Receive Payment Webhook</text></g><!--class UI--><g class="entity" data-entity="UI" data-source-line="6" data-uid="ent0002" id="entity_UI"><rect fill="#F1F1F1" height="42.7031" rx="2.5" ry="2.5" style="stroke:#181818;stroke-width:0.5;" width="175.9512" x="361.5" y="60.6094"/><ellipse cx="376.5" cy="81.9609" fill="#ADD1B2" rx="11" ry="11" style="stroke:#181818;stroke-width:1;"/><path d="M379.2656,77.8359 Q379.4219,77.6172 379.6094,77.5078 Q379.7969,77.3984 380.0156,77.3984 Q380.3906,77.3984 380.625,77.6641 Q380.8594,77.9141 380.8594,78.5234 L380.8594,79.9766 Q380.8594,80.5859 380.625,80.8516 Q380.3906,81.1172 380.0156,81.1172 Q379.6719,81.1172 379.4688,80.9141 Q379.2656,80.7266 379.1563,80.2109 Q379.1094,79.8516 378.9219,79.6641 Q378.5938,79.2891 377.9844,79.0703 Q377.375,78.8516 376.75,78.8516 Q375.9844,78.8516 375.3438,79.1797 Q374.7188,79.5078 374.2188,80.2578 Q373.7344,81.0078 373.7344,82.0391 L373.7344,83.1328 Q373.7344,84.3672 374.625,85.1953 Q375.5156,86.0078 377.1094,86.0078 Q378.0469,86.0078 378.7031,85.7578 Q379.0938,85.6016 379.5156,85.1641 Q379.7813,84.8984 379.9219,84.8203 Q380.0781,84.7422 380.2813,84.7422 Q380.6094,84.7422 380.8594,85.0078 Q381.125,85.2578 381.125,85.6016 Q381.125,85.9453 380.7813,86.3516 Q380.2813,86.9297 379.4844,87.2578 Q378.4063,87.7109 377.1094,87.7109 Q375.5938,87.7109 374.3906,87.0859 Q373.4063,86.5859 372.7188,85.5234 Q372.0313,84.4453 372.0313,83.1641 L372.0313,82.0078 Q372.0313,80.6797 372.6406,79.5391 Q373.2656,78.3828 374.3594,77.7734 Q375.4531,77.1484 376.6875,77.1484 Q377.4219,77.1484 378.0625,77.3203 Q378.7188,77.4766 379.2656,77.8359 Z " fill="#000000"/><text fill="#000000" font-family="sans-serif" font-size="12" font-style="italic" lengthAdjust="spacing" textLength="63.3867" x="430.7822" y="78.0664">&#171;boundary&#187;</text><text fill="#000000" font-family="sans-serif" font-size="14" lengthAdjust="spacing" textLength="143.9512" x="390.5" y="95.2363">Checkout / Payment UI</text></g><!--class Controller--><g class="entity" data-entity="Controller" data-source-line="7" data-uid="ent0003" id="entity_Controller"><rect fill="#F1F1F1" height="42.7031" rx="2.5" ry="2.5" style="stroke:#181818;stroke-width:0.5;" width="147.9375" x="375.5" y="197.6094"/><ellipse cx="390.5" cy="218.9609" fill="#ADD1B2" rx="11" ry="11" style="stroke:#181818;stroke-width:1;"/><path d="M393.2656,214.8359 Q393.4219,214.6172 393.6094,214.5078 Q393.7969,214.3984 394.0156,214.3984 Q394.3906,214.3984 394.625,214.6641 Q394.8594,214.9141 394.8594,215.5234 L394.8594,216.9766 Q394.8594,217.5859 394.625,217.8516 Q394.3906,218.1172 394.0156,218.1172 Q393.6719,218.1172 393.4688,217.9141 Q393.2656,217.7266 393.1563,217.2109 Q393.1094,216.8516 392.9219,216.6641 Q392.5938,216.2891 391.9844,216.0703 Q391.375,215.8516 390.75,215.8516 Q389.9844,215.8516 389.3438,216.1797 Q388.7188,216.5078 388.2188,217.2578 Q387.7344,218.0078 387.7344,219.0391 L387.7344,220.1328 Q387.7344,221.3672 388.625,222.1953 Q389.5156,223.0078 391.1094,223.0078 Q392.0469,223.0078 392.7031,222.7578 Q393.0938,222.6016 393.5156,222.1641 Q393.7813,221.8984 393.9219,221.8203 Q394.0781,221.7422 394.2813,221.7422 Q394.6094,221.7422 394.8594,222.0078 Q395.125,222.2578 395.125,222.6016 Q395.125,222.9453 394.7813,223.3516 Q394.2813,223.9297 393.4844,224.2578 Q392.4063,224.7109 391.1094,224.7109 Q389.5938,224.7109 388.3906,224.0859 Q387.4063,223.5859 386.7188,222.5234 Q386.0313,221.4453 386.0313,220.1641 L386.0313,219.0078 Q386.0313,217.6797 386.6406,216.5391 Q387.2656,215.3828 388.3594,214.7734 Q389.4531,214.1484 390.6875,214.1484 Q391.4219,214.1484 392.0625,214.3203 Q392.7188,214.4766 393.2656,214.8359 Z " fill="#000000"/><text fill="#000000" font-family="sans-serif" font-size="12" font-style="italic" lengthAdjust="spacing" textLength="62.7012" x="431.1182" y="215.0664">&#171;controller&#187;</text><text fill="#000000" font-family="sans-serif" font-size="14" lengthAdjust="spacing" textLength="115.9375" x="404.5" y="232.2363">PaymentController</text></g><!--class Service--><g class="entity" data-entity="Service" data-source-line="8" data-uid="ent0004" id="entity_Service"><rect fill="#F1F1F1" height="42.7031" rx="2.5" ry="2.5" style="stroke:#181818;stroke-width:0.5;" width="133.9307" x="382.5" y="318.6094"/><ellipse cx="397.5" cy="339.9609" fill="#ADD1B2" rx="11" ry="11" style="stroke:#181818;stroke-width:1;"/><path d="M400.2656,335.8359 Q400.4219,335.6172 400.6094,335.5078 Q400.7969,335.3984 401.0156,335.3984 Q401.3906,335.3984 401.625,335.6641 Q401.8594,335.9141 401.8594,336.5234 L401.8594,337.9766 Q401.8594,338.5859 401.625,338.8516 Q401.3906,339.1172 401.0156,339.1172 Q400.6719,339.1172 400.4688,338.9141 Q400.2656,338.7266 400.1563,338.2109 Q400.1094,337.8516 399.9219,337.6641 Q399.5938,337.2891 398.9844,337.0703 Q398.375,336.8516 397.75,336.8516 Q396.9844,336.8516 396.3438,337.1797 Q395.7188,337.5078 395.2188,338.2578 Q394.7344,339.0078 394.7344,340.0391 L394.7344,341.1328 Q394.7344,342.3672 395.625,343.1953 Q396.5156,344.0078 398.1094,344.0078 Q399.0469,344.0078 399.7031,343.7578 Q400.0938,343.6016 400.5156,343.1641 Q400.7813,342.8984 400.9219,342.8203 Q401.0781,342.7422 401.2813,342.7422 Q401.6094,342.7422 401.8594,343.0078 Q402.125,343.2578 402.125,343.6016 Q402.125,343.9453 401.7813,344.3516 Q401.2813,344.9297 400.4844,345.2578 Q399.4063,345.7109 398.1094,345.7109 Q396.5938,345.7109 395.3906,345.0859 Q394.4063,344.5859 393.7188,343.5234 Q393.0313,342.4453 393.0313,341.1641 L393.0313,340.0078 Q393.0313,338.6797 393.6406,337.5391 Q394.2656,336.3828 395.3594,335.7734 Q396.4531,335.1484 397.6875,335.1484 Q398.4219,335.1484 399.0625,335.3203 Q399.7188,335.4766 400.2656,335.8359 Z " fill="#000000"/><text fill="#000000" font-family="sans-serif" font-size="12" font-style="italic" lengthAdjust="spacing" textLength="51.3574" x="436.7866" y="336.0664">&#171;service&#187;</text><text fill="#000000" font-family="sans-serif" font-size="14" lengthAdjust="spacing" textLength="101.9307" x="411.5" y="353.2363">PaymentService</text></g><!--class Bill--><g class="entity" data-entity="Bill" data-source-line="9" data-uid="ent0005" id="entity_Bill"><rect fill="#F1F1F1" height="42.7031" rx="2.5" ry="2.5" style="stroke:#181818;stroke-width:0.5;" width="80.7051" x="7" y="439.6094"/><ellipse cx="22" cy="460.9609" fill="#ADD1B2" rx="11" ry="11" style="stroke:#181818;stroke-width:1;"/><path d="M24.7656,456.8359 Q24.9219,456.6172 25.1094,456.5078 Q25.2969,456.3984 25.5156,456.3984 Q25.8906,456.3984 26.125,456.6641 Q26.3594,456.9141 26.3594,457.5234 L26.3594,458.9766 Q26.3594,459.5859 26.125,459.8516 Q25.8906,460.1172 25.5156,460.1172 Q25.1719,460.1172 24.9688,459.9141 Q24.7656,459.7266 24.6563,459.2109 Q24.6094,458.8516 24.4219,458.6641 Q24.0938,458.2891 23.4844,458.0703 Q22.875,457.8516 22.25,457.8516 Q21.4844,457.8516 20.8438,458.1797 Q20.2188,458.5078 19.7188,459.2578 Q19.2344,460.0078 19.2344,461.0391 L19.2344,462.1328 Q19.2344,463.3672 20.125,464.1953 Q21.0156,465.0078 22.6094,465.0078 Q23.5469,465.0078 24.2031,464.7578 Q24.5938,464.6016 25.0156,464.1641 Q25.2813,463.8984 25.4219,463.8203 Q25.5781,463.7422 25.7813,463.7422 Q26.1094,463.7422 26.3594,464.0078 Q26.625,464.2578 26.625,464.6016 Q26.625,464.9453 26.2813,465.3516 Q25.7813,465.9297 24.9844,466.2578 Q23.9063,466.7109 22.6094,466.7109 Q21.0938,466.7109 19.8906,466.0859 Q18.9063,465.5859 18.2188,464.5234 Q17.5313,463.4453 17.5313,462.1641 L17.5313,461.0078 Q17.5313,459.6797 18.1406,458.5391 Q18.7656,457.3828 19.8594,456.7734 Q20.9531,456.1484 22.1875,456.1484 Q22.9219,456.1484 23.5625,456.3203 Q24.2188,456.4766 24.7656,456.8359 Z " fill="#000000"/><text fill="#000000" font-family="sans-serif" font-size="12" font-style="italic" lengthAdjust="spacing" textLength="52.7051" x="34" y="457.0664">&#171;domain&#187;</text><text fill="#000000" font-family="sans-serif" font-size="14" lengthAdjust="spacing" textLength="18.6689" x="51.0181" y="474.2363">Bill</text></g><!--class ShoeDetail--><g class="entity" data-entity="ShoeDetail" data-source-line="10" data-uid="ent0006" id="entity_ShoeDetail"><rect fill="#F1F1F1" height="42.7031" rx="2.5" ry="2.5" style="stroke:#181818;stroke-width:0.5;" width="100.4893" x="123.5" y="439.6094"/><ellipse cx="138.5" cy="460.9609" fill="#ADD1B2" rx="11" ry="11" style="stroke:#181818;stroke-width:1;"/><path d="M141.2656,456.8359 Q141.4219,456.6172 141.6094,456.5078 Q141.7969,456.3984 142.0156,456.3984 Q142.3906,456.3984 142.625,456.6641 Q142.8594,456.9141 142.8594,457.5234 L142.8594,458.9766 Q142.8594,459.5859 142.625,459.8516 Q142.3906,460.1172 142.0156,460.1172 Q141.6719,460.1172 141.4688,459.9141 Q141.2656,459.7266 141.1563,459.2109 Q141.1094,458.8516 140.9219,458.6641 Q140.5938,458.2891 139.9844,458.0703 Q139.375,457.8516 138.75,457.8516 Q137.9844,457.8516 137.3438,458.1797 Q136.7188,458.5078 136.2188,459.2578 Q135.7344,460.0078 135.7344,461.0391 L135.7344,462.1328 Q135.7344,463.3672 136.625,464.1953 Q137.5156,465.0078 139.1094,465.0078 Q140.0469,465.0078 140.7031,464.7578 Q141.0938,464.6016 141.5156,464.1641 Q141.7813,463.8984 141.9219,463.8203 Q142.0781,463.7422 142.2813,463.7422 Q142.6094,463.7422 142.8594,464.0078 Q143.125,464.2578 143.125,464.6016 Q143.125,464.9453 142.7813,465.3516 Q142.2813,465.9297 141.4844,466.2578 Q140.4063,466.7109 139.1094,466.7109 Q137.5938,466.7109 136.3906,466.0859 Q135.4063,465.5859 134.7188,464.5234 Q134.0313,463.4453 134.0313,462.1641 L134.0313,461.0078 Q134.0313,459.6797 134.6406,458.5391 Q135.2656,457.3828 136.3594,456.7734 Q137.4531,456.1484 138.6875,456.1484 Q139.4219,456.1484 140.0625,456.3203 Q140.7188,456.4766 141.2656,456.8359 Z " fill="#000000"/><text fill="#000000" font-family="sans-serif" font-size="12" font-style="italic" lengthAdjust="spacing" textLength="52.7051" x="160.3921" y="457.0664">&#171;domain&#187;</text><text fill="#000000" font-family="sans-serif" font-size="14" lengthAdjust="spacing" textLength="68.4893" x="152.5" y="474.2363">ShoeDetail</text></g><!--class Coupon--><g class="entity" data-entity="Coupon" data-source-line="11" data-uid="ent0007" id="entity_Coupon"><rect fill="#F1F1F1" height="42.7031" rx="2.5" ry="2.5" style="stroke:#181818;stroke-width:0.5;" width="81.041" x="259" y="439.6094"/><ellipse cx="274" cy="460.9609" fill="#ADD1B2" rx="11" ry="11" style="stroke:#181818;stroke-width:1;"/><path d="M276.7656,456.8359 Q276.9219,456.6172 277.1094,456.5078 Q277.2969,456.3984 277.5156,456.3984 Q277.8906,456.3984 278.125,456.6641 Q278.3594,456.9141 278.3594,457.5234 L278.3594,458.9766 Q278.3594,459.5859 278.125,459.8516 Q277.8906,460.1172 277.5156,460.1172 Q277.1719,460.1172 276.9688,459.9141 Q276.7656,459.7266 276.6563,459.2109 Q276.6094,458.8516 276.4219,458.6641 Q276.0938,458.2891 275.4844,458.0703 Q274.875,457.8516 274.25,457.8516 Q273.4844,457.8516 272.8438,458.1797 Q272.2188,458.5078 271.7188,459.2578 Q271.2344,460.0078 271.2344,461.0391 L271.2344,462.1328 Q271.2344,463.3672 272.125,464.1953 Q273.0156,465.0078 274.6094,465.0078 Q275.5469,465.0078 276.2031,464.7578 Q276.5938,464.6016 277.0156,464.1641 Q277.2813,463.8984 277.4219,463.8203 Q277.5781,463.7422 277.7813,463.7422 Q278.1094,463.7422 278.3594,464.0078 Q278.625,464.2578 278.625,464.6016 Q278.625,464.9453 278.2813,465.3516 Q277.7813,465.9297 276.9844,466.2578 Q275.9063,466.7109 274.6094,466.7109 Q273.0938,466.7109 271.8906,466.0859 Q270.9063,465.5859 270.2188,464.5234 Q269.5313,463.4453 269.5313,462.1641 L269.5313,461.0078 Q269.5313,459.6797 270.1406,458.5391 Q270.7656,457.3828 271.8594,456.7734 Q272.9531,456.1484 274.1875,456.1484 Q274.9219,456.1484 275.5625,456.3203 Q276.2188,456.4766 276.7656,456.8359 Z " fill="#000000"/><text fill="#000000" font-family="sans-serif" font-size="12" font-style="italic" lengthAdjust="spacing" textLength="52.7051" x="286.168" y="457.0664">&#171;domain&#187;</text><text fill="#000000" font-family="sans-serif" font-size="14" lengthAdjust="spacing" textLength="49.041" x="288" y="474.2363">Coupon</text></g><!--class OrderEmailService--><g class="entity" data-entity="OrderEmailService" data-source-line="12" data-uid="ent0008" id="entity_OrderEmailService"><rect fill="#F1F1F1" height="42.7031" rx="2.5" ry="2.5" style="stroke:#181818;stroke-width:0.5;" width="149.4756" x="375" y="439.6094"/><ellipse cx="390" cy="460.9609" fill="#ADD1B2" rx="11" ry="11" style="stroke:#181818;stroke-width:1;"/><path d="M392.7656,456.8359 Q392.9219,456.6172 393.1094,456.5078 Q393.2969,456.3984 393.5156,456.3984 Q393.8906,456.3984 394.125,456.6641 Q394.3594,456.9141 394.3594,457.5234 L394.3594,458.9766 Q394.3594,459.5859 394.125,459.8516 Q393.8906,460.1172 393.5156,460.1172 Q393.1719,460.1172 392.9688,459.9141 Q392.7656,459.7266 392.6563,459.2109 Q392.6094,458.8516 392.4219,458.6641 Q392.0938,458.2891 391.4844,458.0703 Q390.875,457.8516 390.25,457.8516 Q389.4844,457.8516 388.8438,458.1797 Q388.2188,458.5078 387.7188,459.2578 Q387.2344,460.0078 387.2344,461.0391 L387.2344,462.1328 Q387.2344,463.3672 388.125,464.1953 Q389.0156,465.0078 390.6094,465.0078 Q391.5469,465.0078 392.2031,464.7578 Q392.5938,464.6016 393.0156,464.1641 Q393.2813,463.8984 393.4219,463.8203 Q393.5781,463.7422 393.7813,463.7422 Q394.1094,463.7422 394.3594,464.0078 Q394.625,464.2578 394.625,464.6016 Q394.625,464.9453 394.2813,465.3516 Q393.7813,465.9297 392.9844,466.2578 Q391.9063,466.7109 390.6094,466.7109 Q389.0938,466.7109 387.8906,466.0859 Q386.9063,465.5859 386.2188,464.5234 Q385.5313,463.4453 385.5313,462.1641 L385.5313,461.0078 Q385.5313,459.6797 386.1406,458.5391 Q386.7656,457.3828 387.8594,456.7734 Q388.9531,456.1484 390.1875,456.1484 Q390.9219,456.1484 391.5625,456.3203 Q392.2188,456.4766 392.7656,456.8359 Z " fill="#000000"/><text fill="#000000" font-family="sans-serif" font-size="12" font-style="italic" lengthAdjust="spacing" textLength="52.7051" x="436.3853" y="457.0664">&#171;domain&#187;</text><text fill="#000000" font-family="sans-serif" font-size="14" lengthAdjust="spacing" textLength="117.4756" x="404" y="474.2363">OrderEmailService</text></g><!--class PayOS Gateway--><g class="entity" data-entity="PayOS Gateway" data-source-line="20" data-uid="ent0015" id="entity_PayOS Gateway"><rect fill="#F1F1F1" height="32" rx="2.5" ry="2.5" style="stroke:#181818;stroke-width:0.5;" width="135.4893" x="559" y="445.1094"/><ellipse cx="574" cy="461.1094" fill="#ADD1B2" rx="11" ry="11" style="stroke:#181818;stroke-width:1;"/><path d="M576.7656,456.9844 Q576.9219,456.7656 577.1094,456.6563 Q577.2969,456.5469 577.5156,456.5469 Q577.8906,456.5469 578.125,456.8125 Q578.3594,457.0625 578.3594,457.6719 L578.3594,459.125 Q578.3594,459.7344 578.125,460 Q577.8906,460.2656 577.5156,460.2656 Q577.1719,460.2656 576.9688,460.0625 Q576.7656,459.875 576.6563,459.3594 Q576.6094,459 576.4219,458.8125 Q576.0938,458.4375 575.4844,458.2188 Q574.875,458 574.25,458 Q573.4844,458 572.8438,458.3281 Q572.2188,458.6563 571.7188,459.4063 Q571.2344,460.1563 571.2344,461.1875 L571.2344,462.2813 Q571.2344,463.5156 572.125,464.3438 Q573.0156,465.1563 574.6094,465.1563 Q575.5469,465.1563 576.2031,464.9063 Q576.5938,464.75 577.0156,464.3125 Q577.2813,464.0469 577.4219,463.9688 Q577.5781,463.8906 577.7813,463.8906 Q578.1094,463.8906 578.3594,464.1563 Q578.625,464.4063 578.625,464.75 Q578.625,465.0938 578.2813,465.5 Q577.7813,466.0781 576.9844,466.4063 Q575.9063,466.8594 574.6094,466.8594 Q573.0938,466.8594 571.8906,466.2344 Q570.9063,465.7344 570.2188,464.6719 Q569.5313,463.5938 569.5313,462.3125 L569.5313,461.1563 Q569.5313,459.8281 570.1406,458.6875 Q570.7656,457.5313 571.8594,456.9219 Q572.9531,456.2969 574.1875,456.2969 Q574.9219,456.2969 575.5625,456.4688 Q576.2188,456.625 576.7656,456.9844 Z " fill="#000000"/><text fill="#000000" font-family="sans-serif" font-size="14" lengthAdjust="spacing" textLength="103.4893" x="588" y="466.8379">PayOS Gateway</text></g><!--class Stripe Gateway--><g class="entity" data-entity="Stripe Gateway" data-source-line="21" data-uid="ent0017" id="entity_Stripe Gateway"><rect fill="#F1F1F1" height="32" rx="2.5" ry="2.5" style="stroke:#181818;stroke-width:0.5;" width="127.71" x="729.5" y="445.1094"/><ellipse cx="744.5" cy="461.1094" fill="#ADD1B2" rx="11" ry="11" style="stroke:#181818;stroke-width:1;"/><path d="M747.2656,456.9844 Q747.4219,456.7656 747.6094,456.6563 Q747.7969,456.5469 748.0156,456.5469 Q748.3906,456.5469 748.625,456.8125 Q748.8594,457.0625 748.8594,457.6719 L748.8594,459.125 Q748.8594,459.7344 748.625,460 Q748.3906,460.2656 748.0156,460.2656 Q747.6719,460.2656 747.4688,460.0625 Q747.2656,459.875 747.1563,459.3594 Q747.1094,459 746.9219,458.8125 Q746.5938,458.4375 745.9844,458.2188 Q745.375,458 744.75,458 Q743.9844,458 743.3438,458.3281 Q742.7188,458.6563 742.2188,459.4063 Q741.7344,460.1563 741.7344,461.1875 L741.7344,462.2813 Q741.7344,463.5156 742.625,464.3438 Q743.5156,465.1563 745.1094,465.1563 Q746.0469,465.1563 746.7031,464.9063 Q747.0938,464.75 747.5156,464.3125 Q747.7813,464.0469 747.9219,463.9688 Q748.0781,463.8906 748.2813,463.8906 Q748.6094,463.8906 748.8594,464.1563 Q749.125,464.4063 749.125,464.75 Q749.125,465.0938 748.7813,465.5 Q748.2813,466.0781 747.4844,466.4063 Q746.4063,466.8594 745.1094,466.8594 Q743.5938,466.8594 742.3906,466.2344 Q741.4063,465.7344 740.7188,464.6719 Q740.0313,463.5938 740.0313,462.3125 L740.0313,461.1563 Q740.0313,459.8281 740.6406,458.6875 Q741.2656,457.5313 742.3594,456.9219 Q743.4531,456.2969 744.6875,456.2969 Q745.4219,456.2969 746.0625,456.4688 Q746.7188,456.625 747.2656,456.9844 Z " fill="#000000"/><text fill="#000000" font-family="sans-serif" font-size="14" lengthAdjust="spacing" textLength="95.71" x="758.5" y="466.8379">Stripe Gateway</text></g><!--class Gmail SMTP--><g class="entity" data-entity="Gmail SMTP" data-source-line="22" data-uid="ent0019" id="entity_Gmail SMTP"><rect fill="#F1F1F1" height="32" rx="2.5" ry="2.5" style="stroke:#181818;stroke-width:0.5;" width="111.3379" x="893" y="445.1094"/><ellipse cx="908" cy="461.1094" fill="#ADD1B2" rx="11" ry="11" style="stroke:#181818;stroke-width:1;"/><path d="M910.7656,456.9844 Q910.9219,456.7656 911.1094,456.6563 Q911.2969,456.5469 911.5156,456.5469 Q911.8906,456.5469 912.125,456.8125 Q912.3594,457.0625 912.3594,457.6719 L912.3594,459.125 Q912.3594,459.7344 912.125,460 Q911.8906,460.2656 911.5156,460.2656 Q911.1719,460.2656 910.9688,460.0625 Q910.7656,459.875 910.6563,459.3594 Q910.6094,459 910.4219,458.8125 Q910.0938,458.4375 909.4844,458.2188 Q908.875,458 908.25,458 Q907.4844,458 906.8438,458.3281 Q906.2188,458.6563 905.7188,459.4063 Q905.2344,460.1563 905.2344,461.1875 L905.2344,462.2813 Q905.2344,463.5156 906.125,464.3438 Q907.0156,465.1563 908.6094,465.1563 Q909.5469,465.1563 910.2031,464.9063 Q910.5938,464.75 911.0156,464.3125 Q911.2813,464.0469 911.4219,463.9688 Q911.5781,463.8906 911.7813,463.8906 Q912.1094,463.8906 912.3594,464.1563 Q912.625,464.4063 912.625,464.75 Q912.625,465.0938 912.2813,465.5 Q911.7813,466.0781 910.9844,466.4063 Q909.9063,466.8594 908.6094,466.8594 Q907.0938,466.8594 905.8906,466.2344 Q904.9063,465.7344 904.2188,464.6719 Q903.5313,463.5938 903.5313,462.3125 L903.5313,461.1563 Q903.5313,459.8281 904.1406,458.6875 Q904.7656,457.5313 905.8594,456.9219 Q906.9531,456.2969 908.1875,456.2969 Q908.9219,456.2969 909.5625,456.4688 Q910.2188,456.625 910.7656,456.9844 Z " fill="#000000"/><text fill="#000000" font-family="sans-serif" font-size="14" lengthAdjust="spacing" textLength="79.3379" x="922" y="466.8379">Gmail SMTP</text></g><g class="entity" data-entity="GMN21" data-source-line="25" data-uid="ent0022" id="entity_GMN21"><path d="M573,44.6094 L573,78.1094 L537.69,82.1094 L573,86.1094 L573,120.0156 A0,0 0 0 0 573,120.0156 L880.457,120.0156 A0,0 0 0 0 880.457,120.0156 L880.457,54.6094 L870.457,44.6094 L573,44.6094 A0,0 0 0 0 573,44.6094" fill="#FEFFDD" style="stroke:#181818;stroke-width:0.5;"/><path d="M870.457,44.6094 L870.457,54.6094 L880.457,54.6094 L870.457,44.6094" fill="#FEFFDD" style="stroke:#181818;stroke-width:0.5;"/><text fill="#000000" font-family="sans-serif" font-size="13" lengthAdjust="spacing" textLength="209.5298" x="579" y="63.1045">UC-12 - Receive Payment Webhook</text><text fill="#000000" font-family="sans-serif" font-size="13" lengthAdjust="spacing" textLength="236.2598" x="579" y="79.4561">Actors: PayOS Gateway, Stripe Gateway</text><text fill="#000000" font-family="sans-serif" font-size="13" lengthAdjust="spacing" textLength="286.457" x="579" y="95.8076">Pre: Payment &#273;&#227; &#273;&#432;&#7907;c kh&#7903;i t&#7841;o b&#7903;i PayOS/Stripe</text><text fill="#000000" font-family="sans-serif" font-size="13" lengthAdjust="spacing" textLength="192.8164" x="579" y="112.1592">Post: Order status &#273;&#432;&#7907;c c&#7853;p nh&#7853;t</text></g><!--link UI to Controller--><g class="link" data-entity-1="UI" data-entity-2="Controller" data-source-line="14" data-uid="lnk9" id="link_UI_Controller"><path codeLine="14" d="M449.5,103.6094 C449.5,128.9894 449.5,165.9494 449.5,191.4094" fill="none" id="UI-to-Controller" style="stroke:#181818;stroke-width:1;"/><polygon fill="#181818" points="449.5,197.4094,453.5,188.4094,449.5,192.4094,445.5,188.4094,449.5,197.4094" style="stroke:#181818;stroke-width:1;"/><text fill="#000000" font-family="sans-serif" font-size="13" lengthAdjust="spacing" textLength="363.4414" x="450.5" y="164.1045">POST /payments/webhook or POST /payments/stripe/webhook</text></g><!--link Controller to Service--><g class="link" data-entity-1="Controller" data-entity-2="Service" data-source-line="15" data-uid="lnk10" id="link_Controller_Service"><path codeLine="15" d="M449.5,240.8394 C449.5,262.5494 449.5,290.4494 449.5,312.2194" fill="none" id="Controller-to-Service" style="stroke:#181818;stroke-width:1;"/><polygon fill="#181818" points="449.5,318.2194,453.5,309.2194,449.5,313.2194,445.5,309.2194,449.5,318.2194" style="stroke:#181818;stroke-width:1;"/><text fill="#000000" font-family="sans-serif" font-size="13" lengthAdjust="spacing" textLength="56.3799" x="450.5" y="285.1045">delegates</text></g><!--link Service to Bill--><g class="link" data-entity-1="Service" data-entity-2="Bill" data-source-line="16" data-uid="lnk11" id="link_Service_Bill"><path codeLine="16" d="M382.45,357.4494 C344.72,366.8994 296.82,379.3294 254.5,391.6094 C187.68,411.0094 171.42,417.3494 105.5,439.6094 C99.83,441.5194 99.5335,441.5981 93.6735,443.6481" fill="none" id="Service-to-Bill" style="stroke:#181818;stroke-width:1;"/><polygon fill="#181818" points="88.01,445.6294,97.826,446.4331,92.7295,443.9783,95.1843,438.8819,88.01,445.6294" style="stroke:#181818;stroke-width:1;"/><text fill="#000000" font-family="sans-serif" font-size="13" lengthAdjust="spacing" textLength="27.46" x="255.5" y="406.1045">uses</text></g><!--link Service to ShoeDetail--><g class="link" data-entity-1="Service" data-entity-2="ShoeDetail" data-source-line="17" data-uid="lnk12" id="link_Service_ShoeDetail"><path codeLine="17" d="M400.09,361.6994 C378.4,370.7894 352.65,381.6594 329.5,391.6094 C292.54,407.4994 256.3177,423.4134 225.3277,437.1134" fill="none" id="Service-to-ShoeDetail" style="stroke:#181818;stroke-width:1;"/><polygon fill="#181818" points="219.84,439.5394,229.6888,439.5589,224.4131,437.5177,226.4542,432.2419,219.84,439.5394" style="stroke:#181818;stroke-width:1;"/><text fill="#000000" font-family="sans-serif" font-size="13" lengthAdjust="spacing" textLength="27.46" x="330.5" y="406.1045">uses</text></g><!--link Service to Coupon--><g class="link" data-entity-1="Service" data-entity-2="Coupon" data-source-line="18" data-uid="lnk13" id="link_Service_Coupon"><path codeLine="18" d="M423.37,361.8394 C395.92,383.6094 357.7106,413.9305 330.2806,435.6905" fill="none" id="Service-to-Coupon" style="stroke:#181818;stroke-width:1;"/><polygon fill="#181818" points="325.58,439.4194,335.1168,436.9597,329.4971,436.3119,330.1449,430.6923,325.58,439.4194" style="stroke:#181818;stroke-width:1;"/><text fill="#000000" font-family="sans-serif" font-size="13" lengthAdjust="spacing" textLength="27.46" x="384.5" y="406.1045">uses</text></g><!--link Service to OrderEmailService--><g class="link" data-entity-1="Service" data-entity-2="OrderEmailService" data-source-line="19" data-uid="lnk14" id="link_Service_OrderEmailService"><path codeLine="19" d="M449.5,361.8394 C449.5,383.5494 449.5,411.4494 449.5,433.2194" fill="none" id="Service-to-OrderEmailService" style="stroke:#181818;stroke-width:1;"/><polygon fill="#181818" points="449.5,439.2194,453.5,430.2194,449.5,434.2194,445.5,430.2194,449.5,439.2194" style="stroke:#181818;stroke-width:1;"/><text fill="#000000" font-family="sans-serif" font-size="13" lengthAdjust="spacing" textLength="27.46" x="450.5" y="406.1045">uses</text></g><!--link Service to PayOS Gateway--><g class="link" data-entity-1="Service" data-entity-2="PayOS Gateway" data-source-line="20" data-uid="lnk16" id="link_Service_PayOS Gateway"><path codeLine="20" d="M480.33,361.8394 C515.69,385.6094 567.8207,420.6618 599.1607,441.7318" fill="none" id="Service-to-PayOS Gateway" style="stroke:#181818;stroke-width:1;"/><polygon fill="#181818" points="604.14,445.0794,598.9028,436.7384,599.9906,442.2897,594.4393,443.3775,604.14,445.0794" style="stroke:#181818;stroke-width:1;"/><text fill="#000000" font-family="sans-serif" font-size="13" lengthAdjust="spacing" textLength="57.0908" x="550.5" y="406.1045">integrates</text></g><!--link Service to Stripe Gateway--><g class="link" data-entity-1="Service" data-entity-2="Stripe Gateway" data-source-line="21" data-uid="lnk18" id="link_Service_Stripe Gateway"><path codeLine="21" d="M516.51,360.1094 C547.16,369.1294 583.85,380.3694 616.5,391.6094 C665.57,408.4994 715.7013,428.2709 751.2913,442.7309" fill="none" id="Service-to-Stripe Gateway" style="stroke:#181818;stroke-width:1;"/><polygon fill="#181818" points="756.85,444.9894,750.0176,437.8959,752.2177,443.1073,747.0063,445.3075,756.85,444.9894" style="stroke:#181818;stroke-width:1;"/><text fill="#000000" font-family="sans-serif" font-size="13" lengthAdjust="spacing" textLength="57.0908" x="667.5" y="406.1045">integrates</text></g><!--link Service to Gmail SMTP--><g class="link" data-entity-1="Service" data-entity-2="Gmail SMTP" data-source-line="22" data-uid="lnk20" id="link_Service_Gmail SMTP"><path codeLine="22" d="M516.59,350.4694 C574.47,359.1594 660.09,373.4694 733.5,391.6094 C794.73,406.7394 858.3206,427.9367 901.2906,443.0667" fill="none" id="Service-to-Gmail SMTP" style="stroke:#181818;stroke-width:1;"/><polygon fill="#181818" points="906.95,445.0594,899.7893,438.2973,902.2338,443.3988,897.1324,445.8432,906.95,445.0594" style="stroke:#181818;stroke-width:1;"/><text fill="#000000" font-family="sans-serif" font-size="13" lengthAdjust="spacing" textLength="96.8271" x="794.5" y="406.1045">email notification</text></g><!--SRC=[ZPBDRjim3CVlUWeYvndPUZIA05rQ53qCCUOMEyio4mknHKEY6sHliISOXfu7xDmUD-mzyYQJx2Hs4m_enUB7xq-HjDnQcrfQMO4hP4uRRLQmbAL3uOuPLKhdhfYjpXh6EqKcrLyHtej2vmXOrRo52giChHEikKIO1mLSQxaA-WWUvj672_YC2lKZGYAt5Hg6BvWLH6iXsWjWCYzGhQbXc1wHXxi9IESFkBpCg36vjDlPx23OKtCoRAaiqRPmxtgHEZfdiXJjerROQlQs5xZEwkcFkYnR9XWUoAcIslJvj22yHfQwetftX9rJKvFPTndC4MPXSxGtFbOE6poB3fN2xoUAPiF9OqWMwJrCwsvMDzrqomQofnddVsoD1q0CYeIQX-jYoB74bMHquX0B-NOhCJJk93xOmqXsF_r8vdpG4IZymaKAjxwRZTnEFA8DetzifzrDqdQujv2tuKv8FzqdWSBMCyHwgPLaJKO8xo5OlIeOQEdVfEYUTVJVXtsbcAoBuLMtx-1rJoAn61-bVxxzVlAVlxzsBqyAriNkvRi6tZt_8CXQkwqrxKg8X1p7tSh0iUJ6zLgrU_vPWodymG9D7eR1Vm00]--></g></svg>