<svg xmlns="http://www.w3.org/2000/svg" xmlns:xlink="http://www.w3.org/1999/xlink" contentStyleType="text/css" data-diagram-type="CLASS" height="488px" preserveAspectRatio="none" style="width:630px;height:488px;background:#FFFFFF;" version="1.1" viewBox="0 0 630 488" width="630px" zoomAndPan="magnify"><title>Class Diagram - UC-75 Close Conversation</title><defs/><g><g class="title" data-source-line="4"><text fill="#000000" font-family="sans-serif" font-size="14" font-weight="bold" lengthAdjust="spacing" textLength="285.5303" x="165.687" y="24.5332">Class Diagram - UC-75 Close Conversation</text></g><!--class UI--><g class="entity" data-entity="UI" data-source-line="6" data-uid="ent0002" id="entity_UI"><rect fill="#F1F1F1" height="42.7031" rx="2.5" ry="2.5" style="stroke:#181818;stroke-width:0.5;" width="211.7373" x="139" y="60.6094"/><ellipse cx="154" cy="81.9609" fill="#ADD1B2" rx="11" ry="11" style="stroke:#181818;stroke-width:1;"/><path d="M156.7656,77.8359 Q156.9219,77.6172 157.1094,77.5078 Q157.2969,77.3984 157.5156,77.3984 Q157.8906,77.3984 158.125,77.6641 Q158.3594,77.9141 158.3594,78.5234 L158.3594,79.9766 Q158.3594,80.5859 158.125,80.8516 Q157.8906,81.1172 157.5156,81.1172 Q157.1719,81.1172 156.9688,80.9141 Q156.7656,80.7266 156.6563,80.2109 Q156.6094,79.8516 156.4219,79.6641 Q156.0938,79.2891 155.4844,79.0703 Q154.875,78.8516 154.25,78.8516 Q153.4844,78.8516 152.8438,79.1797 Q152.2188,79.5078 151.7188,80.2578 Q151.2344,81.0078 151.2344,82.0391 L151.2344,83.1328 Q151.2344,84.3672 152.125,85.1953 Q153.0156,86.0078 154.6094,86.0078 Q155.5469,86.0078 156.2031,85.7578 Q156.5938,85.6016 157.0156,85.1641 Q157.2813,84.8984 157.4219,84.8203 Q157.5781,84.7422 157.7813,84.7422 Q158.1094,84.7422 158.3594,85.0078 Q158.625,85.2578 158.625,85.6016 Q158.625,85.9453 158.2813,86.3516 Q157.7813,86.9297 156.9844,87.2578 Q155.9063,87.7109 154.6094,87.7109 Q153.0938,87.7109 151.8906,87.0859 Q150.9063,86.5859 150.2188,85.5234 Q149.5313,84.4453 149.5313,83.1641 L149.5313,82.0078 Q149.5313,80.6797 150.1406,79.5391 Q150.7656,78.3828 151.8594,77.7734 Q152.9531,77.1484 154.1875,77.1484 Q154.9219,77.1484 155.5625,77.3203 Q156.2188,77.4766 156.7656,77.8359 Z " fill="#000000"/><text fill="#000000" font-family="sans-serif" font-size="12" font-style="italic" lengthAdjust="spacing" textLength="63.3867" x="226.1753" y="78.0664">&#171;boundary&#187;</text><text fill="#000000" font-family="sans-serif" font-size="14" lengthAdjust="spacing" textLength="179.7373" x="168" y="95.2363">Chat Widget / Admin Chat UI</text></g><!--class Controller--><g class="entity" data-entity="Controller" data-source-line="7" data-uid="ent0003" id="entity_Controller"><rect fill="#F1F1F1" height="42.7031" rx="2.5" ry="2.5" style="stroke:#181818;stroke-width:0.5;" width="122.2617" x="184" y="197.6094"/><ellipse cx="199" cy="218.9609" fill="#ADD1B2" rx="11" ry="11" style="stroke:#181818;stroke-width:1;"/><path d="M201.7656,214.8359 Q201.9219,214.6172 202.1094,214.5078 Q202.2969,214.3984 202.5156,214.3984 Q202.8906,214.3984 203.125,214.6641 Q203.3594,214.9141 203.3594,215.5234 L203.3594,216.9766 Q203.3594,217.5859 203.125,217.8516 Q202.8906,218.1172 202.5156,218.1172 Q202.1719,218.1172 201.9688,217.9141 Q201.7656,217.7266 201.6563,217.2109 Q201.6094,216.8516 201.4219,216.6641 Q201.0938,216.2891 200.4844,216.0703 Q199.875,215.8516 199.25,215.8516 Q198.4844,215.8516 197.8438,216.1797 Q197.2188,216.5078 196.7188,217.2578 Q196.2344,218.0078 196.2344,219.0391 L196.2344,220.1328 Q196.2344,221.3672 197.125,222.1953 Q198.0156,223.0078 199.6094,223.0078 Q200.5469,223.0078 201.2031,222.7578 Q201.5938,222.6016 202.0156,222.1641 Q202.2813,221.8984 202.4219,221.8203 Q202.5781,221.7422 202.7813,221.7422 Q203.1094,221.7422 203.3594,222.0078 Q203.625,222.2578 203.625,222.6016 Q203.625,222.9453 203.2813,223.3516 Q202.7813,223.9297 201.9844,224.2578 Q200.9063,224.7109 199.6094,224.7109 Q198.0938,224.7109 196.8906,224.0859 Q195.9063,223.5859 195.2188,222.5234 Q194.5313,221.4453 194.5313,220.1641 L194.5313,219.0078 Q194.5313,217.6797 195.1406,216.5391 Q195.7656,215.3828 196.8594,214.7734 Q197.9531,214.1484 199.1875,214.1484 Q199.9219,214.1484 200.5625,214.3203 Q201.2188,214.4766 201.7656,214.8359 Z " fill="#000000"/><text fill="#000000" font-family="sans-serif" font-size="12" font-style="italic" lengthAdjust="spacing" textLength="62.7012" x="226.7803" y="215.0664">&#171;controller&#187;</text><text fill="#000000" font-family="sans-serif" font-size="14" lengthAdjust="spacing" textLength="90.2617" x="213" y="232.2363">ChatController</text></g><!--class Service--><g class="entity" data-entity="Service" data-source-line="8" data-uid="ent0004" id="entity_Service"><rect fill="#F1F1F1" height="42.7031" rx="2.5" ry="2.5" style="stroke:#181818;stroke-width:0.5;" width="108.2549" x="191" y="318.6094"/><ellipse cx="206" cy="339.9609" fill="#ADD1B2" rx="11" ry="11" style="stroke:#181818;stroke-width:1;"/><path d="M208.7656,335.8359 Q208.9219,335.6172 209.1094,335.5078 Q209.2969,335.3984 209.5156,335.3984 Q209.8906,335.3984 210.125,335.6641 Q210.3594,335.9141 210.3594,336.5234 L210.3594,337.9766 Q210.3594,338.5859 210.125,338.8516 Q209.8906,339.1172 209.5156,339.1172 Q209.1719,339.1172 208.9688,338.9141 Q208.7656,338.7266 208.6563,338.2109 Q208.6094,337.8516 208.4219,337.6641 Q208.0938,337.2891 207.4844,337.0703 Q206.875,336.8516 206.25,336.8516 Q205.4844,336.8516 204.8438,337.1797 Q204.2188,337.5078 203.7188,338.2578 Q203.2344,339.0078 203.2344,340.0391 L203.2344,341.1328 Q203.2344,342.3672 204.125,343.1953 Q205.0156,344.0078 206.6094,344.0078 Q207.5469,344.0078 208.2031,343.7578 Q208.5938,343.6016 209.0156,343.1641 Q209.2813,342.8984 209.4219,342.8203 Q209.5781,342.7422 209.7813,342.7422 Q210.1094,342.7422 210.3594,343.0078 Q210.625,343.2578 210.625,343.6016 Q210.625,343.9453 210.2813,344.3516 Q209.7813,344.9297 208.9844,345.2578 Q207.9063,345.7109 206.6094,345.7109 Q205.0938,345.7109 203.8906,345.0859 Q202.9063,344.5859 202.2188,343.5234 Q201.5313,342.4453 201.5313,341.1641 L201.5313,340.0078 Q201.5313,338.6797 202.1406,337.5391 Q202.7656,336.3828 203.8594,335.7734 Q204.9531,335.1484 206.1875,335.1484 Q206.9219,335.1484 207.5625,335.3203 Q208.2188,335.4766 208.7656,335.8359 Z " fill="#000000"/><text fill="#000000" font-family="sans-serif" font-size="12" font-style="italic" lengthAdjust="spacing" textLength="51.3574" x="232.4487" y="336.0664">&#171;service&#187;</text><text fill="#000000" font-family="sans-serif" font-size="14" lengthAdjust="spacing" textLength="76.2549" x="220" y="353.2363">ChatService</text></g><!--class ChatConversation--><g class="entity" data-entity="ChatConversation" data-source-line="9" data-uid="ent0005" id="entity_ChatConversation"><rect fill="#F1F1F1" height="42.7031" rx="2.5" ry="2.5" style="stroke:#181818;stroke-width:0.5;" width="144.0615" x="7" y="439.6094"/><ellipse cx="22" cy="460.9609" fill="#ADD1B2" rx="11" ry="11" style="stroke:#181818;stroke-width:1;"/><path d="M24.7656,456.8359 Q24.9219,456.6172 25.1094,456.5078 Q25.2969,456.3984 25.5156,456.3984 Q25.8906,456.3984 26.125,456.6641 Q26.3594,456.9141 26.3594,457.5234 L26.3594,458.9766 Q26.3594,459.5859 26.125,459.8516 Q25.8906,460.1172 25.5156,460.1172 Q25.1719,460.1172 24.9688,459.9141 Q24.7656,459.7266 24.6563,459.2109 Q24.6094,458.8516 24.4219,458.6641 Q24.0938,458.2891 23.4844,458.0703 Q22.875,457.8516 22.25,457.8516 Q21.4844,457.8516 20.8438,458.1797 Q20.2188,458.5078 19.7188,459.2578 Q19.2344,460.0078 19.2344,461.0391 L19.2344,462.1328 Q19.2344,463.3672 20.125,464.1953 Q21.0156,465.0078 22.6094,465.0078 Q23.5469,465.0078 24.2031,464.7578 Q24.5938,464.6016 25.0156,464.1641 Q25.2813,463.8984 25.4219,463.8203 Q25.5781,463.7422 25.7813,463.7422 Q26.1094,463.7422 26.3594,464.0078 Q26.625,464.2578 26.625,464.6016 Q26.625,464.9453 26.2813,465.3516 Q25.7813,465.9297 24.9844,466.2578 Q23.9063,466.7109 22.6094,466.7109 Q21.0938,466.7109 19.8906,466.0859 Q18.9063,465.5859 18.2188,464.5234 Q17.5313,463.4453 17.5313,462.1641 L17.5313,461.0078 Q17.5313,459.6797 18.1406,458.5391 Q18.7656,457.3828 19.8594,456.7734 Q20.9531,456.1484 22.1875,456.1484 Q22.9219,456.1484 23.5625,456.3203 Q24.2188,456.4766 24.7656,456.8359 Z " fill="#000000"/><text fill="#000000" font-family="sans-serif" font-size="12" font-style="italic" lengthAdjust="spacing" textLength="52.7051" x="65.6782" y="457.0664">&#171;domain&#187;</text><text fill="#000000" font-family="sans-serif" font-size="14" lengthAdjust="spacing" textLength="112.0615" x="36" y="474.2363">ChatConversation</text></g><!--class ChatMessage--><g class="entity" data-entity="ChatMessage" data-source-line="10" data-uid="ent0006" id="entity_ChatMessage"><rect fill="#F1F1F1" height="42.7031" rx="2.5" ry="2.5" style="stroke:#181818;stroke-width:0.5;" width="118.3789" x="186" y="439.6094"/><ellipse cx="201" cy="460.9609" fill="#ADD1B2" rx="11" ry="11" style="stroke:#181818;stroke-width:1;"/><path d="M203.7656,456.8359 Q203.9219,456.6172 204.1094,456.5078 Q204.2969,456.3984 204.5156,456.3984 Q204.8906,456.3984 205.125,456.6641 Q205.3594,456.9141 205.3594,457.5234 L205.3594,458.9766 Q205.3594,459.5859 205.125,459.8516 Q204.8906,460.1172 204.5156,460.1172 Q204.1719,460.1172 203.9688,459.9141 Q203.7656,459.7266 203.6563,459.2109 Q203.6094,458.8516 203.4219,458.6641 Q203.0938,458.2891 202.4844,458.0703 Q201.875,457.8516 201.25,457.8516 Q200.4844,457.8516 199.8438,458.1797 Q199.2188,458.5078 198.7188,459.2578 Q198.2344,460.0078 198.2344,461.0391 L198.2344,462.1328 Q198.2344,463.3672 199.125,464.1953 Q200.0156,465.0078 201.6094,465.0078 Q202.5469,465.0078 203.2031,464.7578 Q203.5938,464.6016 204.0156,464.1641 Q204.2813,463.8984 204.4219,463.8203 Q204.5781,463.7422 204.7813,463.7422 Q205.1094,463.7422 205.3594,464.0078 Q205.625,464.2578 205.625,464.6016 Q205.625,464.9453 205.2813,465.3516 Q204.7813,465.9297 203.9844,466.2578 Q202.9063,466.7109 201.6094,466.7109 Q200.0938,466.7109 198.8906,466.0859 Q197.9063,465.5859 197.2188,464.5234 Q196.5313,463.4453 196.5313,462.1641 L196.5313,461.0078 Q196.5313,459.6797 197.1406,458.5391 Q197.7656,457.3828 198.8594,456.7734 Q199.9531,456.1484 201.1875,456.1484 Q201.9219,456.1484 202.5625,456.3203 Q203.2188,456.4766 203.7656,456.8359 Z " fill="#000000"/><text fill="#000000" font-family="sans-serif" font-size="12" font-style="italic" lengthAdjust="spacing" textLength="52.7051" x="231.8369" y="457.0664">&#171;domain&#187;</text><text fill="#000000" font-family="sans-serif" font-size="14" lengthAdjust="spacing" textLength="86.3789" x="215" y="474.2363">ChatMessage</text></g><!--class ShoeDetail--><g class="entity" data-entity="ShoeDetail" data-source-line="11" data-uid="ent0007" id="entity_ShoeDetail"><rect fill="#F1F1F1" height="42.7031" rx="2.5" ry="2.5" style="stroke:#181818;stroke-width:0.5;" width="100.4893" x="339" y="439.6094"/><ellipse cx="354" cy="460.9609" fill="#ADD1B2" rx="11" ry="11" style="stroke:#181818;stroke-width:1;"/><path d="M356.7656,456.8359 Q356.9219,456.6172 357.1094,456.5078 Q357.2969,456.3984 357.5156,456.3984 Q357.8906,456.3984 358.125,456.6641 Q358.3594,456.9141 358.3594,457.5234 L358.3594,458.9766 Q358.3594,459.5859 358.125,459.8516 Q357.8906,460.1172 357.5156,460.1172 Q357.1719,460.1172 356.9688,459.9141 Q356.7656,459.7266 356.6563,459.2109 Q356.6094,458.8516 356.4219,458.6641 Q356.0938,458.2891 355.4844,458.0703 Q354.875,457.8516 354.25,457.8516 Q353.4844,457.8516 352.8438,458.1797 Q352.2188,458.5078 351.7188,459.2578 Q351.2344,460.0078 351.2344,461.0391 L351.2344,462.1328 Q351.2344,463.3672 352.125,464.1953 Q353.0156,465.0078 354.6094,465.0078 Q355.5469,465.0078 356.2031,464.7578 Q356.5938,464.6016 357.0156,464.1641 Q357.2813,463.8984 357.4219,463.8203 Q357.5781,463.7422 357.7813,463.7422 Q358.1094,463.7422 358.3594,464.0078 Q358.625,464.2578 358.625,464.6016 Q358.625,464.9453 358.2813,465.3516 Q357.7813,465.9297 356.9844,466.2578 Q355.9063,466.7109 354.6094,466.7109 Q353.0938,466.7109 351.8906,466.0859 Q350.9063,465.5859 350.2188,464.5234 Q349.5313,463.4453 349.5313,462.1641 L349.5313,461.0078 Q349.5313,459.6797 350.1406,458.5391 Q350.7656,457.3828 351.8594,456.7734 Q352.9531,456.1484 354.1875,456.1484 Q354.9219,456.1484 355.5625,456.3203 Q356.2188,456.4766 356.7656,456.8359 Z " fill="#000000"/><text fill="#000000" font-family="sans-serif" font-size="12" font-style="italic" lengthAdjust="spacing" textLength="52.7051" x="375.8921" y="457.0664">&#171;domain&#187;</text><text fill="#000000" font-family="sans-serif" font-size="14" lengthAdjust="spacing" textLength="68.4893" x="368" y="474.2363">ShoeDetail</text></g><g class="entity" data-entity="GMN13" data-source-line="20" data-uid="ent0014" id="entity_GMN13"><path d="M386.5,44.6094 L386.5,78.1094 L351.13,82.1094 L386.5,86.1094 L386.5,120.0156 A0,0 0 0 0 386.5,120.0156 L623.9043,120.0156 A0,0 0 0 0 623.9043,120.0156 L623.9043,54.6094 L613.9043,44.6094 L386.5,44.6094 A0,0 0 0 0 386.5,44.6094" fill="#FEFFDD" style="stroke:#181818;stroke-width:0.5;"/><path d="M613.9043,44.6094 L613.9043,54.6094 L623.9043,54.6094 L613.9043,44.6094" fill="#FEFFDD" style="stroke:#181818;stroke-width:0.5;"/><text fill="#000000" font-family="sans-serif" font-size="13" lengthAdjust="spacing" textLength="162.5635" x="392.5" y="63.1045">UC-75 - Close Conversation</text><text fill="#000000" font-family="sans-serif" font-size="13" lengthAdjust="spacing" textLength="139.4453" x="392.5" y="79.4561">Actors: Admin, Manager</text><text fill="#000000" font-family="sans-serif" font-size="13" lengthAdjust="spacing" textLength="159.5483" x="392.5" y="95.8076">Pre: Conversation &#273;ang m&#7903;</text><text fill="#000000" font-family="sans-serif" font-size="13" lengthAdjust="spacing" textLength="216.4043" x="392.5" y="112.1592">Post: Conversation status = CLOSED</text></g><!--link UI to Controller--><g class="link" data-entity-1="UI" data-entity-2="Controller" data-source-line="13" data-uid="lnk8" id="link_UI_Controller"><path codeLine="13" d="M245,103.6094 C245,128.9894 245,165.9494 245,191.4094" fill="none" id="UI-to-Controller" style="stroke:#181818;stroke-width:1;"/><polygon fill="#181818" points="245,197.4094,249,188.4094,245,192.4094,241,188.4094,245,197.4094" style="stroke:#181818;stroke-width:1;"/><text fill="#000000" font-family="sans-serif" font-size="13" lengthAdjust="spacing" textLength="215.3125" x="246" y="164.1045">PATCH /chat/conversations/:id/status</text></g><!--link Controller to Service--><g class="link" data-entity-1="Controller" data-entity-2="Service" data-source-line="14" data-uid="lnk9" id="link_Controller_Service"><path codeLine="14" d="M245,240.8394 C245,262.5494 245,290.4494 245,312.2194" fill="none" id="Controller-to-Service" style="stroke:#181818;stroke-width:1;"/><polygon fill="#181818" points="245,318.2194,249,309.2194,245,313.2194,241,309.2194,245,318.2194" style="stroke:#181818;stroke-width:1;"/><text fill="#000000" font-family="sans-serif" font-size="13" lengthAdjust="spacing" textLength="56.3799" x="246" y="285.1045">delegates</text></g><!--link Service to ChatConversation--><g class="link" data-entity-1="Service" data-entity-2="ChatConversation" data-source-line="15" data-uid="lnk10" id="link_Service_ChatConversation"><path codeLine="15" d="M216.09,361.8394 C185.71,383.6094 143.0968,414.164 112.7368,435.924" fill="none" id="Service-to-ChatConversation" style="stroke:#181818;stroke-width:1;"/><polygon fill="#181818" points="107.86,439.4194,117.5053,437.4276,111.924,436.5066,112.8449,430.9252,107.86,439.4194" style="stroke:#181818;stroke-width:1;"/><text fill="#000000" font-family="sans-serif" font-size="13" lengthAdjust="spacing" textLength="27.46" x="173" y="406.1045">uses</text></g><!--link Service to ChatMessage--><g class="link" data-entity-1="Service" data-entity-2="ChatMessage" data-source-line="16" data-uid="lnk11" id="link_Service_ChatMessage"><path codeLine="16" d="M245,361.8394 C245,383.5494 245,411.4494 245,433.2194" fill="none" id="Service-to-ChatMessage" style="stroke:#181818;stroke-width:1;"/><polygon fill="#181818" points="245,439.2194,249,430.2194,245,434.2194,241,430.2194,245,439.2194" style="stroke:#181818;stroke-width:1;"/><text fill="#000000" font-family="sans-serif" font-size="13" lengthAdjust="spacing" textLength="27.46" x="246" y="406.1045">uses</text></g><!--link Service to ShoeDetail--><g class="link" data-entity-1="Service" data-entity-2="ShoeDetail" data-source-line="17" data-uid="lnk12" id="link_Service_ShoeDetail"><path codeLine="17" d="M270.08,361.8394 C296.35,383.5494 332.7552,413.627 359.0952,435.397" fill="none" id="Service-to-ShoeDetail" style="stroke:#181818;stroke-width:1;"/><polygon fill="#181818" points="363.72,439.2194,359.331,430.4025,359.866,436.034,354.2345,436.569,363.72,439.2194" style="stroke:#181818;stroke-width:1;"/><text fill="#000000" font-family="sans-serif" font-size="13" lengthAdjust="spacing" textLength="27.46" x="326" y="406.1045">uses</text></g><!--SRC=[RLB1JiCm3BtdAwoTgSe58LLZqjGXCOc9IMFYx3LU6z4cK-mDZR_W2_WGhlm8VqBMRgKRFIMsttlsIyolncxGOmLSe7PlnkQmnf99SLl9IcGUYtYpsWfDCsSNvftWMXL64r2raJrKLAt8in8Z9K5wOC34O7xWHx1CezkRa7KSQixk0XB5EAjKhGs3j4215wDp4eXXh2jZeSujfmD03WSCXoktjHhzVZJgqeAUU5UMv6laNnWOMHkSSnRaToQZcd2y1pGtjt_oxRXDWuja86fNeR7dl1anOqujvHZte1U5ema9chAPfmsxM1LU88f6NNi9pCVFwGF4MP2Fiyv872T6nomeMrOTna7WP3S1JINbACJgbAiRNDfBOCizc9EVddB7mR6gh1C2R_92mAt3Rwfc8wA-dHXduZmdpHPSmGnjwEFLt5Do1eJl3mpRMlryVQgvOxceDlRX3jB7fyNzH97LS1ZZ5m00]--></g></svg>