<svg xmlns="http://www.w3.org/2000/svg" width="280" height="96" viewBox="0 0 280 96" role="img" aria-labelledby="title desc">
  <title id="title">PTT Style logo</title>
  <desc id="desc">A custom fashion logo combining a hanger, shirt shape, and sneaker sole.</desc>
  <rect x="6" y="10" width="76" height="76" rx="22" fill="#111111"/>
  <path d="M44 26c0-6 8-6 8 0 0 4-5 5-8 9" fill="none" stroke="#ffffff" stroke-width="5" stroke-linecap="round"/>
  <path d="M26 46l18-11 18 11" fill="none" stroke="#ffffff" stroke-width="5" stroke-linecap="round" stroke-linejoin="round"/>
  <path d="M31 50l7 21h12l7-21" fill="none" stroke="#ffffff" stroke-width="5" stroke-linecap="round" stroke-linejoin="round"/>
  <path d="M25 70c12 8 34 8 47-2 2-2 5 1 4 4-2 6-11 10-24 11-13 1-25-2-33-8-3-2 2-8 6-5z" fill="#d6a23f"/>
  <path d="M103 35h45v13h-14v31h-17V48h-14V35z" fill="#111111"/>
  <path d="M151 35h45v13h-14v31h-17V48h-14V35z" fill="#111111"/>
  <path d="M201 35h33c11 0 18 6 18 16 0 10-7 17-18 17h-16v11h-17V35zm17 13v8h13c3 0 5-1 5-4s-2-4-5-4h-13z" fill="#111111"/>
  <path d="M104 84h70" stroke="#d6a23f" stroke-width="5" stroke-linecap="round"/>
  <text x="186" y="86" fill="#555555" font-family="Arial, Helvetica, sans-serif" font-size="16" font-weight="700" letter-spacing="4">STYLE</text>
</svg>
